<mxfile host="app.diagrams.net" modified="2023-03-15T15:10:26.847Z" agent="5.0 (Windows)" etag="NLaG9c01lIiJlmpu0pbk" version="21.0.6" type="github">
  <diagram name="Page-1" id="7pdsU3BYPVbEFpXT96SS">
    <mxGraphModel dx="1434" dy="711" grid="1" gridSize="10" guides="1" tooltips="1" connect="1" arrows="1" fold="1" page="1" pageScale="1" pageWidth="827" pageHeight="1169" math="0" shadow="0">
      <root>
        <mxCell id="0" />
        <mxCell id="1" parent="0" />
        <mxCell id="Z0xOerYNmcIT1oId9lS7-1" value="" style="shape=image;verticalLabelPosition=bottom;labelBackgroundColor=#ffffff;verticalAlign=top;aspect=fixed;imageAspect=0;image=data:image/svg+xml,PHN2ZyB4bWxuczpjYz0iaHR0cDovL2NyZWF0aXZlY29tbW9ucy5vcmcvbnMjIiB4bWxuczpkYz0iaHR0cDovL3B1cmwub3JnL2RjL2VsZW1lbnRzLzEuMS8iIHhtbG5zOmlua3NjYXBlPSJodHRwOi8vd3d3Lmlua3NjYXBlLm9yZy9uYW1lc3BhY2VzL2lua3NjYXBlIiB4bWxuczpyZGY9Imh0dHA6Ly93d3cudzMub3JnLzE5OTkvMDIvMjItcmRmLXN5bnRheC1ucyMiIHhtbG5zOnNvZGlwb2RpPSJodHRwOi8vc29kaXBvZGkuc291cmNlZm9yZ2UubmV0L0RURC9zb2RpcG9kaS0wLmR0ZCIgeG1sbnM6c3ZnPSJodHRwOi8vd3d3LnczLm9yZy8yMDAwL3N2ZyIgeG1sbnM9Imh0dHA6Ly93d3cudzMub3JnLzIwMDAvc3ZnIiB4bWxuczp4bGluaz0iaHR0cDovL3d3dy53My5vcmcvMTk5OS94bGluayIgdmVyc2lvbj0iMS4xIiBpZD0ic3ZnNTg0NTUiIGlua3NjYXBlOnZlcnNpb249IjAuOTIuMyAoMjQwNTU0NiwgMjAxOC0wMy0xMSkiIHNvZGlwb2RpOmRvY25hbWU9ImF6dXJlX2ZpcmV3YWxsLnN2ZyIgeD0iMHB4IiB5PSIwcHgiIHZpZXdCb3g9IjAgMCAzNy40MiAzNy40MyIgc3R5bGU9ImVuYWJsZS1iYWNrZ3JvdW5kOm5ldyAwIDAgMzcuNDIgMzcuNDM7IiB4bWw6c3BhY2U9InByZXNlcnZlIj4mI3hhOzxzb2RpcG9kaTpuYW1lZHZpZXcgYm9yZGVyY29sb3I9IiM2NjY2NjYiIGJvcmRlcm9wYWNpdHk9IjEiIGZpdC1tYXJnaW4tYm90dG9tPSIwIiBmaXQtbWFyZ2luLWxlZnQ9IjAiIGZpdC1tYXJnaW4tcmlnaHQ9IjAiIGZpdC1tYXJnaW4tdG9wPSIwIiBncmlkdG9sZXJhbmNlPSIxMCIgZ3VpZGV0b2xlcmFuY2U9IjEwIiBpZD0ibmFtZWR2aWV3NTg0NTciIGlua3NjYXBlOmN1cnJlbnQtbGF5ZXI9InN2ZzU4NDU1IiBpbmtzY2FwZTpjeD0iMzQuMTg2MzE2IiBpbmtzY2FwZTpjeT0iMTguNzQ1Mzk3IiBpbmtzY2FwZTpwYWdlb3BhY2l0eT0iMCIgaW5rc2NhcGU6cGFnZXNoYWRvdz0iMiIgaW5rc2NhcGU6d2luZG93LWhlaWdodD0iMTAxNyIgaW5rc2NhcGU6d2luZG93LW1heGltaXplZD0iMSIgaW5rc2NhcGU6d2luZG93LXdpZHRoPSIxOTIwIiBpbmtzY2FwZTp3aW5kb3cteD0iLTgiIGlua3NjYXBlOndpbmRvdy15PSItOCIgaW5rc2NhcGU6em9vbT0iMTEuODEyMzYyIiBvYmplY3R0b2xlcmFuY2U9IjEwIiBwYWdlY29sb3I9IiNmZmZmZmYiIHNob3dncmlkPSJmYWxzZSI+JiN4YTsJPC9zb2RpcG9kaTpuYW1lZHZpZXc+JiN4YTs8ZyBpZD0iZzU4NDUzIiB0cmFuc2Zvcm09InRyYW5zbGF0ZSgtMC43NSwtMC43NTA3KSI+JiN4YTsJPHRpdGxlIGlkPSJ0aXRsZTU4Mjg0Ij5QYWdlLTE8L3RpdGxlPiYjeGE7CTxnIGlkPSJncm91cDU5NTAtMSIgdHJhbnNmb3JtPSJ0cmFuc2xhdGUoMC43NSwtMC43NSkiPiYjeGE7CQk8dGl0bGUgaWQ9InRpdGxlNTgyODYiPkF6dXJlIEZpcmV3YWxsPC90aXRsZT4mI3hhOwkJPGcgaWQ9InNoYXBlNTk1MS0yIiB0cmFuc2Zvcm09InRyYW5zbGF0ZSg3LjU3NSwtMTQuMjQ5MykiPiYjeGE7CQkJPHRpdGxlIGlkPSJ0aXRsZTU4Mjg4Ij5TaGVldC41OTUxPC90aXRsZT4mI3hhOwkJCTxwYXRoIGlkPSJwYXRoNTgyOTAiIGlua3NjYXBlOmNvbm5lY3Rvci1jdXJ2YXR1cmU9IjAiIHN0eWxlPSJmaWxsOiM1OUI0RDk7IiBkPSJNNy4wOSwyMy4yOGMwLjY5LTQuMjcsNC4zNy03LjUzLDguODItNy41MyAgICAgYzQuOTQsMCw4Ljk1LDQuMDIsOC45NSw4Ljk4YzAsMC41OC0wLjA2LDEuMTQtMC4xNywxLjY5YzIuOSwwLjMyLDUuMTYsMi45OCw1LjE2LDYuMjJjMCwzLjQ1LTIuNTksNi4yOS01Ljc2LDYuMjkgICAgIGMtMC43MSwwLTE2LjQ2LDAtMTYuNDYsMEMzLjQzLDM4LjkyLDAsMzUuMzEsMCwzMC45N0MwLDI2LjkxLDMuMTIsMjMuNiw3LjA5LDIzLjI4eiIvPiYjeGE7CQk8L2c+JiN4YTsJCTxnIGlkPSJncm91cDU5NTItNCI+JiN4YTsJCQk8dGl0bGUgaWQ9InRpdGxlNTgyOTMiPlNoZWV0LjU5NTI8L3RpdGxlPiYjeGE7CQkJPGcgaWQ9Imdyb3VwNTk1My01IiB0cmFuc2Zvcm09InRyYW5zbGF0ZSg5Ljc1LC0xNS43NSkiPiYjeGE7CQkJCTx0aXRsZSBpZD0idGl0bGU1ODI5NSI+U2hlZXQuNTk1MzwvdGl0bGU+JiN4YTsJCQkJPGcgaWQ9InNoYXBlNTk1NC02IiB0cmFuc2Zvcm09InRyYW5zbGF0ZSgwLjc1LC0wLjc1KSI+JiN4YTsJCQkJCTx0aXRsZSBpZD0idGl0bGU1ODI5NyI+U2hlZXQuNTk1NDwvdGl0bGU+JiN4YTsJCQkJCTxwYXRoIGlkPSJwYXRoNTgyOTkiIGlua3NjYXBlOmNvbm5lY3Rvci1jdXJ2YXR1cmU9IjAiIHN0eWxlPSJmaWxsOiNERDU5MDA7IiBkPSJNMC43NSwzOC45M0MwLjM0LDM4LjkzLDAsMzguNTksMCwzOC4xOHYtMy43NiAgICAgICBjMC0wLjQxLDAuMzQtMC43NSwwLjc1LTAuNzVIOWMwLjQxLDAsMC43NSwwLjM0LDAuNzUsMC43NXYzLjc2YzAsMC40MS0wLjM0LDAuNzUtMC43NSwwLjc1TDAuNzUsMzguOTN6Ii8+JiN4YTsJCQkJPC9nPiYjeGE7CQkJCTxnIGlkPSJzaGFwZTU5NTUtOCI+JiN4YTsJCQkJCTx0aXRsZSBpZD0idGl0bGU1ODMwMiI+U2hlZXQuNTk1NTwvdGl0bGU+JiN4YTsJCQkJCTxwYXRoIGlkPSJwYXRoNTgzMDQiIGlua3NjYXBlOmNvbm5lY3Rvci1jdXJ2YXR1cmU9IjAiIHN0eWxlPSJmaWxsOiNBMEExQTI7IiBkPSJNOS43NSwzMy42N3YzLjc2SDEuNXYtMy43Nkg5Ljc1eiBNOS43NSwzMi4xNyAgICAgICBIMS41Yy0wLjgzLDAtMS41LDAuNjgtMS41LDEuNXYzLjc2YzAsMC44MiwwLjY3LDEuNSwxLjUsMS41aDguMjVjMC44MywwLDEuNS0wLjY4LDEuNS0xLjV2LTMuNzYgICAgICAgQzExLjI1LDMyLjg1LDEwLjU4LDMyLjE3LDkuNzUsMzIuMTd6Ii8+JiN4YTsJCQkJPC9nPiYjeGE7CQkJPC9nPiYjeGE7CQkJPGcgaWQ9Imdyb3VwNTk1Ni0xMCIgdHJhbnNmb3JtPSJ0cmFuc2xhdGUoMTkuNSwtMTUuNzUpIj4mI3hhOwkJCQk8dGl0bGUgaWQ9InRpdGxlNTgzMDgiPlNoZWV0LjU5NTY8L3RpdGxlPiYjeGE7CQkJCTxnIGlkPSJzaGFwZTU5NTctMTEiIHRyYW5zZm9ybT0idHJhbnNsYXRlKDAuNzUsLTAuNzUpIj4mI3hhOwkJCQkJPHRpdGxlIGlkPSJ0aXRsZTU4MzEwIj5TaGVldC41OTU3PC90aXRsZT4mI3hhOwkJCQkJPHBhdGggaWQ9InBhdGg1ODMxMiIgaW5rc2NhcGU6Y29ubmVjdG9yLWN1cnZhdHVyZT0iMCIgc3R5bGU9ImZpbGw6I0JBMTQxQTsiIGQ9Ik0wLjc1LDM4LjkzQzAuMzQsMzguOTMsMCwzOC41OSwwLDM4LjE4di0zLjc2ICAgICAgIGMwLTAuNDEsMC4zNC0wLjc1LDAuNzUtMC43NUg5YzAuNDEsMCwwLjc1LDAuMzQsMC43NSwwLjc1djMuNzZjMCwwLjQxLTAuMzQsMC43NS0wLjc1LDAuNzVMMC43NSwzOC45M3oiLz4mI3hhOwkJCQk8L2c+JiN4YTsJCQkJPGcgaWQ9InNoYXBlNTk1OC0xMyI+JiN4YTsJCQkJCTx0aXRsZSBpZD0idGl0bGU1ODMxNSI+U2hlZXQuNTk1ODwvdGl0bGU+JiN4YTsJCQkJCTxwYXRoIGlkPSJwYXRoNTgzMTciIGlua3NjYXBlOmNvbm5lY3Rvci1jdXJ2YXR1cmU9IjAiIHN0eWxlPSJmaWxsOiNBMEExQTI7IiBkPSJNOS43NSwzMy42N3YzLjc2SDEuNXYtMy43Nkg5Ljc1eiBNOS43NSwzMi4xNyAgICAgICBIMS41Yy0wLjgzLDAtMS41LDAuNjgtMS41LDEuNXYzLjc2YzAsMC44MiwwLjY3LDEuNSwxLjUsMS41aDguMjVjMC44MywwLDEuNS0wLjY4LDEuNS0xLjV2LTMuNzYgICAgICAgQzExLjI1LDMyLjg1LDEwLjU4LDMyLjE3LDkuNzUsMzIuMTd6Ii8+JiN4YTsJCQkJPC9nPiYjeGE7CQkJPC9nPiYjeGE7CQkJPGcgaWQ9Imdyb3VwNTk1OS0xNSIgdHJhbnNmb3JtPSJ0cmFuc2xhdGUoMCwtMTUuNzUpIj4mI3hhOwkJCQk8dGl0bGUgaWQ9InRpdGxlNTgzMjEiPlNoZWV0LjU5NTk8L3RpdGxlPiYjeGE7CQkJCTxnIGlkPSJzaGFwZTU5NjAtMTYiIHRyYW5zZm9ybT0idHJhbnNsYXRlKDAuNzUsLTAuNzUpIj4mI3hhOwkJCQkJPHRpdGxlIGlkPSJ0aXRsZTU4MzIzIj5TaGVldC41OTYwPC90aXRsZT4mI3hhOwkJCQkJPHBhdGggaWQ9InBhdGg1ODMyNSIgaW5rc2NhcGU6Y29ubmVjdG9yLWN1cnZhdHVyZT0iMCIgc3R5bGU9ImZpbGw6I0JBMTQxQTsiIGQ9Ik0wLjc1LDM4LjkzQzAuMzQsMzguOTMsMCwzOC41OSwwLDM4LjE4di0zLjc2ICAgICAgIGMwLTAuNDEsMC4zNC0wLjc1LDAuNzUtMC43NUg5YzAuNDEsMCwwLjc1LDAuMzQsMC43NSwwLjc1djMuNzZjMCwwLjQxLTAuMzQsMC43NS0wLjc1LDAuNzVMMC43NSwzOC45M3oiLz4mI3hhOwkJCQk8L2c+JiN4YTsJCQkJPGcgaWQ9InNoYXBlNTk2MS0xOCI+JiN4YTsJCQkJCTx0aXRsZSBpZD0idGl0bGU1ODMyOCI+U2hlZXQuNTk2MTwvdGl0bGU+JiN4YTsJCQkJCTxwYXRoIGlkPSJwYXRoNTgzMzAiIGlua3NjYXBlOmNvbm5lY3Rvci1jdXJ2YXR1cmU9IjAiIHN0eWxlPSJmaWxsOiNBMEExQTI7IiBkPSJNOS43NSwzMy42N3YzLjc2SDEuNXYtMy43Nkg5Ljc1eiBNOS43NSwzMi4xNyAgICAgICBIMS41Yy0wLjgzLDAtMS41LDAuNjgtMS41LDEuNXYzLjc2YzAsMC44MiwwLjY3LDEuNSwxLjUsMS41aDguMjVjMC44MywwLDEuNS0wLjY4LDEuNS0xLjV2LTMuNzYgICAgICAgQzExLjI1LDMyLjg1LDEwLjU4LDMyLjE3LDkuNzUsMzIuMTd6Ii8+JiN4YTsJCQkJPC9nPiYjeGE7CQkJPC9nPiYjeGE7CQkJPGcgaWQ9Imdyb3VwNTk2Mi0yMCIgdHJhbnNmb3JtPSJ0cmFuc2xhdGUoOS43NSwtMTAuNSkiPiYjeGE7CQkJCTx0aXRsZSBpZD0idGl0bGU1ODMzNCI+U2hlZXQuNTk2MjwvdGl0bGU+JiN4YTsJCQkJPGcgaWQ9InNoYXBlNTk2My0yMSIgdHJhbnNmb3JtPSJ0cmFuc2xhdGUoMC43NSwtMC43NSkiPiYjeGE7CQkJCQk8dGl0bGUgaWQ9InRpdGxlNTgzMzYiPlNoZWV0LjU5NjM8L3RpdGxlPiYjeGE7CQkJCQk8cGF0aCBpZD0icGF0aDU4MzM4IiBpbmtzY2FwZTpjb25uZWN0b3ItY3VydmF0dXJlPSIwIiBzdHlsZT0iZmlsbDojQkExNDFBOyIgZD0iTTAuNzUsMzguOTNDMC4zNCwzOC45MywwLDM4LjU5LDAsMzguMTh2LTMuNzYgICAgICAgYzAtMC40MSwwLjM0LTAuNzUsMC43NS0wLjc1SDljMC40MSwwLDAuNzUsMC4zNCwwLjc1LDAuNzV2My43NmMwLDAuNDEtMC4zNCwwLjc1LTAuNzUsMC43NUwwLjc1LDM4LjkzeiIvPiYjeGE7CQkJCTwvZz4mI3hhOwkJCQk8ZyBpZD0ic2hhcGU1OTY0LTIzIj4mI3hhOwkJCQkJPHRpdGxlIGlkPSJ0aXRsZTU4MzQxIj5TaGVldC41OTY0PC90aXRsZT4mI3hhOwkJCQkJPHBhdGggaWQ9InBhdGg1ODM0MyIgaW5rc2NhcGU6Y29ubmVjdG9yLWN1cnZhdHVyZT0iMCIgc3R5bGU9ImZpbGw6I0EwQTFBMjsiIGQ9Ik05Ljc1LDMzLjY3djMuNzZIMS41di0zLjc2SDkuNzV6IE05Ljc1LDMyLjE3ICAgICAgIEgxLjVjLTAuODMsMC0xLjUsMC42OC0xLjUsMS41djMuNzZjMCwwLjgyLDAuNjcsMS41LDEuNSwxLjVoOC4yNWMwLjgzLDAsMS41LTAuNjgsMS41LTEuNXYtMy43NiAgICAgICBDMTEuMjUsMzIuODUsMTAuNTgsMzIuMTcsOS43NSwzMi4xN3oiLz4mI3hhOwkJCQk8L2c+JiN4YTsJCQk8L2c+JiN4YTsJCQk8ZyBpZD0iZ3JvdXA1OTY1LTI1IiB0cmFuc2Zvcm09InRyYW5zbGF0ZSgwLC01LjI1KSI+JiN4YTsJCQkJPHRpdGxlIGlkPSJ0aXRsZTU4MzQ3Ij5TaGVldC41OTY1PC90aXRsZT4mI3hhOwkJCQk8ZyBpZD0ic2hhcGU1OTY2LTI2IiB0cmFuc2Zvcm09InRyYW5zbGF0ZSgwLjc1LC0wLjc1KSI+JiN4YTsJCQkJCTx0aXRsZSBpZD0idGl0bGU1ODM0OSI+U2hlZXQuNTk2NjwvdGl0bGU+JiN4YTsJCQkJCTxwYXRoIGlkPSJwYXRoNTgzNTEiIGlua3NjYXBlOmNvbm5lY3Rvci1jdXJ2YXR1cmU9IjAiIHN0eWxlPSJmaWxsOiNERDU5MDA7IiBkPSJNMC43NSwzOC45M0MwLjM0LDM4LjkzLDAsMzguNTksMCwzOC4xOHYtMy43NiAgICAgICBjMC0wLjQxLDAuMzQtMC43NSwwLjc1LTAuNzVIOWMwLjQxLDAsMC43NSwwLjM0LDAuNzUsMC43NXYzLjc2YzAsMC40MS0wLjM0LDAuNzUtMC43NSwwLjc1TDAuNzUsMzguOTN6Ii8+JiN4YTsJCQkJPC9nPiYjeGE7CQkJCTxnIGlkPSJzaGFwZTU5NjctMjgiPiYjeGE7CQkJCQk8dGl0bGUgaWQ9InRpdGxlNTgzNTQiPlNoZWV0LjU5Njc8L3RpdGxlPiYjeGE7CQkJCQk8cGF0aCBpZD0icGF0aDU4MzU2IiBpbmtzY2FwZTpjb25uZWN0b3ItY3VydmF0dXJlPSIwIiBzdHlsZT0iZmlsbDojQTBBMUEyOyIgZD0iTTkuNzUsMzMuNjd2My43NkgxLjV2LTMuNzZIOS43NXogTTkuNzUsMzIuMTcgICAgICAgSDEuNWMtMC44MywwLTEuNSwwLjY4LTEuNSwxLjV2My43NmMwLDAuODIsMC42NywxLjUsMS41LDEuNWg4LjI1YzAuODMsMCwxLjUtMC42OCwxLjUtMS41di0zLjc2ICAgICAgIEMxMS4yNSwzMi44NSwxMC41OCwzMi4xNyw5Ljc1LDMyLjE3eiIvPiYjeGE7CQkJCTwvZz4mI3hhOwkJCTwvZz4mI3hhOwkJCTxnIGlkPSJncm91cDU5NjgtMzAiIHRyYW5zZm9ybT0idHJhbnNsYXRlKDAsLTEwLjUpIj4mI3hhOwkJCQk8dGl0bGUgaWQ9InRpdGxlNTgzNjAiPlNoZWV0LjU5Njg8L3RpdGxlPiYjeGE7CQkJCTxnIGlkPSJzaGFwZTU5NjktMzEiIHRyYW5zZm9ybT0idHJhbnNsYXRlKDAuNzUsLTAuNzUpIj4mI3hhOwkJCQkJPHRpdGxlIGlkPSJ0aXRsZTU4MzYyIj5TaGVldC41OTY5PC90aXRsZT4mI3hhOwkJCQkJPHBhdGggaWQ9InBhdGg1ODM2NCIgaW5rc2NhcGU6Y29ubmVjdG9yLWN1cnZhdHVyZT0iMCIgc3R5bGU9ImZpbGw6I0JBMTQxQTsiIGQ9Ik0wLjc1LDM4LjkzQzAuMzQsMzguOTMsMCwzOC41OSwwLDM4LjE4di0zLjc2ICAgICAgIGMwLTAuNDEsMC4zNC0wLjc1LDAuNzUtMC43NUg5YzAuNDEsMCwwLjc1LDAuMzQsMC43NSwwLjc1djMuNzZjMCwwLjQxLTAuMzQsMC43NS0wLjc1LDAuNzVMMC43NSwzOC45M3oiLz4mI3hhOwkJCQk8L2c+JiN4YTsJCQkJPGcgaWQ9InNoYXBlNTk3MC0zMyI+JiN4YTsJCQkJCTx0aXRsZSBpZD0idGl0bGU1ODM2NyI+U2hlZXQuNTk3MDwvdGl0bGU+JiN4YTsJCQkJCTxwYXRoIGlkPSJwYXRoNTgzNjkiIGlua3NjYXBlOmNvbm5lY3Rvci1jdXJ2YXR1cmU9IjAiIHN0eWxlPSJmaWxsOiNBMEExQTI7IiBkPSJNOS43NSwzMy42N3YzLjc2SDEuNXYtMy43Nkg5Ljc1eiBNOS43NSwzMi4xNyAgICAgICBIMS41Yy0wLjgzLDAtMS41LDAuNjgtMS41LDEuNXYzLjc2YzAsMC44MiwwLjY3LDEuNSwxLjUsMS41aDguMjVjMC44MywwLDEuNS0wLjY4LDEuNS0xLjV2LTMuNzYgICAgICAgQzExLjI1LDMyLjg1LDEwLjU4LDMyLjE3LDkuNzUsMzIuMTd6Ii8+JiN4YTsJCQkJPC9nPiYjeGE7CQkJPC9nPiYjeGE7CQkJPGcgaWQ9Imdyb3VwNTk3MS0zNSIgdHJhbnNmb3JtPSJ0cmFuc2xhdGUoOS43NSkiPiYjeGE7CQkJCTx0aXRsZSBpZD0idGl0bGU1ODM3MyI+U2hlZXQuNTk3MTwvdGl0bGU+JiN4YTsJCQkJPGcgaWQ9InNoYXBlNTk3Mi0zNiIgdHJhbnNmb3JtPSJ0cmFuc2xhdGUoMC43NSwtMC43NSkiPiYjeGE7CQkJCQk8dGl0bGUgaWQ9InRpdGxlNTgzNzUiPlNoZWV0LjU5NzI8L3RpdGxlPiYjeGE7CQkJCQk8cGF0aCBpZD0icGF0aDU4Mzc3IiBpbmtzY2FwZTpjb25uZWN0b3ItY3VydmF0dXJlPSIwIiBzdHlsZT0iZmlsbDojQkExNDFBOyIgZD0iTTAuNzUsMzguOTNDMC4zNCwzOC45MywwLDM4LjU5LDAsMzguMTh2LTMuNzYgICAgICAgYzAtMC40MSwwLjM0LTAuNzUsMC43NS0wLjc1SDljMC40MSwwLDAuNzUsMC4zNCwwLjc1LDAuNzV2My43NmMwLDAuNDEtMC4zNCwwLjc1LTAuNzUsMC43NUwwLjc1LDM4LjkzeiIvPiYjeGE7CQkJCTwvZz4mI3hhOwkJCQk8ZyBpZD0ic2hhcGU1OTczLTM4Ij4mI3hhOwkJCQkJPHRpdGxlIGlkPSJ0aXRsZTU4MzgwIj5TaGVldC41OTczPC90aXRsZT4mI3hhOwkJCQkJPHBhdGggaWQ9InBhdGg1ODM4MiIgaW5rc2NhcGU6Y29ubmVjdG9yLWN1cnZhdHVyZT0iMCIgc3R5bGU9ImZpbGw6I0EwQTFBMjsiIGQ9Ik05Ljc1LDMzLjY3djMuNzZIMS41di0zLjc2SDkuNzV6IE05Ljc1LDMyLjE3ICAgICAgIEgxLjVjLTAuODMsMC0xLjUsMC42OC0xLjUsMS41djMuNzZjMCwwLjgyLDAuNjcsMS41LDEuNSwxLjVoOC4yNWMwLjgzLDAsMS41LTAuNjgsMS41LTEuNXYtMy43NiAgICAgICBDMTEuMjUsMzIuODUsMTAuNTgsMzIuMTcsOS43NSwzMi4xN3oiLz4mI3hhOwkJCQk8L2c+JiN4YTsJCQk8L2c+JiN4YTsJCQk8ZyBpZD0iZ3JvdXA1OTc0LTQwIiB0cmFuc2Zvcm09InRyYW5zbGF0ZSgxOS41LC01LjI1KSI+JiN4YTsJCQkJPHRpdGxlIGlkPSJ0aXRsZTU4Mzg2Ij5TaGVldC41OTc0PC90aXRsZT4mI3hhOwkJCQk8ZyBpZD0ic2hhcGU1OTc1LTQxIiB0cmFuc2Zvcm09InRyYW5zbGF0ZSgwLjc1LC0wLjc1KSI+JiN4YTsJCQkJCTx0aXRsZSBpZD0idGl0bGU1ODM4OCI+U2hlZXQuNTk3NTwvdGl0bGU+JiN4YTsJCQkJCTxwYXRoIGlkPSJwYXRoNTgzOTAiIGlua3NjYXBlOmNvbm5lY3Rvci1jdXJ2YXR1cmU9IjAiIHN0eWxlPSJmaWxsOiNCQTE0MUE7IiBkPSJNMC43NSwzOC45M0MwLjM0LDM4LjkzLDAsMzguNTksMCwzOC4xOHYtMy43NiAgICAgICBjMC0wLjQxLDAuMzQtMC43NSwwLjc1LTAuNzVIOWMwLjQxLDAsMC43NSwwLjM0LDAuNzUsMC43NXYzLjc2YzAsMC40MS0wLjM0LDAuNzUtMC43NSwwLjc1TDAuNzUsMzguOTN6Ii8+JiN4YTsJCQkJPC9nPiYjeGE7CQkJCTxnIGlkPSJzaGFwZTU5NzYtNDMiPiYjeGE7CQkJCQk8dGl0bGUgaWQ9InRpdGxlNTgzOTMiPlNoZWV0LjU5NzY8L3RpdGxlPiYjeGE7CQkJCQk8cGF0aCBpZD0icGF0aDU4Mzk1IiBpbmtzY2FwZTpjb25uZWN0b3ItY3VydmF0dXJlPSIwIiBzdHlsZT0iZmlsbDojQTBBMUEyOyIgZD0iTTkuNzUsMzMuNjd2My43NkgxLjV2LTMuNzZIOS43NXogTTkuNzUsMzIuMTcgICAgICAgSDEuNWMtMC44MywwLTEuNSwwLjY4LTEuNSwxLjV2My43NmMwLDAuODIsMC42NywxLjUsMS41LDEuNWg4LjI1YzAuODMsMCwxLjUtMC42OCwxLjUtMS41di0zLjc2ICAgICAgIEMxMS4yNSwzMi44NSwxMC41OCwzMi4xNyw5Ljc1LDMyLjE3eiIvPiYjeGE7CQkJCTwvZz4mI3hhOwkJCTwvZz4mI3hhOwkJCTxnIGlkPSJncm91cDU5NzctNDUiIHRyYW5zZm9ybT0idHJhbnNsYXRlKDE5LjUsLTEwLjUpIj4mI3hhOwkJCQk8dGl0bGUgaWQ9InRpdGxlNTgzOTkiPlNoZWV0LjU5Nzc8L3RpdGxlPiYjeGE7CQkJCTxnIGlkPSJzaGFwZTU5NzgtNDYiIHRyYW5zZm9ybT0idHJhbnNsYXRlKDAuNzUsLTAuNzUpIj4mI3hhOwkJCQkJPHRpdGxlIGlkPSJ0aXRsZTU4NDAxIj5TaGVldC41OTc4PC90aXRsZT4mI3hhOwkJCQkJPHBhdGggaWQ9InBhdGg1ODQwMyIgaW5rc2NhcGU6Y29ubmVjdG9yLWN1cnZhdHVyZT0iMCIgc3R5bGU9ImZpbGw6I0JBMTQxQTsiIGQ9Ik0wLjc1LDM4LjkzQzAuMzQsMzguOTMsMCwzOC41OSwwLDM4LjE4di0zLjc2ICAgICAgIGMwLTAuNDEsMC4zNC0wLjc1LDAuNzUtMC43NUg5YzAuNDEsMCwwLjc1LDAuMzQsMC43NSwwLjc1djMuNzZjMCwwLjQxLTAuMzQsMC43NS0wLjc1LDAuNzVMMC43NSwzOC45M3oiLz4mI3hhOwkJCQk8L2c+JiN4YTsJCQkJPGcgaWQ9InNoYXBlNTk3OS00OCI+JiN4YTsJCQkJCTx0aXRsZSBpZD0idGl0bGU1ODQwNiI+U2hlZXQuNTk3OTwvdGl0bGU+JiN4YTsJCQkJCTxwYXRoIGlkPSJwYXRoNTg0MDgiIGlua3NjYXBlOmNvbm5lY3Rvci1jdXJ2YXR1cmU9IjAiIHN0eWxlPSJmaWxsOiNBMEExQTI7IiBkPSJNOS43NSwzMy42N3YzLjc2SDEuNXYtMy43Nkg5Ljc1eiBNOS43NSwzMi4xNyAgICAgICBIMS41Yy0wLjgzLDAtMS41LDAuNjgtMS41LDEuNXYzLjc2YzAsMC44MiwwLjY3LDEuNSwxLjUsMS41aDguMjVjMC44MywwLDEuNS0wLjY4LDEuNS0xLjV2LTMuNzYgICAgICAgQzExLjI1LDMyLjg1LDEwLjU4LDMyLjE3LDkuNzUsMzIuMTd6Ii8+JiN4YTsJCQkJPC9nPiYjeGE7CQkJPC9nPiYjeGE7CQkJPGcgaWQ9Imdyb3VwNTk4MC01MCIgdHJhbnNmb3JtPSJ0cmFuc2xhdGUoOS43NSwtNS4yNSkiPiYjeGE7CQkJCTx0aXRsZSBpZD0idGl0bGU1ODQxMiI+U2hlZXQuNTk4MDwvdGl0bGU+JiN4YTsJCQkJPGcgaWQ9InNoYXBlNTk4MS01MSIgdHJhbnNmb3JtPSJ0cmFuc2xhdGUoMC43NSwtMC43NSkiPiYjeGE7CQkJCQk8dGl0bGUgaWQ9InRpdGxlNTg0MTQiPlNoZWV0LjU5ODE8L3RpdGxlPiYjeGE7CQkJCQk8cGF0aCBpZD0icGF0aDU4NDE2IiBpbmtzY2FwZTpjb25uZWN0b3ItY3VydmF0dXJlPSIwIiBzdHlsZT0iZmlsbDojQkExNDFBOyIgZD0iTTAuNzUsMzguOTNDMC4zNCwzOC45MywwLDM4LjU5LDAsMzguMTh2LTMuNzYgICAgICAgYzAtMC40MSwwLjM0LTAuNzUsMC43NS0wLjc1SDljMC40MSwwLDAuNzUsMC4zNCwwLjc1LDAuNzV2My43NmMwLDAuNDEtMC4zNCwwLjc1LTAuNzUsMC43NUwwLjc1LDM4LjkzeiIvPiYjeGE7CQkJCTwvZz4mI3hhOwkJCQk8ZyBpZD0ic2hhcGU1OTgyLTUzIj4mI3hhOwkJCQkJPHRpdGxlIGlkPSJ0aXRsZTU4NDE5Ij5TaGVldC41OTgyPC90aXRsZT4mI3hhOwkJCQkJPHBhdGggaWQ9InBhdGg1ODQyMSIgaW5rc2NhcGU6Y29ubmVjdG9yLWN1cnZhdHVyZT0iMCIgc3R5bGU9ImZpbGw6I0EwQTFBMjsiIGQ9Ik05Ljc1LDMzLjY3djMuNzZIMS41di0zLjc2SDkuNzV6IE05Ljc1LDMyLjE3ICAgICAgIEgxLjVjLTAuODMsMC0xLjUsMC42OC0xLjUsMS41djMuNzZjMCwwLjgyLDAuNjcsMS41LDEuNSwxLjVoOC4yNWMwLjgzLDAsMS41LTAuNjgsMS41LTEuNXYtMy43NiAgICAgICBDMTEuMjUsMzIuODUsMTAuNTgsMzIuMTcsOS43NSwzMi4xN3oiLz4mI3hhOwkJCQk8L2c+JiN4YTsJCQk8L2c+JiN4YTsJCQk8ZyBpZD0iZ3JvdXA1OTgzLTU1IiB0cmFuc2Zvcm09InRyYW5zbGF0ZSgxOS41KSI+JiN4YTsJCQkJPHRpdGxlIGlkPSJ0aXRsZTU4NDI1Ij5TaGVldC41OTgzPC90aXRsZT4mI3hhOwkJCQk8ZyBpZD0ic2hhcGU1OTg0LTU2IiB0cmFuc2Zvcm09InRyYW5zbGF0ZSgwLjc1LC0wLjc1KSI+JiN4YTsJCQkJCTx0aXRsZSBpZD0idGl0bGU1ODQyNyI+U2hlZXQuNTk4NDwvdGl0bGU+JiN4YTsJCQkJCTxwYXRoIGlkPSJwYXRoNTg0MjkiIGlua3NjYXBlOmNvbm5lY3Rvci1jdXJ2YXR1cmU9IjAiIHN0eWxlPSJmaWxsOiNERDU5MDA7IiBkPSJNMC43NSwzOC45M0MwLjM0LDM4LjkzLDAsMzguNTksMCwzOC4xOHYtMy43NiAgICAgICBjMC0wLjQxLDAuMzQtMC43NSwwLjc1LTAuNzVIOWMwLjQxLDAsMC43NSwwLjM0LDAuNzUsMC43NXYzLjc2YzAsMC40MS0wLjM0LDAuNzUtMC43NSwwLjc1TDAuNzUsMzguOTN6Ii8+JiN4YTsJCQkJPC9nPiYjeGE7CQkJCTxnIGlkPSJzaGFwZTU5ODUtNTgiPiYjeGE7CQkJCQk8dGl0bGUgaWQ9InRpdGxlNTg0MzIiPlNoZWV0LjU5ODU8L3RpdGxlPiYjeGE7CQkJCQk8cGF0aCBpZD0icGF0aDU4NDM0IiBpbmtzY2FwZTpjb25uZWN0b3ItY3VydmF0dXJlPSIwIiBzdHlsZT0iZmlsbDojQTBBMUEyOyIgZD0iTTkuNzUsMzMuNjd2My43NkgxLjV2LTMuNzZIOS43NXogTTkuNzUsMzIuMTcgICAgICAgSDEuNWMtMC44MywwLTEuNSwwLjY4LTEuNSwxLjV2My43NmMwLDAuODIsMC42NywxLjUsMS41LDEuNWg4LjI1YzAuODMsMCwxLjUtMC42OCwxLjUtMS41di0zLjc2ICAgICAgIEMxMS4yNSwzMi44NSwxMC41OCwzMi4xNyw5Ljc1LDMyLjE3eiIvPiYjeGE7CQkJCTwvZz4mI3hhOwkJCTwvZz4mI3hhOwkJCTxnIGlkPSJncm91cDU5ODYtNjAiPiYjeGE7CQkJCTx0aXRsZSBpZD0idGl0bGU1ODQzOCI+U2hlZXQuNTk4NjwvdGl0bGU+JiN4YTsJCQkJPGcgaWQ9InNoYXBlNTk4Ny02MSIgdHJhbnNmb3JtPSJ0cmFuc2xhdGUoMC43NSwtMC43NSkiPiYjeGE7CQkJCQk8dGl0bGUgaWQ9InRpdGxlNTg0NDAiPlNoZWV0LjU5ODc8L3RpdGxlPiYjeGE7CQkJCQk8cGF0aCBpZD0icGF0aDU4NDQyIiBpbmtzY2FwZTpjb25uZWN0b3ItY3VydmF0dXJlPSIwIiBzdHlsZT0iZmlsbDojQkExNDFBOyIgZD0iTTAuNzUsMzguOTNDMC4zNCwzOC45MywwLDM4LjU5LDAsMzguMTh2LTMuNzYgICAgICAgYzAtMC40MSwwLjM0LTAuNzUsMC43NS0wLjc1SDljMC40MSwwLDAuNzUsMC4zNCwwLjc1LDAuNzV2My43NmMwLDAuNDEtMC4zNCwwLjc1LTAuNzUsMC43NUwwLjc1LDM4LjkzeiIvPiYjeGE7CQkJCTwvZz4mI3hhOwkJCQk8ZyBpZD0ic2hhcGU1OTg4LTYzIj4mI3hhOwkJCQkJPHRpdGxlIGlkPSJ0aXRsZTU4NDQ1Ij5TaGVldC41OTg4PC90aXRsZT4mI3hhOwkJCQkJPHBhdGggaWQ9InBhdGg1ODQ0NyIgaW5rc2NhcGU6Y29ubmVjdG9yLWN1cnZhdHVyZT0iMCIgc3R5bGU9ImZpbGw6I0EwQTFBMjsiIGQ9Ik05Ljc1LDMzLjY3djMuNzZIMS41di0zLjc2SDkuNzV6IE05Ljc1LDMyLjE3ICAgICAgIEgxLjVjLTAuODMsMC0xLjUsMC42OC0xLjUsMS41djMuNzZjMCwwLjgyLDAuNjcsMS41LDEuNSwxLjVoOC4yNWMwLjgzLDAsMS41LTAuNjgsMS41LTEuNXYtMy43NiAgICAgICBDMTEuMjUsMzIuODUsMTAuNTgsMzIuMTcsOS43NSwzMi4xN3oiLz4mI3hhOwkJCQk8L2c+JiN4YTsJCQk8L2c+JiN4YTsJCTwvZz4mI3hhOwk8L2c+JiN4YTs8L2c+JiN4YTs8L3N2Zz4=;" vertex="1" parent="1">
          <mxGeometry x="209.99999999999994" y="420" width="37" height="37" as="geometry" />
        </mxCell>
        <mxCell id="Z0xOerYNmcIT1oId9lS7-2" value="" style="shape=image;verticalLabelPosition=bottom;labelBackgroundColor=#ffffff;verticalAlign=top;aspect=fixed;imageAspect=0;image=data:image/svg+xml,PHN2ZyB4bWxuczpjYz0iaHR0cDovL2NyZWF0aXZlY29tbW9ucy5vcmcvbnMjIiB4bWxuczpkYz0iaHR0cDovL3B1cmwub3JnL2RjL2VsZW1lbnRzLzEuMS8iIHhtbG5zOmlua3NjYXBlPSJodHRwOi8vd3d3Lmlua3NjYXBlLm9yZy9uYW1lc3BhY2VzL2lua3NjYXBlIiB4bWxuczpyZGY9Imh0dHA6Ly93d3cudzMub3JnLzE5OTkvMDIvMjItcmRmLXN5bnRheC1ucyMiIHhtbG5zOnNvZGlwb2RpPSJodHRwOi8vc29kaXBvZGkuc291cmNlZm9yZ2UubmV0L0RURC9zb2RpcG9kaS0wLmR0ZCIgeG1sbnM6c3ZnPSJodHRwOi8vd3d3LnczLm9yZy8yMDAwL3N2ZyIgeG1sbnM9Imh0dHA6Ly93d3cudzMub3JnLzIwMDAvc3ZnIiB4bWxuczp4bGluaz0iaHR0cDovL3d3dy53My5vcmcvMTk5OS94bGluayIgdmVyc2lvbj0iMS4xIiBpZD0ic3ZnNzMyNjUiIGlua3NjYXBlOnZlcnNpb249IjAuOTIuMyAoMjQwNTU0NiwgMjAxOC0wMy0xMSkiIHNvZGlwb2RpOmRvY25hbWU9ImNvbnRhaW5lcnMuc3ZnIiB4PSIwcHgiIHk9IjBweCIgdmlld0JveD0iMCAwIDExNyA5NC4wNyIgc3R5bGU9ImVuYWJsZS1iYWNrZ3JvdW5kOm5ldyAwIDAgMTE3IDk0LjA3OyIgeG1sOnNwYWNlPSJwcmVzZXJ2ZSI+JiN4YTs8c29kaXBvZGk6bmFtZWR2aWV3IGJvcmRlcmNvbG9yPSIjNjY2NjY2IiBib3JkZXJvcGFjaXR5PSIxIiBmaXQtbWFyZ2luLWJvdHRvbT0iMCIgZml0LW1hcmdpbi1sZWZ0PSIwIiBmaXQtbWFyZ2luLXJpZ2h0PSIwIiBmaXQtbWFyZ2luLXRvcD0iMCIgZ3JpZHRvbGVyYW5jZT0iMTAiIGd1aWRldG9sZXJhbmNlPSIxMCIgaWQ9Im5hbWVkdmlldzczMjY3IiBpbmtzY2FwZTpjdXJyZW50LWxheWVyPSJzdmc3MzI2NSIgaW5rc2NhcGU6Y3g9IjkwLjQwMDE0NiIgaW5rc2NhcGU6Y3k9IjU1LjUyNTQ2OCIgaW5rc2NhcGU6cGFnZW9wYWNpdHk9IjAiIGlua3NjYXBlOnBhZ2VzaGFkb3c9IjIiIGlua3NjYXBlOndpbmRvdy1oZWlnaHQ9IjEwMTciIGlua3NjYXBlOndpbmRvdy1tYXhpbWl6ZWQ9IjEiIGlua3NjYXBlOndpbmRvdy13aWR0aD0iMTkyMCIgaW5rc2NhcGU6d2luZG93LXg9Ii04IiBpbmtzY2FwZTp3aW5kb3cteT0iLTgiIGlua3NjYXBlOnpvb209IjQuNDY5ODM4NSIgb2JqZWN0dG9sZXJhbmNlPSIxMCIgcGFnZWNvbG9yPSIjZmZmZmZmIiBzaG93Z3JpZD0iZmFsc2UiPiYjeGE7CTwvc29kaXBvZGk6bmFtZWR2aWV3PiYjeGE7PGcgaWQ9InNoYXBlNTc5Ni0zIiB0cmFuc2Zvcm09InRyYW5zbGF0ZSgyNi42MjQ3MDcsLTEzLjUxNzUpIj4mI3hhOwk8dGl0bGUgaWQ9InRpdGxlNzI5ODgiPnJlY3Q0MDQwPC90aXRsZT4mI3hhOwk8cmVjdCBpZD0icmVjdDcyOTkwIiB4PSIwIiB5PSIzNS4zNyIgc3R5bGU9ImZpbGw6bm9uZTsiIHdpZHRoPSI2OS43NSIgaGVpZ2h0PSI2Ny41Ii8+JiN4YTs8L2c+JiN4YTs8ZyBpZD0iZ3JvdXA1Nzk3LTUiIHRyYW5zZm9ybT0idHJhbnNsYXRlKDM0Ljg3NDcwNywtMjAuODE1KSI+JiN4YTsJPHRpdGxlIGlkPSJ0aXRsZTcyOTkzIj5nNDA1ODwvdGl0bGU+JiN4YTsJPGcgaWQ9InNoYXBlNTc5OC02IiB0cmFuc2Zvcm09InRyYW5zbGF0ZSgxMiwtMTMuODQ1KSI+JiN4YTsJCTx0aXRsZSBpZD0idGl0bGU3Mjk5NSI+cG9seWdvbjQwNDI8L3RpdGxlPiYjeGE7CQk8cGF0aCBpZD0icGF0aDcyOTk3IiBpbmtzY2FwZTpjb25uZWN0b3ItY3VydmF0dXJlPSIwIiBzdHlsZT0iZmlsbDojNTU2QThBOyIgZD0iTTAsOTYuMjFsMTEuMjUsNi42NlY5MC4yNEwwLDgzLjU4Vjk2LjIxeiIvPiYjeGE7CTwvZz4mI3hhOwk8ZyBpZD0ic2hhcGU1Nzk5LTgiIHRyYW5zZm9ybT0idHJhbnNsYXRlKDAsLTIxLjExMjUpIj4mI3hhOwkJPHRpdGxlIGlkPSJ0aXRsZTczMDAwIj5wb2x5Z29uNDA0NDwvdGl0bGU+JiN4YTsJCTxwYXRoIGlkPSJwYXRoNzMwMDIiIGlua3NjYXBlOmNvbm5lY3Rvci1jdXJ2YXR1cmU9IjAiIHN0eWxlPSJmaWxsOiM1NTZBOEE7IiBkPSJNMCw4My4zM3YxMi41OGwxMS4yNSw2Ljk2VjkwLjI0TDAsODMuMzFWODMuMzN6Ii8+JiN4YTsJPC9nPiYjeGE7CTxnIGlkPSJzaGFwZTU4MDAtMTAiIHRyYW5zZm9ybT0idHJhbnNsYXRlKDM2LC0yMS4xMTI1KSI+JiN4YTsJCTx0aXRsZSBpZD0idGl0bGU3MzAwNSI+cG9seWdvbjQwNDY8L3RpdGxlPiYjeGE7CQk8cGF0aCBpZD0icGF0aDczMDA3IiBpbmtzY2FwZTpjb25uZWN0b3ItY3VydmF0dXJlPSIwIiBzdHlsZT0iZmlsbDojOTM5NTk4OyIgZD0iTTExLjI1LDgzLjMzdi0wLjAyTDAsOTAuMjR2MTIuNjNsMTEuMjUtNi45NiAgICBWODMuMzN6Ii8+JiN4YTsJPC9nPiYjeGE7CTxnIGlkPSJzaGFwZTU4MDEtMTIiIHRyYW5zZm9ybT0idHJhbnNsYXRlKDEyKSI+JiN4YTsJCTx0aXRsZSBpZD0idGl0bGU3MzAxMCI+cG9seWdvbjQwNDg8L3RpdGxlPiYjeGE7CQk8cGF0aCBpZD0icGF0aDczMDEyIiBpbmtzY2FwZTpjb25uZWN0b3ItY3VydmF0dXJlPSIwIiBzdHlsZT0iZmlsbDojNTU2QThBOyIgZD0iTTAsODMuNTJ2MTMuMDlsMTEuMjUsNi4yNlY5MC4xOEwwLDgzLjUyeiIvPiYjeGE7CTwvZz4mI3hhOwk8ZyBpZD0ic2hhcGU1ODAyLTE0IiB0cmFuc2Zvcm09InRyYW5zbGF0ZSgzNiwtNi44MjUpIj4mI3hhOwkJPHRpdGxlIGlkPSJ0aXRsZTczMDE1Ij5wb2x5Z29uNDA1MDwvdGl0bGU+JiN4YTsJCTxwYXRoIGlkPSJwYXRoNzMwMTciIGlua3NjYXBlOmNvbm5lY3Rvci1jdXJ2YXR1cmU9IjAiIHN0eWxlPSJmaWxsOiM5Mzk1OTg7IiBkPSJNMTEuMjUsOTYuMzNWODIuNzdMMCw4OS43NHYxMy4xM0wxMS4yNSw5Ni4zM3oiLz4mI3hhOwk8L2c+JiN4YTsJPGcgaWQ9InNoYXBlNTgwMy0xNiIgdHJhbnNmb3JtPSJ0cmFuc2xhdGUoMCwtNi44MjUpIj4mI3hhOwkJPHRpdGxlIGlkPSJ0aXRsZTczMDIwIj5wb2x5Z29uNDA1MjwvdGl0bGU+JiN4YTsJCTxwYXRoIGlkPSJwYXRoNzMwMjIiIGlua3NjYXBlOmNvbm5lY3Rvci1jdXJ2YXR1cmU9IjAiIHN0eWxlPSJmaWxsOiM1NTZBOEE7IiBkPSJNMCw5Ni4zM2wxMS4yNSw2LjU0Vjg5Ljc0TDAsODIuNzdWOTYuMzN6Ii8+JiN4YTsJPC9nPiYjeGE7CTxnIGlkPSJzaGFwZTU4MDQtMTgiIHRyYW5zZm9ybT0idHJhbnNsYXRlKDI0LC0xMy44NDUpIj4mI3hhOwkJPHRpdGxlIGlkPSJ0aXRsZTczMDI1Ij5wb2x5Z29uNDA1NDwvdGl0bGU+JiN4YTsJCTxwYXRoIGlkPSJwYXRoNzMwMjciIGlua3NjYXBlOmNvbm5lY3Rvci1jdXJ2YXR1cmU9IjAiIHN0eWxlPSJmaWxsOiM5Mzk1OTg7IiBkPSJNMTEuMjUsOTYuMjFWODMuNThMMCw5MC4yNHYxMi42M0wxMS4yNSw5Ni4yMXoiLz4mI3hhOwk8L2c+JiN4YTsJPGcgaWQ9InNoYXBlNTgwNS0yMCIgdHJhbnNmb3JtPSJ0cmFuc2xhdGUoMjQpIj4mI3hhOwkJPHRpdGxlIGlkPSJ0aXRsZTczMDMwIj5wb2x5Z29uNDA1NjwvdGl0bGU+JiN4YTsJCTxwYXRoIGlkPSJwYXRoNzMwMzIiIGlua3NjYXBlOmNvbm5lY3Rvci1jdXJ2YXR1cmU9IjAiIHN0eWxlPSJmaWxsOiM5Mzk1OTg7IiBkPSJNMCwxMDIuODdsMTEuMjUtNi4yNlY4My41MkwwLDkwLjE4VjEwMi44N3oiLz4mI3hhOwk8L2c+JiN4YTs8L2c+JiN4YTs8ZyBpZD0ic2hhcGU1ODA3LTIzIiB0cmFuc2Zvcm09InRyYW5zbGF0ZSg0Ny41MTk3MDcsLTc1Ljg4NzUpIj4mI3hhOwk8dGl0bGUgaWQ9InRpdGxlNzMwMzkiPnBvbHlnb240MDYyPC90aXRsZT4mI3hhOwk8cGF0aCBpZD0icGF0aDczMDQxIiBpbmtzY2FwZTpjb25uZWN0b3ItY3VydmF0dXJlPSIwIiBzdHlsZT0iZmlsbDojMkJDN0Y0OyIgZD0iTTEwLjU2LDg5LjY4TDAsOTYuMTJsMTAuOTYsNi43NWwxMC41Ni02LjUgICBMMTAuNTYsODkuNjh6Ii8+JiN4YTs8L2c+JiN4YTs8ZyBpZD0ic2hhcGU1ODA4LTI1IiB0cmFuc2Zvcm09InRyYW5zbGF0ZSg0Ni44NzQ3MDcsLTYyLjQxKSI+JiN4YTsJPHRpdGxlIGlkPSJ0aXRsZTczMDQ0Ij5wb2x5Z29uNDA2NDwvdGl0bGU+JiN4YTsJPHBhdGggaWQ9InBhdGg3MzA0NiIgaW5rc2NhcGU6Y29ubmVjdG9yLWN1cnZhdHVyZT0iMCIgc3R5bGU9ImZpbGw6IzU1NkE4QTsiIGQ9Ik0wLDk2LjIxbDExLjI1LDYuNjZWOTAuMjRMMCw4My41OFY5Ni4yMXoiLz4mI3hhOzwvZz4mI3hhOzxnIGlkPSJzaGFwZTU4MDktMjciIHRyYW5zZm9ybT0idHJhbnNsYXRlKDU5LjAyNDcwNywtODIuOTYpIj4mI3hhOwk8dGl0bGUgaWQ9InRpdGxlNzMwNDkiPnBvbHlnb240MDY2PC90aXRsZT4mI3hhOwk8cGF0aCBpZD0icGF0aDczMDUxIiBpbmtzY2FwZTpjb25uZWN0b3ItY3VydmF0dXJlPSIwIiBzdHlsZT0iZmlsbDojMkJDN0Y0OyIgZD0iTTEwLjk2LDEwMi44N2wxMS4xMS02Ljg0bC0xMS4yMS02LjQ4TDAsOTYuMTggICBMMTAuOTYsMTAyLjg3eiIvPiYjeGE7PC9nPiYjeGE7PGcgaWQ9InNoYXBlNTgxMC0yOSIgdHJhbnNmb3JtPSJ0cmFuc2xhdGUoMzQuODc0NzA3LC02OS42Nzc1KSI+JiN4YTsJPHRpdGxlIGlkPSJ0aXRsZTczMDU0Ij5wb2x5Z29uNDA2ODwvdGl0bGU+JiN4YTsJPHBhdGggaWQ9InBhdGg3MzA1NiIgaW5rc2NhcGU6Y29ubmVjdG9yLWN1cnZhdHVyZT0iMCIgc3R5bGU9ImZpbGw6IzU1NkE4QTsiIGQ9Ik0wLDgzLjMzdjEyLjU4bDExLjI1LDYuOTZWOTAuMjRMMCw4My4zMVY4My4zM3oiLz4mI3hhOzwvZz4mI3hhOzxnIGlkPSJzaGFwZTU4MTEtMzEiIHRyYW5zZm9ybT0idHJhbnNsYXRlKDcwLjg3NDcwNywtNjkuNjc3NSkiPiYjeGE7CTx0aXRsZSBpZD0idGl0bGU3MzA1OSI+cG9seWdvbjQwNzA8L3RpdGxlPiYjeGE7CTxwYXRoIGlkPSJwYXRoNzMwNjEiIGlua3NjYXBlOmNvbm5lY3Rvci1jdXJ2YXR1cmU9IjAiIHN0eWxlPSJmaWxsOiM5Mzk1OTg7IiBkPSJNMTEuMjUsODMuMzN2LTAuMDJMMCw5MC4yNHYxMi42M2wxMS4yNS02Ljk2ICAgVjgzLjMzeiIvPiYjeGE7PC9nPiYjeGE7PGcgaWQ9InNoYXBlNTgxMi0zMyIgdHJhbnNmb3JtPSJ0cmFuc2xhdGUoMzUuODcyMjA3LC04My4yMDc1KSI+JiN4YTsJPHRpdGxlIGlkPSJ0aXRsZTczMDY0Ij5wb2x5Z29uNDA3MjwvdGl0bGU+JiN4YTsJPHBhdGggaWQ9InBhdGg3MzA2NiIgaW5rc2NhcGU6Y29ubmVjdG9yLWN1cnZhdHVyZT0iMCIgc3R5bGU9ImZpbGw6IzJCQzdGNDsiIGQ9Ik0yMS4yNiw5Ni40MmwtMTAuNDctNi4zOEwwLDk2LjI3bDEwLjcxLDYuNiAgIEwyMS4yNiw5Ni40MnoiLz4mI3hhOzwvZz4mI3hhOzxnIGlkPSJzaGFwZTU4MTMtMzUiIHRyYW5zZm9ybT0idHJhbnNsYXRlKDQ2Ljg3NDcwNywtNDguNTY1KSI+JiN4YTsJPHRpdGxlIGlkPSJ0aXRsZTczMDY5Ij5wb2x5Z29uNDA3NDwvdGl0bGU+JiN4YTsJPHBhdGggaWQ9InBhdGg3MzA3MSIgaW5rc2NhcGU6Y29ubmVjdG9yLWN1cnZhdHVyZT0iMCIgc3R5bGU9ImZpbGw6IzU1NkE4QTsiIGQ9Ik0wLDgzLjUydjEzLjA5bDExLjI1LDYuMjZWOTAuMThMMCw4My41MnoiLz4mI3hhOzwvZz4mI3hhOzxnIGlkPSJzaGFwZTU4MTQtMzciIHRyYW5zZm9ybT0idHJhbnNsYXRlKDQ3LjYzOTcwNywtOTAuMjIpIj4mI3hhOwk8dGl0bGUgaWQ9InRpdGxlNzMwNzQiPnBvbHlnb240MDc2PC90aXRsZT4mI3hhOwk8cGF0aCBpZD0icGF0aDczMDc2IiBpbmtzY2FwZTpjb25uZWN0b3ItY3VydmF0dXJlPSIwIiBzdHlsZT0iZmlsbDojMkJDN0Y0OyIgZD0iTTEwLjg0LDkwLjIyTDAsOTYuNDlsMTAuNDQsNi4zOGwxMC44NC02LjYyICAgTDEwLjg0LDkwLjIyeiIvPiYjeGE7PC9nPiYjeGE7PGcgaWQ9InNoYXBlNTgxNS0zOSIgdHJhbnNmb3JtPSJ0cmFuc2xhdGUoNzAuODc0NzA3LC01NS4zOSkiPiYjeGE7CTx0aXRsZSBpZD0idGl0bGU3MzA3OSI+cG9seWdvbjQwNzg8L3RpdGxlPiYjeGE7CTxwYXRoIGlkPSJwYXRoNzMwODEiIGlua3NjYXBlOmNvbm5lY3Rvci1jdXJ2YXR1cmU9IjAiIHN0eWxlPSJmaWxsOiM5Mzk1OTg7IiBkPSJNMTEuMjUsOTYuMzNWODIuNzdMMCw4OS43M3YxMy4xNEwxMS4yNSw5Ni4zM3oiLz4mI3hhOzwvZz4mI3hhOzxnIGlkPSJzaGFwZTU4MTYtNDEiIHRyYW5zZm9ybT0idHJhbnNsYXRlKDM0Ljg3NDcwNywtNTUuMzkpIj4mI3hhOwk8dGl0bGUgaWQ9InRpdGxlNzMwODQiPnBvbHlnb240MDgwPC90aXRsZT4mI3hhOwk8cGF0aCBpZD0icGF0aDczMDg2IiBpbmtzY2FwZTpjb25uZWN0b3ItY3VydmF0dXJlPSIwIiBzdHlsZT0iZmlsbDojNTU2QThBOyIgZD0iTTAsOTYuMzNsMTEuMjUsNi41NFY4OS43M0wwLDgyLjc3Vjk2LjMzeiIvPiYjeGE7PC9nPiYjeGE7PGcgaWQ9InNoYXBlNTgxNy00MyIgdHJhbnNmb3JtPSJ0cmFuc2xhdGUoNTguODc0NzA3LC02Mi40MSkiPiYjeGE7CTx0aXRsZSBpZD0idGl0bGU3MzA4OSI+cG9seWdvbjQwODI8L3RpdGxlPiYjeGE7CTxwYXRoIGlkPSJwYXRoNzMwOTEiIGlua3NjYXBlOmNvbm5lY3Rvci1jdXJ2YXR1cmU9IjAiIHN0eWxlPSJmaWxsOiM5Mzk1OTg7IiBkPSJNMTEuMjUsOTYuMjFWODMuNThMMCw5MC4yNHYxMi42M0wxMS4yNSw5Ni4yMXoiLz4mI3hhOzwvZz4mI3hhOzxnIGlkPSJzaGFwZTU4MTgtNDUiIHRyYW5zZm9ybT0idHJhbnNsYXRlKDU4Ljg3NDcwNywtNDguNTY1KSI+JiN4YTsJPHRpdGxlIGlkPSJ0aXRsZTczMDk0Ij5wb2x5Z29uNDA4NDwvdGl0bGU+JiN4YTsJPHBhdGggaWQ9InBhdGg3MzA5NiIgaW5rc2NhcGU6Y29ubmVjdG9yLWN1cnZhdHVyZT0iMCIgc3R5bGU9ImZpbGw6IzkzOTU5ODsiIGQ9Ik0wLDEwMi44N2wxMS4yNS02LjI2VjgzLjUyTDAsOTAuMThWMTAyLjg3eiIvPiYjeGE7PC9nPiYjeGE7PGcgaWQ9InNoYXBlNTgyMC00OCIgdHJhbnNmb3JtPSJ0cmFuc2xhdGUoLTguMjUwMjkyNSwtMS40OTgzKSI+JiN4YTsJPHRpdGxlIGlkPSJ0aXRsZTczMTAyIj5yZWN0Mzk3MjwvdGl0bGU+JiN4YTsJPHJlY3QgaWQ9InJlY3Q3MzEwNCIgeD0iMCIgeT0iMzUuMzciIHN0eWxlPSJmaWxsOm5vbmU7IiB3aWR0aD0iNjkuNzUiIGhlaWdodD0iNjcuNSIvPiYjeGE7PC9nPiYjeGE7PGcgaWQ9Imdyb3VwNTgyMS01MCIgdHJhbnNmb3JtPSJ0cmFuc2xhdGUoLTIuOTI1MTc1OWUtNCwtOC43OTU4KSI+JiN4YTsJPHRpdGxlIGlkPSJ0aXRsZTczMTA3Ij5nMzk5ODwvdGl0bGU+JiN4YTsJPGcgaWQ9InNoYXBlNTgyMi01MSIgdHJhbnNmb3JtPSJ0cmFuc2xhdGUoMTIuNjQ1LC0yNy4zMjI1KSI+JiN4YTsJCTx0aXRsZSBpZD0idGl0bGU3MzEwOSI+cG9seWdvbjM5NzQ8L3RpdGxlPiYjeGE7CQk8cGF0aCBpZD0icGF0aDczMTExIiBpbmtzY2FwZTpjb25uZWN0b3ItY3VydmF0dXJlPSIwIiBzdHlsZT0iZmlsbDojMkJDN0Y0OyIgZD0iTTEwLjU2LDg5LjY4TDAsOTYuMTJsMTAuOTYsNi43NWwxMC41Ni02LjUgICAgTDEwLjU2LDg5LjY4eiIvPiYjeGE7CTwvZz4mI3hhOwk8ZyBpZD0ic2hhcGU1ODIzLTUzIiB0cmFuc2Zvcm09InRyYW5zbGF0ZSgxMiwtMTMuODQ1KSI+JiN4YTsJCTx0aXRsZSBpZD0idGl0bGU3MzExNCI+cG9seWdvbjM5NzY8L3RpdGxlPiYjeGE7CQk8cGF0aCBpZD0icGF0aDczMTE2IiBpbmtzY2FwZTpjb25uZWN0b3ItY3VydmF0dXJlPSIwIiBzdHlsZT0iZmlsbDojNTU2QThBOyIgZD0iTTAsOTYuMjFsMTEuMjUsNi42NlY5MC4yNEwwLDgzLjU4Vjk2LjIxeiIvPiYjeGE7CTwvZz4mI3hhOwk8ZyBpZD0ic2hhcGU1ODI0LTU1IiB0cmFuc2Zvcm09InRyYW5zbGF0ZSgyNC4xNSwtMzQuMzk1KSI+JiN4YTsJCTx0aXRsZSBpZD0idGl0bGU3MzExOSI+cG9seWdvbjM5Nzg8L3RpdGxlPiYjeGE7CQk8cGF0aCBpZD0icGF0aDczMTIxIiBpbmtzY2FwZTpjb25uZWN0b3ItY3VydmF0dXJlPSIwIiBzdHlsZT0iZmlsbDojMkJDN0Y0OyIgZD0iTTEwLjk2LDEwMi44N2wxMS4xMS02Ljg0bC0xMS4yMS02LjQ4TDAsOTYuMTggICAgTDEwLjk2LDEwMi44N3oiLz4mI3hhOwk8L2c+JiN4YTsJPGcgaWQ9InNoYXBlNTgyNS01NyIgdHJhbnNmb3JtPSJ0cmFuc2xhdGUoMCwtMjEuMTEyNSkiPiYjeGE7CQk8dGl0bGUgaWQ9InRpdGxlNzMxMjQiPnBvbHlnb24zOTgwPC90aXRsZT4mI3hhOwkJPHBhdGggaWQ9InBhdGg3MzEyNiIgaW5rc2NhcGU6Y29ubmVjdG9yLWN1cnZhdHVyZT0iMCIgc3R5bGU9ImZpbGw6IzU1NkE4QTsiIGQ9Ik0wLDgzLjMzdjEyLjU4bDExLjI1LDYuOTZWOTAuMjRMMCw4My4zMVY4My4zM3oiLz4mI3hhOwk8L2c+JiN4YTsJPGcgaWQ9InNoYXBlNTgyNi01OSIgdHJhbnNmb3JtPSJ0cmFuc2xhdGUoMzYsLTIxLjExMjUpIj4mI3hhOwkJPHRpdGxlIGlkPSJ0aXRsZTczMTI5Ij5wb2x5Z29uMzk4MjwvdGl0bGU+JiN4YTsJCTxwYXRoIGlkPSJwYXRoNzMxMzEiIGlua3NjYXBlOmNvbm5lY3Rvci1jdXJ2YXR1cmU9IjAiIHN0eWxlPSJmaWxsOiM5Mzk1OTg7IiBkPSJNMTEuMjUsODMuMzN2LTAuMDJMMCw5MC4yNHYxMi42M2wxMS4yNS02Ljk2ICAgIFY4My4zM3oiLz4mI3hhOwk8L2c+JiN4YTsJPGcgaWQ9InNoYXBlNTgyNy02MSIgdHJhbnNmb3JtPSJ0cmFuc2xhdGUoMC45OTc1LC0zNC42NDI1KSI+JiN4YTsJCTx0aXRsZSBpZD0idGl0bGU3MzEzNCI+cG9seWdvbjM5ODQ8L3RpdGxlPiYjeGE7CQk8cGF0aCBpZD0icGF0aDczMTM2IiBpbmtzY2FwZTpjb25uZWN0b3ItY3VydmF0dXJlPSIwIiBzdHlsZT0iZmlsbDojMkJDN0Y0OyIgZD0iTTIxLjI2LDk2LjQybC0xMC40Ny02LjM4TDAsOTYuMjdsMTAuNzEsNi42ICAgIEwyMS4yNiw5Ni40MnoiLz4mI3hhOwk8L2c+JiN4YTsJPGcgaWQ9InNoYXBlNTgyOC02MyIgdHJhbnNmb3JtPSJ0cmFuc2xhdGUoMTIpIj4mI3hhOwkJPHRpdGxlIGlkPSJ0aXRsZTczMTM5Ij5wb2x5Z29uMzk4NjwvdGl0bGU+JiN4YTsJCTxwYXRoIGlkPSJwYXRoNzMxNDEiIGlua3NjYXBlOmNvbm5lY3Rvci1jdXJ2YXR1cmU9IjAiIHN0eWxlPSJmaWxsOiM1NTZBOEE7IiBkPSJNMCw4My41MnYxMy4wOWwxMS4yNSw2LjI2VjkwLjE4TDAsODMuNTJ6Ii8+JiN4YTsJPC9nPiYjeGE7CTxnIGlkPSJzaGFwZTU4MjktNjUiIHRyYW5zZm9ybT0idHJhbnNsYXRlKDEyLjc2NSwtNDEuNjYyNSkiPiYjeGE7CQk8dGl0bGUgaWQ9InRpdGxlNzMxNDQiPnBvbHlnb24zOTg4PC90aXRsZT4mI3hhOwkJPHBhdGggaWQ9InBhdGg3MzE0NiIgaW5rc2NhcGU6Y29ubmVjdG9yLWN1cnZhdHVyZT0iMCIgc3R5bGU9ImZpbGw6IzJCQzdGNDsiIGQ9Ik0xMC44NCw5MC4yM0wwLDk2LjVsMTAuNDQsNi4zN2wxMC44NC02LjYxICAgIEwxMC44NCw5MC4yM3oiLz4mI3hhOwk8L2c+JiN4YTsJPGcgaWQ9InNoYXBlNTgzMC02NyIgdHJhbnNmb3JtPSJ0cmFuc2xhdGUoMzYsLTYuODI1KSI+JiN4YTsJCTx0aXRsZSBpZD0idGl0bGU3MzE0OSI+cG9seWdvbjM5OTA8L3RpdGxlPiYjeGE7CQk8cGF0aCBpZD0icGF0aDczMTUxIiBpbmtzY2FwZTpjb25uZWN0b3ItY3VydmF0dXJlPSIwIiBzdHlsZT0iZmlsbDojOTM5NTk4OyIgZD0iTTExLjI1LDk2LjMzVjgyLjc3TDAsODkuNzR2MTMuMTNMMTEuMjUsOTYuMzN6Ii8+JiN4YTsJPC9nPiYjeGE7CTxnIGlkPSJzaGFwZTU4MzEtNjkiIHRyYW5zZm9ybT0idHJhbnNsYXRlKDAsLTYuODI1KSI+JiN4YTsJCTx0aXRsZSBpZD0idGl0bGU3MzE1NCI+cG9seWdvbjM5OTI8L3RpdGxlPiYjeGE7CQk8cGF0aCBpZD0icGF0aDczMTU2IiBpbmtzY2FwZTpjb25uZWN0b3ItY3VydmF0dXJlPSIwIiBzdHlsZT0iZmlsbDojNTU2QThBOyIgZD0iTTAsOTYuMzNsMTEuMjUsNi41NFY4OS43NEwwLDgyLjc3Vjk2LjMzeiIvPiYjeGE7CTwvZz4mI3hhOwk8ZyBpZD0ic2hhcGU1ODMyLTcxIiB0cmFuc2Zvcm09InRyYW5zbGF0ZSgyNCwtMTMuODQ1KSI+JiN4YTsJCTx0aXRsZSBpZD0idGl0bGU3MzE1OSI+cG9seWdvbjM5OTQ8L3RpdGxlPiYjeGE7CQk8cGF0aCBpZD0icGF0aDczMTYxIiBpbmtzY2FwZTpjb25uZWN0b3ItY3VydmF0dXJlPSIwIiBzdHlsZT0iZmlsbDojOTM5NTk4OyIgZD0iTTExLjI1LDk2LjIxVjgzLjU4TDAsOTAuMjR2MTIuNjNMMTEuMjUsOTYuMjF6Ii8+JiN4YTsJPC9nPiYjeGE7CTxnIGlkPSJzaGFwZTU4MzMtNzMiIHRyYW5zZm9ybT0idHJhbnNsYXRlKDI0KSI+JiN4YTsJCTx0aXRsZSBpZD0idGl0bGU3MzE2NCI+cG9seWdvbjM5OTY8L3RpdGxlPiYjeGE7CQk8cGF0aCBpZD0icGF0aDczMTY2IiBpbmtzY2FwZTpjb25uZWN0b3ItY3VydmF0dXJlPSIwIiBzdHlsZT0iZmlsbDojOTM5NTk4OyIgZD0iTTAsMTAyLjg3bDExLjI1LTYuMjZWODMuNTJMMCw5MC4xOFYxMDIuODd6Ii8+JiN4YTsJPC9nPiYjeGE7PC9nPiYjeGE7PGcgaWQ9InNoYXBlNTgzNS03NiIgdHJhbnNmb3JtPSJ0cmFuc2xhdGUoNjEuNDk5NzA3LC02LjA5NDI0KSI+JiN4YTsJPHRpdGxlIGlkPSJ0aXRsZTczMTczIj5yZWN0NDAwMjwvdGl0bGU+JiN4YTsJPHJlY3QgaWQ9InJlY3Q3MzE3NSIgeD0iMCIgeT0iMzUuMzciIHN0eWxlPSJmaWxsOm5vbmU7IiB3aWR0aD0iNjkuNzUiIGhlaWdodD0iNjcuNSIvPiYjeGE7PC9nPiYjeGE7PGcgaWQ9Imdyb3VwNTgzNi03OCIgdHJhbnNmb3JtPSJ0cmFuc2xhdGUoNjkuNzQ5NzA3LC0xMy4zOTE3NCkiPiYjeGE7CTx0aXRsZSBpZD0idGl0bGU3MzE3OCI+ZzQwMzY8L3RpdGxlPiYjeGE7CTxnIGlkPSJzaGFwZTU4MzctNzkiIHRyYW5zZm9ybT0idHJhbnNsYXRlKDEyLC0xMy44NDUpIj4mI3hhOwkJPHRpdGxlIGlkPSJ0aXRsZTczMTgwIj5wb2x5Z29uNDAwNDwvdGl0bGU+JiN4YTsJCTxwYXRoIGlkPSJwYXRoNzMxODIiIGlua3NjYXBlOmNvbm5lY3Rvci1jdXJ2YXR1cmU9IjAiIHN0eWxlPSJmaWxsOiM1NTZBOEE7IiBkPSJNMCw5Ni4yMWwxMS4yNSw2LjY2VjkwLjI0TDAsODMuNThWOTYuMjF6Ii8+JiN4YTsJPC9nPiYjeGE7CTxnIGlkPSJzaGFwZTU4MzgtODEiIHRyYW5zZm9ybT0idHJhbnNsYXRlKDAsLTIxLjExMjUpIj4mI3hhOwkJPHRpdGxlIGlkPSJ0aXRsZTczMTg1Ij5wb2x5Z29uNDAwNjwvdGl0bGU+JiN4YTsJCTxwYXRoIGlkPSJwYXRoNzMxODciIGlua3NjYXBlOmNvbm5lY3Rvci1jdXJ2YXR1cmU9IjAiIHN0eWxlPSJmaWxsOiM1NTZBOEE7IiBkPSJNMCw4My4zM3YxMi41OGwxMS4yNSw2Ljk2VjkwLjI0TDAsODMuMzFWODMuMzN6Ii8+JiN4YTsJPC9nPiYjeGE7CTxnIGlkPSJzaGFwZTU4MzktODMiIHRyYW5zZm9ybT0idHJhbnNsYXRlKDM2LC0yMS4xMTI1KSI+JiN4YTsJCTx0aXRsZSBpZD0idGl0bGU3MzE5MCI+cG9seWdvbjQwMDg8L3RpdGxlPiYjeGE7CQk8cGF0aCBpZD0icGF0aDczMTkyIiBpbmtzY2FwZTpjb25uZWN0b3ItY3VydmF0dXJlPSIwIiBzdHlsZT0iZmlsbDojOTM5NTk4OyIgZD0iTTExLjI1LDgzLjMzdi0wLjAyTDAsOTAuMjR2MTIuNjNsMTEuMjUtNi45NiAgICBWODMuMzN6Ii8+JiN4YTsJPC9nPiYjeGE7CTxnIGlkPSJzaGFwZTU4NDAtODUiIHRyYW5zZm9ybT0idHJhbnNsYXRlKDEyKSI+JiN4YTsJCTx0aXRsZSBpZD0idGl0bGU3MzE5NSI+cG9seWdvbjQwMTA8L3RpdGxlPiYjeGE7CQk8cGF0aCBpZD0icGF0aDczMTk3IiBpbmtzY2FwZTpjb25uZWN0b3ItY3VydmF0dXJlPSIwIiBzdHlsZT0iZmlsbDojNTU2QThBOyIgZD0iTTAsODMuNTJ2MTMuMDlsMTEuMjUsNi4yNlY5MC4xOEwwLDgzLjUyeiIvPiYjeGE7CTwvZz4mI3hhOwk8ZyBpZD0ic2hhcGU1ODQxLTg3IiB0cmFuc2Zvcm09InRyYW5zbGF0ZSgzNiwtNi44MjUpIj4mI3hhOwkJPHRpdGxlIGlkPSJ0aXRsZTczMjAwIj5wb2x5Z29uNDAxMjwvdGl0bGU+JiN4YTsJCTxwYXRoIGlkPSJwYXRoNzMyMDIiIGlua3NjYXBlOmNvbm5lY3Rvci1jdXJ2YXR1cmU9IjAiIHN0eWxlPSJmaWxsOiM5Mzk1OTg7IiBkPSJNMTEuMjUsOTYuMzNWODIuNzdMMCw4OS43NHYxMy4xM0wxMS4yNSw5Ni4zM3oiLz4mI3hhOwk8L2c+JiN4YTsJPGcgaWQ9InNoYXBlNTg0Mi04OSIgdHJhbnNmb3JtPSJ0cmFuc2xhdGUoMCwtNi44MjUpIj4mI3hhOwkJPHRpdGxlIGlkPSJ0aXRsZTczMjA1Ij5wb2x5Z29uNDAxNDwvdGl0bGU+JiN4YTsJCTxwYXRoIGlkPSJwYXRoNzMyMDciIGlua3NjYXBlOmNvbm5lY3Rvci1jdXJ2YXR1cmU9IjAiIHN0eWxlPSJmaWxsOiM1NTZBOEE7IiBkPSJNMCw5Ni4zM2wxMS4yNSw2LjU0Vjg5Ljc0TDAsODIuNzdWOTYuMzN6Ii8+JiN4YTsJPC9nPiYjeGE7CTxnIGlkPSJzaGFwZTU4NDMtOTEiIHRyYW5zZm9ybT0idHJhbnNsYXRlKDI0LC0xMy44NDUpIj4mI3hhOwkJPHRpdGxlIGlkPSJ0aXRsZTczMjEwIj5wb2x5Z29uNDAxNjwvdGl0bGU+JiN4YTsJCTxwYXRoIGlkPSJwYXRoNzMyMTIiIGlua3NjYXBlOmNvbm5lY3Rvci1jdXJ2YXR1cmU9IjAiIHN0eWxlPSJmaWxsOiM5Mzk1OTg7IiBkPSJNMTEuMjUsOTYuMjFWODMuNThMMCw5MC4yNHYxMi42M0wxMS4yNSw5Ni4yMXoiLz4mI3hhOwk8L2c+JiN4YTsJPGcgaWQ9InNoYXBlNTg0NC05MyIgdHJhbnNmb3JtPSJ0cmFuc2xhdGUoMTIuNjQ1LC00MS41NzI1KSI+JiN4YTsJCTx0aXRsZSBpZD0idGl0bGU3MzIxNSI+cG9seWdvbjQwMTg8L3RpdGxlPiYjeGE7CQk8cGF0aCBpZD0icGF0aDczMjE3IiBpbmtzY2FwZTpjb25uZWN0b3ItY3VydmF0dXJlPSIwIiBzdHlsZT0iZmlsbDojMkJDN0Y0OyIgZD0iTTEwLjU2LDg5LjY4TDAsOTYuMTJsMTAuOTYsNi43NWwxMC41Ni02LjUgICAgTDEwLjU2LDg5LjY4eiIvPiYjeGE7CTwvZz4mI3hhOwk8ZyBpZD0ic2hhcGU1ODQ1LTk1IiB0cmFuc2Zvcm09InRyYW5zbGF0ZSgxMiwtMjguMDk1KSI+JiN4YTsJCTx0aXRsZSBpZD0idGl0bGU3MzIyMCI+cG9seWdvbjQwMjA8L3RpdGxlPiYjeGE7CQk8cGF0aCBpZD0icGF0aDczMjIyIiBpbmtzY2FwZTpjb25uZWN0b3ItY3VydmF0dXJlPSIwIiBzdHlsZT0iZmlsbDojNTU2QThBOyIgZD0iTTAsOTYuMjFsMTEuMjUsNi42NlY5MC4yNEwwLDgzLjU4Vjk2LjIxeiIvPiYjeGE7CTwvZz4mI3hhOwk8ZyBpZD0ic2hhcGU1ODQ2LTk3IiB0cmFuc2Zvcm09InRyYW5zbGF0ZSgyNC4xNSwtNDguNjQ1KSI+JiN4YTsJCTx0aXRsZSBpZD0idGl0bGU3MzIyNSI+cG9seWdvbjQwMjI8L3RpdGxlPiYjeGE7CQk8cGF0aCBpZD0icGF0aDczMjI3IiBpbmtzY2FwZTpjb25uZWN0b3ItY3VydmF0dXJlPSIwIiBzdHlsZT0iZmlsbDojMkJDN0Y0OyIgZD0iTTEwLjk2LDEwMi44N2wxMS4xMS02Ljg0bC0xMS4yMS02LjQ4TDAsOTYuMTggICAgTDEwLjk2LDEwMi44N3oiLz4mI3hhOwk8L2c+JiN4YTsJPGcgaWQ9InNoYXBlNTg0Ny05OSIgdHJhbnNmb3JtPSJ0cmFuc2xhdGUoMCwtMzUuMzYyNSkiPiYjeGE7CQk8dGl0bGUgaWQ9InRpdGxlNzMyMzAiPnBvbHlnb240MDI0PC90aXRsZT4mI3hhOwkJPHBhdGggaWQ9InBhdGg3MzIzMiIgaW5rc2NhcGU6Y29ubmVjdG9yLWN1cnZhdHVyZT0iMCIgc3R5bGU9ImZpbGw6IzU1NkE4QTsiIGQ9Ik0wLDgzLjMzdjEyLjU4bDExLjI1LDYuOTZWOTAuMjRMMCw4My4zMVY4My4zM3oiLz4mI3hhOwk8L2c+JiN4YTsJPGcgaWQ9InNoYXBlNTg0OC0xMDEiIHRyYW5zZm9ybT0idHJhbnNsYXRlKDM2LC0zNS4zNjI1KSI+JiN4YTsJCTx0aXRsZSBpZD0idGl0bGU3MzIzNSI+cG9seWdvbjQwMjY8L3RpdGxlPiYjeGE7CQk8cGF0aCBpZD0icGF0aDczMjM3IiBpbmtzY2FwZTpjb25uZWN0b3ItY3VydmF0dXJlPSIwIiBzdHlsZT0iZmlsbDojOTM5NTk4OyIgZD0iTTExLjI1LDgzLjMzdi0wLjAyTDAsOTAuMjR2MTIuNjNsMTEuMjUtNi45NiAgICBWODMuMzN6Ii8+JiN4YTsJPC9nPiYjeGE7CTxnIGlkPSJzaGFwZTU4NDktMTAzIiB0cmFuc2Zvcm09InRyYW5zbGF0ZSgwLjk5NzUsLTQ4Ljg5MjUpIj4mI3hhOwkJPHRpdGxlIGlkPSJ0aXRsZTczMjQwIj5wb2x5Z29uNDAyODwvdGl0bGU+JiN4YTsJCTxwYXRoIGlkPSJwYXRoNzMyNDIiIGlua3NjYXBlOmNvbm5lY3Rvci1jdXJ2YXR1cmU9IjAiIHN0eWxlPSJmaWxsOiMyQkM3RjQ7IiBkPSJNMjEuMjYsOTYuNDJsLTEwLjQ3LTYuMzhMMCw5Ni4yN2wxMC43MSw2LjYgICAgTDIxLjI2LDk2LjQyeiIvPiYjeGE7CTwvZz4mI3hhOwk8ZyBpZD0ic2hhcGU1ODUwLTEwNSIgdHJhbnNmb3JtPSJ0cmFuc2xhdGUoMTIuNzY1LC01NS45MDUpIj4mI3hhOwkJPHRpdGxlIGlkPSJ0aXRsZTczMjQ1Ij5wb2x5Z29uNDAzMDwvdGl0bGU+JiN4YTsJCTxwYXRoIGlkPSJwYXRoNzMyNDciIGlua3NjYXBlOmNvbm5lY3Rvci1jdXJ2YXR1cmU9IjAiIHN0eWxlPSJmaWxsOiMyQkM3RjQ7IiBkPSJNMTAuODQsOTAuMjJMMCw5Ni40OWwxMC40NCw2LjM4bDEwLjg0LTYuNjIgICAgTDEwLjg0LDkwLjIyeiIvPiYjeGE7CTwvZz4mI3hhOwk8ZyBpZD0ic2hhcGU1ODUxLTEwNyIgdHJhbnNmb3JtPSJ0cmFuc2xhdGUoMjQsLTI4LjA5NSkiPiYjeGE7CQk8dGl0bGUgaWQ9InRpdGxlNzMyNTAiPnBvbHlnb240MDMyPC90aXRsZT4mI3hhOwkJPHBhdGggaWQ9InBhdGg3MzI1MiIgaW5rc2NhcGU6Y29ubmVjdG9yLWN1cnZhdHVyZT0iMCIgc3R5bGU9ImZpbGw6IzkzOTU5ODsiIGQ9Ik0xMS4yNSw5Ni4yMVY4My41OEwwLDkwLjI0djEyLjYzTDExLjI1LDk2LjIxeiIvPiYjeGE7CTwvZz4mI3hhOwk8ZyBpZD0ic2hhcGU1ODUyLTEwOSIgdHJhbnNmb3JtPSJ0cmFuc2xhdGUoMjQpIj4mI3hhOwkJPHRpdGxlIGlkPSJ0aXRsZTczMjU1Ij5wb2x5Z29uNDAzNDwvdGl0bGU+JiN4YTsJCTxwYXRoIGlkPSJwYXRoNzMyNTciIGlua3NjYXBlOmNvbm5lY3Rvci1jdXJ2YXR1cmU9IjAiIHN0eWxlPSJmaWxsOiM5Mzk1OTg7IiBkPSJNMCwxMDIuODdsMTEuMjUtNi4yNlY4My41MkwwLDkwLjE4VjEwMi44N3oiLz4mI3hhOwk8L2c+JiN4YTs8L2c+JiN4YTs8L3N2Zz4=;" vertex="1" parent="1">
          <mxGeometry x="200" y="590" width="117" height="94" as="geometry" />
        </mxCell>
        <mxCell id="Z0xOerYNmcIT1oId9lS7-3" value="" style="shape=image;verticalLabelPosition=bottom;labelBackgroundColor=#ffffff;verticalAlign=top;aspect=fixed;imageAspect=0;image=data:image/svg+xml,PHN2ZyB4bWxuczpkYz0iaHR0cDovL3B1cmwub3JnL2RjL2VsZW1lbnRzLzEuMS8iIHhtbG5zOmNjPSJodHRwOi8vY3JlYXRpdmVjb21tb25zLm9yZy9ucyMiIHhtbG5zOnJkZj0iaHR0cDovL3d3dy53My5vcmcvMTk5OS8wMi8yMi1yZGYtc3ludGF4LW5zIyIgeG1sbnM6c3ZnPSJodHRwOi8vd3d3LnczLm9yZy8yMDAwL3N2ZyIgeG1sbnM9Imh0dHA6Ly93d3cudzMub3JnLzIwMDAvc3ZnIiB4bWxuczpzb2RpcG9kaT0iaHR0cDovL3NvZGlwb2RpLnNvdXJjZWZvcmdlLm5ldC9EVEQvc29kaXBvZGktMC5kdGQiIHhtbG5zOmlua3NjYXBlPSJodHRwOi8vd3d3Lmlua3NjYXBlLm9yZy9uYW1lc3BhY2VzL2lua3NjYXBlIiB2ZXJzaW9uPSIxLjEiIGlkPSJzdmc3ODgzMiIgaW5rc2NhcGU6dmVyc2lvbj0iMC45Mi4zICgyNDA1NTQ2LCAyMDE4LTAzLTExKSIgc29kaXBvZGk6ZG9jbmFtZT0iZG5zLnN2ZyIgeD0iMHB4IiB5PSIwcHgiIHZpZXdCb3g9IjAgMCA3Mi4wMDQ5OTUgNzEuOTk5OTk4IiB4bWw6c3BhY2U9InByZXNlcnZlIiB3aWR0aD0iNzIuMDA0OTk3IiBoZWlnaHQ9IjcyIj48bWV0YWRhdGEgaWQ9Im1ldGFkYXRhNjUwIj48cmRmOlJERj48Y2M6V29yayByZGY6YWJvdXQ9IiI+PGRjOmZvcm1hdD5pbWFnZS9zdmcreG1sPC9kYzpmb3JtYXQ+PGRjOnR5cGUgcmRmOnJlc291cmNlPSJodHRwOi8vcHVybC5vcmcvZGMvZGNtaXR5cGUvU3RpbGxJbWFnZSIvPjxkYzp0aXRsZS8+PC9jYzpXb3JrPjwvcmRmOlJERj48L21ldGFkYXRhPjxkZWZzIGlkPSJkZWZzNjQ4Ij4mI3hhOwkmI3hhOyYjeGE7CSYjeGE7JiN4YTsJJiN4YTsmI3hhOwkmI3hhOyYjeGE7CSYjeGE7JiN4YTsJJiN4YTsmI3hhOwkJJiN4YTsJJiN4YTsJCSYjeGE7CSYjeGE7CQkmI3hhOwkmI3hhOwkJJiN4YTsJPC9kZWZzPiYjeGE7PGZpbHRlciBpZD0iZmlsdGVyXzIiPiYjeGE7CTxmZUdhdXNzaWFuQmx1ciBpZD0iZmVHYXVzc2lhbkJsdXI3ODc3MyIgc3RkRGV2aWF0aW9uPSIyIi8+JiN4YTs8L2ZpbHRlcj4mI3hhOzxzb2RpcG9kaTpuYW1lZHZpZXcgYm9yZGVyY29sb3I9IiM2NjY2NjYiIGJvcmRlcm9wYWNpdHk9IjEiIGZpdC1tYXJnaW4tYm90dG9tPSIwIiBmaXQtbWFyZ2luLWxlZnQ9IjAiIGZpdC1tYXJnaW4tcmlnaHQ9IjAiIGZpdC1tYXJnaW4tdG9wPSIwIiBncmlkdG9sZXJhbmNlPSIxMCIgZ3VpZGV0b2xlcmFuY2U9IjEwIiBpZD0ibmFtZWR2aWV3Nzg4MzQiIGlua3NjYXBlOmN1cnJlbnQtbGF5ZXI9InN2Zzc4ODMyIiBpbmtzY2FwZTpjeD0iLTkuNTU1NDkxIiBpbmtzY2FwZTpjeT0iNDEuNDU4NDQ4IiBpbmtzY2FwZTpwYWdlb3BhY2l0eT0iMCIgaW5rc2NhcGU6cGFnZXNoYWRvdz0iMiIgaW5rc2NhcGU6d2luZG93LWhlaWdodD0iMTAxNyIgaW5rc2NhcGU6d2luZG93LW1heGltaXplZD0iMSIgaW5rc2NhcGU6d2luZG93LXdpZHRoPSIxOTIwIiBpbmtzY2FwZTp3aW5kb3cteD0iLTgiIGlua3NjYXBlOndpbmRvdy15PSItOCIgaW5rc2NhcGU6em9vbT0iNS43MTIyNDIyIiBvYmplY3R0b2xlcmFuY2U9IjEwIiBwYWdlY29sb3I9IiNmZmZmZmYiIHNob3dncmlkPSJmYWxzZSI+JiN4YTsJPC9zb2RpcG9kaTpuYW1lZHZpZXc+JiN4YTsmI3hhOzxjaXJjbGUgaWQ9ImVsbGlwc2U3ODc4NiIgc3R5bGU9ImZpbGw6IzAwNzJjNiIgY3g9IjM2LjAwNTAwMSIgY3k9IjM2IiByPSIzNiIvPiYjeGE7JiN4YTs8cGF0aCBpZD0icGF0aDc4Nzk0IiBpbmtzY2FwZTpjb25uZWN0b3ItY3VydmF0dXJlPSIwIiBzdHlsZT0iZmlsbDojZmZmZmZmO2ZpbGwtb3BhY2l0eTowLjIiIGQ9Im0gMTAuNTQ1LDYxLjQ2IGMgLTE0LjA2LC0xNC4wNiAtMTQuMDYsLTM2Ljg1IDAsLTUwLjkxIDE0LjA2LC0xNC4wNiAzNi44NiwtMTQuMDYgNTAuOTIsMCB6Ii8+JiN4YTsmI3hhOzxwYXRoIGlkPSJwYXRoNzg4MDIiIGlua3NjYXBlOmNvbm5lY3Rvci1jdXJ2YXR1cmU9IjAiIHN0eWxlPSJmaWxsOiNmZmZmZmY7ZmlsbC1vcGFjaXR5OjAuOCIgZD0ibSA2OS4xMzUsMzUuOTkgYyAwLC03LjQyIC0yLjUyLC0xNC41NyAtNy4xNiwtMjAuNCBsIC0wLjI2LC0wLjI3IGMgLTAuMTQsLTAuMTMgLTAuMTQsLTAuMjYgLTAuMjcsLTAuMzkgbCAtMi4xMiwtMi4yNiBjIC02LjIzLC02LjM2IC0xNC40NCwtOS44IC0yMy4zMiwtOS44IDAsMCAwLDAgLTAuMTMsMCBoIC0wLjEzIEMgMjYuOTk1LDMgMTguOTE1LDYuMzEgMTIuNjg1LDEyLjU0IGwgLTIuMjUsMi4zOSBjIC0wLjEzLDAuMTMgLTAuMTMsMC4yNiAtMC4yNiwwLjM5IGwgLTAuMjcsMC4xNCBjIC00LjUsNS44MyAtNy4wMiwxMy4xMSAtNy4wMiwyMC41MyAwLDcuNDIgMi41MiwxNC41OCA3LjE1LDIwLjQxIGwgMC4yNywwLjI2IGMgMC4xMywwLjEzIDAuMTMsMC4yNyAwLjI2LDAuNCBsIDIuMTIsMi4yNSBjIDYuMjMsNi4yMyAxNC4zMSw5LjY3IDIzLjA2LDkuNjcgaCAwLjEzIGMgMCwwIDAsMCAwLjEzLDAgOC43NSwwIDE3LjA5LC0zLjQ0IDIzLjMyLC05LjY3IGwgMi4xMiwtMi4zOCBjIDAuMTMsLTAuMTQgMC4xMywtMC4yNyAwLjI3LC0wLjQgbCAwLjI2LC0wLjI3IGMgNC42NCwtNS41NiA3LjE2LC0xMi44NSA3LjE2LC0yMC4yNyB6IE0gNTUuNzQ1LDE0LjQgYyAtMC4xMywwIC0wLjI2LDAuMTMgLTAuMzksMC4xMyAtMC4yNywwLjEzIC0wLjUzLDAuMjYgLTAuNjcsMC4yNiAtMC41MywwLjI3IC0xLjE5LDAuNCAtMS44NSwwLjY3IC0wLjEzLDAgLTAuMjcsMC4xMyAtMC40LDAuMTMgLTAuNzksMC4yNiAtMS40NiwwLjQgLTIuMjUsMC42NiAtMC4xMywwIC0wLjQsMC4xMyAtMC41MywwLjEzIC0xLjE5LC0zLjE4IC0yLjY1LC01Ljk2IC00LjM3LC04LjA4IDMuODQsMS4xOSA3LjQyLDMuMzEgMTAuNDYsNi4xIHogbSAtMjAsLTcuNjkgaCAwLjEzIGMgMy41OCwwIDcuMjksMy44NCA5Ljk0LDEwLjQ3IC0zLjA1LDAuNTMgLTYuMzYsMC43OSAtOS44MSwwLjc5IC0zLjQ0LDAgLTYuODksLTAuMjYgLTEwLjA3LC0wLjc5IDIuNTIsLTYuNDkgNi4yMywtMTAuMzQgOS44MSwtMTAuNDcgeiBtIC05LjQxLDEuNzIgYyAtMS41OSwyLjEyIC0zLjA1LDQuNzcgLTQuMjQsNy45NSAtMC4xMywwIC0wLjEzLDAgLTAuMjYsMCAtMC44LC0wLjI2IC0xLjU5LC0wLjM5IC0yLjI2LC0wLjY2IC0wLjEzLDAgLTAuMjYsLTAuMTMgLTAuMzksLTAuMTMgLTAuNTMsLTAuMjcgLTEuMiwtMC41MyAtMS43MywtMC44IC0wLjI2LC0wLjEzIC0wLjM5LC0wLjEzIC0wLjY2LC0wLjI2IC0wLjEzLC0wLjEzIC0wLjI2LC0wLjEzIC0wLjUzLC0wLjI3IDMuMDUsLTIuNTEgNi4zNiwtNC42MyAxMC4wNywtNS44MyB6IG0gLTEwLjA3LDQ5LjE2IGMgMC4xMywwIDAuMjcsLTAuMTMgMC40LC0wLjEzIDAuMjYsLTAuMTQgMC40LC0wLjE0IDAuNjYsLTAuMjcgMC41MywtMC4yNiAxLjE5LC0wLjQgMS44NiwtMC42NiAwLjEzLDAgMC4yNiwtMC4xMyAwLjM5LC0wLjEzIDAuOCwtMC4yNyAxLjQ2LC0wLjQgMi4yNiwtMC42NyAwLjEzLDAgMC4xMywwIDAuMjYsMCAxLjE5LDMuMDUgMi42NSw1LjgzIDQuMjQsNy45NSAtMy43MSwtMS4zMiAtNy4xNSwtMy40NCAtMTAuMDcsLTYuMDkgeiBtIDE5LjYxLDcuNjggaCAtMC4xMyBjIC0zLjU4LC0wLjEzIC03LjI5LC0zLjg0IC05LjgxLC0xMC4zMyAzLjE4LC0wLjUzIDYuNjMsLTAuOCAxMC4wNywtMC44IDMuNDUsMCA2LjYzLDAuMjcgOS44MSwwLjggLTIuNTIsNi40OSAtNi4zNiwxMC4zMyAtOS45NCwxMC4zMyB6IG0gOS40MSwtMS41OSBjIDEuNzIsLTIuMTIgMy4xOCwtNC45IDQuMzcsLTguMDggMC4xMywwIDAuNCwwLjEzIDAuNTMsMC4xMyAwLjc5LDAuMjcgMS41OSwwLjQgMi4yNSwwLjY3IDAuMTMsMCAwLjI3LDAuMTMgMC40LDAuMTMgMC42NiwwLjI2IDEuMTksMC40IDEuODUsMC42NiAwLjI3LDAuMTMgMC40LDAuMTMgMC42NywwLjI3IDAuMTMsMCAwLjI2LDAuMTMgMC41MywwLjI2IC0zLjE4LDIuNjUgLTYuNzYsNC43NyAtMTAuNiw1Ljk2IHogbSAxMy4zOCwtOS4xNCBjIC0wLjQsMCAtMC42NiwtMC4xMyAtMS4wNiwtMC4yNiAtMC40LC0wLjE0IC0wLjkzLC0wLjQgLTEuMzMsLTAuNTMgLTAuMTMsMCAtMC4yNiwtMC4xNCAtMC4zOSwtMC4xNCAtMS41OSwtMC42NiAtMy4zMiwtMS4wNiAtNS4wNCwtMS41OSAwLjQsLTEuNTkgMC44LC0zLjE4IDEuMDYsLTQuNzcgaCAtMy45NyBjIC0wLjI3LDEuNDYgLTAuNTMsMi43OSAtMC45MywzLjk4IC0zLjQ0LC0wLjY2IC03LjE1LC0wLjkzIC0xMSwtMC45MyAtMy45NywwIC03LjY4LDAuNCAtMTEuMjYsMS4wNiAtMC40LC0xLjMyIC0wLjY2LC0yLjY1IC0wLjkzLC00LjExIGggLTMuOTcgYyAwLjI2LDEuNzMgMC42NiwzLjMyIDEuMDYsNC45MSAtMS41OSwwLjM5IC0zLjE4LDAuOTIgLTQuNjQsMS40NSAtMC4xMywwLjE0IC0wLjQsMC4xNCAtMC41MywwLjI3IC0wLjQsMC4xMyAtMC45MywwLjQgLTEuMzIsMC41MyAtMC4yNywwIC0wLjY3LDAuMTMgLTAuOTMsMC4yNiBDIDkuNTA1LDQ5LjkgNy4yNTUsNDMuOTQgNi44NTUsMzcuODUgaCAzLjMyIHYgLTMuODQgaCAtMy4zMiBjIDAuNCwtNi4xIDIuNjUsLTExLjkzIDYuNSwtMTYuNTcgbCAwLjEzLC0wLjEzIGMgMC4yNiwwLjEzIDAuNjYsMC4yNyAwLjkzLDAuNCAwLjUzLDAuMjYgMC45MiwwLjQgMS40NSwwLjY2IDAuMTQsMCAwLjI3LDAuMTMgMC40LDAuMTMgMS40NiwwLjUzIDMuMDUsMS4wNiA0Ljc3LDEuNDYgLTAuNCwxLjQ2IC0wLjY2LDIuOTIgLTAuOTMsNC4zNyBoIDMuOTggYyAwLjI2LC0xLjE5IDAuNTMsLTIuNTEgMC43OSwtMy41NyAzLjU4LDAuNjYgNy40MiwxLjA2IDExLjI3LDEuMDYgMy44NCwwIDcuNTUsLTAuNCAxMC45OSwtMC45MyAwLjI3LDEuMDYgMC41MywyLjI1IDAuOCwzLjU4IGggMy45NyBjIC0wLjI2LC0xLjQ2IC0wLjUzLC0yLjkyIC0wLjkzLC00LjM4IDEuNzMsLTAuMzkgMy4zMiwtMC45MiA0LjkxLC0xLjU5IDAuMTMsMCAwLjM5LC0wLjEzIDAuNTMsLTAuMTMgMC41MywtMC4xMyAwLjkyLC0wLjQgMS40NSwtMC41MyAwLjI3LC0wLjEzIDAuNjcsLTAuMjYgMC45MywtMC40IDMuODQsNC43NyA2LjIzLDEwLjYgNi42MywxNi43IGggLTMuOTggdiAzLjg0IGggMy45OCBjIC0wLjY3LDUuOTYgLTIuOTIsMTEuOTIgLTYuNzYsMTYuNTYgeiIvPiYjeGE7JiN4YTs8cGF0aCBpZD0icGF0aDc4ODEwIiBpbmtzY2FwZTpjb25uZWN0b3ItY3VydmF0dXJlPSIwIiBzdHlsZT0iZmlsbDojZmZmZmZmIiBkPSJtIDI3LjY4NSwzNS44IGMgMCwxLjU3IC0wLjIxLDIuOTEgLTAuNjIsNC4wMiAtMC40MSwxLjEyIC0xLDIuMDMgLTEuNzYsMi43MyAtMC43NywwLjcxIC0xLjcsMS4yMyAtMi44LDEuNTYgLTEuMSwwLjMzIC0yLjQxLDAuNDkgLTMuOTIsMC40OSBoIC00LjA5IGMgLTAuMjksMCAtMC41NCwtMC4wOCAtMC43MywtMC4yNSAtMC4yLC0wLjE4IC0wLjMsLTAuNDYgLTAuMywtMC44NCBWIDI4LjU5IGMgMCwtMC4zOSAwLjEsLTAuNjcgMC4zLC0wLjg0IDAuMiwtMC4xNyAwLjQ0LC0wLjI2IDAuNzMsLTAuMjYgaCA0LjM5IGMgMS41MywwIDIuODIsMC4xOCAzLjg4LDAuNTQgMS4wNywwLjM1IDEuOTYsMC44OCAyLjY5LDEuNTggMC43MywwLjcxIDEuMjgsMS41NyAxLjY2LDIuNiAwLjM4LDEuMDMgMC41NywyLjIzIDAuNTcsMy41OSB6IG0gLTMuNiwwLjEyIGMgMCwtMC44MiAtMC4wOSwtMS41NyAtMC4yOCwtMi4yNyAtMC4xOSwtMC42OSAtMC41LC0xLjMgLTAuOTIsLTEuODEgLTAuNDIsLTAuNTEgLTAuOTUsLTAuOTEgLTEuNjEsLTEuMiAtMC42NiwtMC4yOCAtMS41MiwtMC40MyAtMi41OSwtMC40MyBoIC0xLjc2IHYgMTEuNjQgaCAxLjgyIGMgMC45NSwwIDEuNzUsLTAuMTIgMi40LC0wLjM3IDAuNjYsLTAuMjUgMS4yLC0wLjYyIDEuNjQsLTEuMTEgMC40MywtMC41IDAuNzYsLTEuMTIgMC45OCwtMS44NiAwLjIxLC0wLjc0IDAuMzIsLTEuNjEgMC4zMiwtMi41OSB6Ii8+JiN4YTsmI3hhOzxwYXRoIGlkPSJwYXRoNzg4MTgiIGlua3NjYXBlOmNvbm5lY3Rvci1jdXJ2YXR1cmU9IjAiIHN0eWxlPSJmaWxsOiNmZmZmZmYiIGQ9Im0gNDQuNjU1LDQzLjM5IGMgMCwwLjIgLTAuMDMsMC4zOCAtMC4xLDAuNTQgLTAuMDcsMC4xNiAtMC4xNywwLjI5IC0wLjI5LDAuNCAtMC4xMSwwLjExIC0wLjI2LDAuMTggLTAuNDIsMC4yMyAtMC4xNiwwLjA1IC0wLjMzLDAuMDcgLTAuNSwwLjA3IGggLTEuNDggYyAtMC4zMSwwIC0wLjU3LC0wLjAzIC0wLjgsLTAuMDkgLTAuMjIsLTAuMDYgLTAuNDMsLTAuMTcgLTAuNjIsLTAuMzQgLTAuMTksLTAuMTYgLTAuMzcsLTAuMzggLTAuNTUsLTAuNjYgLTAuMTcsLTAuMjggLTAuMzcsLTAuNjQgLTAuNTksLTEuMDggbCAtNC4yNiwtOCBjIC0wLjI1LC0wLjQ3IC0wLjUsLTAuOTkgLTAuNzUsLTEuNTQgLTAuMjYsLTAuNTUgLTAuNDksLTEuMDkgLTAuNjksLTEuNjEgaCAtMC4wMyBjIDAuMDQsMC42NCAwLjA2LDEuMjcgMC4wOCwxLjkgMC4wMiwwLjYzIDAuMDMsMS4yOCAwLjAzLDEuOTUgdiA4Ljk1IGMgMCwwLjA5IC0wLjAzLDAuMTcgLTAuMDgsMC4yNCAtMC4wNSwwLjA3IC0wLjEzLDAuMTMgLTAuMjUsMC4xOCAtMC4xMiwwLjA1IC0wLjI4LDAuMDkgLTAuNDgsMC4xMSAtMC4yLDAuMDMgLTAuNDcsMC4wNCAtMC43OCwwLjA0IC0wLjMxLDAgLTAuNTcsLTAuMDEgLTAuNzcsLTAuMDQgLTAuMiwtMC4wMiAtMC4zNiwtMC4wNiAtMC40NywtMC4xMSAtMC4xMiwtMC4wNSAtMC4yLC0wLjExIC0wLjI0LC0wLjE4IC0wLjA1LC0wLjA3IC0wLjA3LC0wLjE1IC0wLjA3LC0wLjI0IFYgMjguNzMgYyAwLC0wLjQxIDAuMTIsLTAuNzIgMC4zNiwtMC45MyAwLjI0LC0wLjIxIDAuNTQsLTAuMzEgMC45LC0wLjMxIGggMS44NiBjIDAuMzMsMCAwLjYyLDAuMDMgMC44NSwwLjA4IDAuMjMsMC4wNiAwLjQzLDAuMTYgMC42MSwwLjI5IDAuMTgsMC4xMyAwLjM1LDAuMzIgMC41MSwwLjU1IDAuMTYsMC4yMyAwLjMyLDAuNTIgMC40OSwwLjg3IGwgMy4zMyw2LjI1IGMgMC4xOSwwLjM4IDAuMzksMC43NSAwLjU4LDEuMTIgMC4xOSwwLjM2IDAuMzcsMC43MyAwLjU1LDEuMSAwLjE3LDAuMzYgMC4zNCwwLjcyIDAuNTEsMS4wOCAwLjE3LDAuMzUgMC4zMywwLjcgMC40OSwxLjA1IGggMC4wMSBjIC0wLjAyLC0wLjYxIC0wLjA0LC0xLjI2IC0wLjA2LC0xLjkzIC0wLjAxLC0wLjY3IC0wLjAxLC0xLjMxIC0wLjAxLC0xLjkxIHYgLTguMDMgYyAwLC0wLjA5IDAuMDIsLTAuMTcgMC4wNywtMC4yNCAwLjA1LC0wLjA3IDAuMTQsLTAuMTMgMC4yNywtMC4xOSAwLjEyLC0wLjA1IDAuMjgsLTAuMDkgMC40OSwtMC4xMSAwLjIsLTAuMDIgMC40NiwtMC4wMyAwLjc4LC0wLjAzIDAuMywwIDAuNTUsMC4wMSAwLjc1LDAuMDMgMC4yLDAuMDIgMC4zNiwwLjA2IDAuNDcsMC4xMSAwLjExLDAuMDYgMC4xOSwwLjEyIDAuMjMsMC4xOSAwLjA1LDAuMDcgMC4wNywwLjE1IDAuMDcsMC4yNCB6Ii8+JiN4YTsmI3hhOzxwYXRoIGlkPSJwYXRoNzg4MjYiIGlua3NjYXBlOmNvbm5lY3Rvci1jdXJ2YXR1cmU9IjAiIHN0eWxlPSJmaWxsOiNmZmZmZmYiIGQ9Im0gNTguNTM1LDM5LjQ3IGMgMCwwLjkgLTAuMTcsMS42OSAtMC41LDIuMzcgLTAuMzQsMC42OCAtMC43OSwxLjI0IC0xLjM3LDEuNyAtMC41NywwLjQ1IC0xLjI0LDAuNzkgLTIuMDEsMS4wMiAtMC43NiwwLjIzIC0xLjU5LDAuMzQgLTIuNDYsMC4zNCAtMC41OSwwIC0xLjE0LC0wLjA1IC0xLjY0LC0wLjE0IC0wLjUxLC0wLjEgLTAuOTYsLTAuMjIgLTEuMzUsLTAuMzUgLTAuMzksLTAuMTQgLTAuNzEsLTAuMjggLTAuOTcsLTAuNDMgLTAuMjYsLTAuMTUgLTAuNDUsLTAuMjggLTAuNTYsLTAuNCAtMC4xMiwtMC4xMSAtMC4yLC0wLjI4IC0wLjI1LC0wLjUgLTAuMDQsLTAuMjEgLTAuMDcsLTAuNTIgLTAuMDcsLTAuOTMgMCwtMC4yNyAwLjAxLC0wLjUgMC4wMywtMC42OSAwLjAxLC0wLjE4IDAuMDQsLTAuMzMgMC4wOCwtMC40NSAwLjA0LC0wLjExIDAuMSwtMC4xOSAwLjE2LC0wLjI0IDAuMDcsLTAuMDUgMC4xNCwtMC4wNyAwLjIzLC0wLjA3IDAuMTMsMCAwLjMsMC4wNyAwLjUzLDAuMjEgMC4yMiwwLjE1IDAuNTEsMC4zMSAwLjg2LDAuNDkgMC4zNiwwLjE3IDAuNzgsMC4zMyAxLjI3LDAuNDggMC40OCwwLjE0IDEuMDUsMC4yMiAxLjY5LDAuMjIgMC40MywwIDAuODEsLTAuMDUgMS4xNCwtMC4xNSAwLjM0LC0wLjExIDAuNjIsLTAuMjUgMC44NSwtMC40NCAwLjI0LC0wLjE4IDAuNDEsLTAuNDEgMC41NCwtMC42OCAwLjEyLC0wLjI4IDAuMTksLTAuNTggMC4xOSwtMC45MiAwLC0wLjM4IC0wLjExLC0wLjcyIC0wLjMyLC0wLjk5IC0wLjIxLC0wLjI4IC0wLjQ5LC0wLjUzIC0wLjgzLC0wLjc0IC0wLjM0LC0wLjIyIC0wLjczLC0wLjQyIC0xLjE2LC0wLjYxIC0wLjQzLC0wLjE5IC0wLjg4LC0wLjM5IC0xLjMzLC0wLjYxIC0wLjQ2LC0wLjIxIC0wLjkxLC0wLjQ1IC0xLjM0LC0wLjcyIC0wLjQzLC0wLjI3IC0wLjgyLC0wLjU5IC0xLjE1LC0wLjk2IC0wLjM0LC0wLjM4IC0wLjYyLC0wLjgyIC0wLjgzLC0xLjMzIC0wLjIyLC0wLjUxIC0wLjMyLC0xLjEzIC0wLjMyLC0xLjg0IDAsLTAuODIgMC4xNSwtMS41NCAwLjQ2LC0yLjE3IDAuMywtMC42MiAwLjcxLC0xLjEzIDEuMjMsLTEuNTQgMC41MSwtMC40MSAxLjEyLC0wLjcyIDEuODIsLTAuOTIgMC43LC0wLjIgMS40NSwtMC4zMSAyLjIzLC0wLjMxIDAuNDEsMCAwLjgxLDAuMDMgMS4yMiwwLjEgMC40LDAuMDYgMC43OCwwLjE0IDEuMTMsMC4yNSAwLjM1LDAuMSAwLjY3LDAuMjIgMC45NCwwLjM2IDAuMjgsMC4xMyAwLjQ2LDAuMjQgMC41NCwwLjMzIDAuMDksMC4wOCAwLjE1LDAuMTYgMC4xOCwwLjIyIDAuMDMsMC4wNiAwLjA2LDAuMTUgMC4wOCwwLjI1IDAuMDIsMC4xIDAuMDQsMC4yMyAwLjA1LDAuMzggMCwwLjE1IDAuMDEsMC4zNSAwLjAxLDAuNTggMCwwLjI1IC0wLjAxLDAuNDcgLTAuMDIsMC42NCAtMC4wMSwwLjE4IC0wLjA0LDAuMzMgLTAuMDcsMC40NCAtMC4wMywwLjExIC0wLjA3LDAuMiAtMC4xMywwLjI1IC0wLjA2LDAuMDYgLTAuMTMsMC4wOCAtMC4yMywwLjA4IC0wLjEsMCAtMC4yNSwtMC4wNiAtMC40NiwtMC4xOCAtMC4yMiwtMC4xMyAtMC40OCwtMC4yNiAtMC43OCwtMC40MSAtMC4zMSwtMC4xNCAtMC42NywtMC4yNyAtMS4wNywtMC4zOSAtMC40MSwtMC4xMiAtMC44NiwtMC4xOCAtMS4zNCwtMC4xOCAtMC4zOCwwIC0wLjcxLDAuMDQgLTAuOTksMC4xNCAtMC4yOCwwLjA5IC0wLjUyLDAuMjIgLTAuNzEsMC4zOCAtMC4xOSwwLjE2IC0wLjMzLDAuMzYgLTAuNDIsMC41OSAtMC4wOSwwLjIzIC0wLjE0LDAuNDcgLTAuMTQsMC43MyAwLDAuMzcgMC4xLDAuNyAwLjMxLDAuOTggMC4yMSwwLjI4IDAuNDksMC41MyAwLjgzLDAuNzQgMC4zNSwwLjIyIDAuNzUsMC40MiAxLjE5LDAuNjEgMC40NCwwLjE5IDAuODksMC4zOSAxLjM1LDAuNiAwLjQ2LDAuMjIgMC45MSwwLjQ2IDEuMzUsMC43MiAwLjQ0LDAuMjcgMC44MywwLjU5IDEuMTgsMC45NyAwLjM0LDAuMzcgMC42MiwwLjgyIDAuODMsMS4zMiAwLjIxLDAuNTIgMC4zMiwxLjExIDAuMzIsMS44IHoiLz4mI3hhOzwvc3ZnPg==;" vertex="1" parent="1">
          <mxGeometry x="480.0000000000001" y="450" width="72" height="72" as="geometry" />
        </mxCell>
        <mxCell id="Z0xOerYNmcIT1oId9lS7-4" value="" style="shape=image;verticalLabelPosition=bottom;labelBackgroundColor=#ffffff;verticalAlign=top;aspect=fixed;imageAspect=0;image=data:image/svg+xml,PHN2ZyB4bWxuczpkYz0iaHR0cDovL3B1cmwub3JnL2RjL2VsZW1lbnRzLzEuMS8iIHhtbG5zOmNjPSJodHRwOi8vY3JlYXRpdmVjb21tb25zLm9yZy9ucyMiIHhtbG5zOnJkZj0iaHR0cDovL3d3dy53My5vcmcvMTk5OS8wMi8yMi1yZGYtc3ludGF4LW5zIyIgeG1sbnM6c3ZnPSJodHRwOi8vd3d3LnczLm9yZy8yMDAwL3N2ZyIgeG1sbnM9Imh0dHA6Ly93d3cudzMub3JnLzIwMDAvc3ZnIiB4bWxuczpzb2RpcG9kaT0iaHR0cDovL3NvZGlwb2RpLnNvdXJjZWZvcmdlLm5ldC9EVEQvc29kaXBvZGktMC5kdGQiIHhtbG5zOmlua3NjYXBlPSJodHRwOi8vd3d3Lmlua3NjYXBlLm9yZy9uYW1lc3BhY2VzL2lua3NjYXBlIiB2ZXJzaW9uPSIxLjEiIGlkPSJzdmc4NjU5MCIgaW5rc2NhcGU6dmVyc2lvbj0iMC45Mi4zICgyNDA1NTQ2LCAyMDE4LTAzLTExKSIgc29kaXBvZGk6ZG9jbmFtZT0ibXlzcWwuc3ZnIiB4PSIwcHgiIHk9IjBweCIgdmlld0JveD0iMCAwIDI4LjUxIDM3LjUiIHhtbDpzcGFjZT0icHJlc2VydmUiIHdpZHRoPSIyOC41MSIgaGVpZ2h0PSIzNy41Ij48bWV0YWRhdGEgaWQ9Im1ldGFkYXRhNTY4MSI+PHJkZjpSREY+PGNjOldvcmsgcmRmOmFib3V0PSIiPjxkYzpmb3JtYXQ+aW1hZ2Uvc3ZnK3htbDwvZGM6Zm9ybWF0PjxkYzp0eXBlIHJkZjpyZXNvdXJjZT0iaHR0cDovL3B1cmwub3JnL2RjL2RjbWl0eXBlL1N0aWxsSW1hZ2UiLz48ZGM6dGl0bGUvPjwvY2M6V29yaz48L3JkZjpSREY+PC9tZXRhZGF0YT48ZGVmcyBpZD0iZGVmczU2NzkiPiYjeGE7CSYjeGE7JiN4YTsJJiN4YTsmI3hhOwkmI3hhOyYjeGE7CSYjeGE7JiN4YTsJJiN4YTsmI3hhOwkmI3hhOyYjeGE7CSYjeGE7JiN4YTsJJiN4YTs8L2RlZnM+JiN4YTs8ZmlsdGVyIGlkPSJmaWx0ZXJfMiI+JiN4YTsJPGZlR2F1c3NpYW5CbHVyIGlkPSJmZUdhdXNzaWFuQmx1cjg2NTE1IiBzdGREZXZpYXRpb249IjIiLz4mI3hhOzwvZmlsdGVyPiYjeGE7PHNvZGlwb2RpOm5hbWVkdmlldyBib3JkZXJjb2xvcj0iIzY2NjY2NiIgYm9yZGVyb3BhY2l0eT0iMSIgZml0LW1hcmdpbi1ib3R0b209IjAiIGZpdC1tYXJnaW4tbGVmdD0iMCIgZml0LW1hcmdpbi1yaWdodD0iMCIgZml0LW1hcmdpbi10b3A9IjAiIGdyaWR0b2xlcmFuY2U9IjEwIiBndWlkZXRvbGVyYW5jZT0iMTAiIGlkPSJuYW1lZHZpZXc4NjU5MiIgaW5rc2NhcGU6Y3VycmVudC1sYXllcj0ic3ZnODY1OTAiIGlua3NjYXBlOmN4PSItMjguMDU4Mzc2IiBpbmtzY2FwZTpjeT0iMjQuNzM0MjY3IiBpbmtzY2FwZTpwYWdlb3BhY2l0eT0iMCIgaW5rc2NhcGU6cGFnZXNoYWRvdz0iMiIgaW5rc2NhcGU6d2luZG93LWhlaWdodD0iMTAxNyIgaW5rc2NhcGU6d2luZG93LW1heGltaXplZD0iMSIgaW5rc2NhcGU6d2luZG93LXdpZHRoPSIxOTIwIiBpbmtzY2FwZTp3aW5kb3cteD0iLTgiIGlua3NjYXBlOndpbmRvdy15PSItOCIgaW5rc2NhcGU6em9vbT0iMTAuNTcwMDIyIiBvYmplY3R0b2xlcmFuY2U9IjEwIiBwYWdlY29sb3I9IiNmZmZmZmYiIHNob3dncmlkPSJmYWxzZSI+JiN4YTsJPC9zb2RpcG9kaTpuYW1lZHZpZXc+JiN4YTsmI3hhOzxwYXRoIGlkPSJwYXRoODY1MjgiIGlua3NjYXBlOmNvbm5lY3Rvci1jdXJ2YXR1cmU9IjAiIHN0eWxlPSJmaWxsOiMwMDcyYzYiIGQ9Im0gMCw1LjEyIHYgMjcuMjYgYyAwLDIuODMgNi4zOCw1LjEyIDE0LjI1LDUuMTIgViA1LjEyIFoiLz4mI3hhOyYjeGE7PHBhdGggaWQ9InBhdGg4NjUzNiIgaW5rc2NhcGU6Y29ubmVjdG9yLWN1cnZhdHVyZT0iMCIgc3R5bGU9ImZpbGw6IzAwNzJjNiIgZD0ibSAxNC4wNiwzNy41IGggMC4xOSBjIDcuODcsMCAxNC4yNiwtMi4yOSAxNC4yNiwtNS4xMiBWIDUuMTIgSCAxNC4wNiBaIi8+JiN4YTsmI3hhOzxwYXRoIGlkPSJwYXRoODY1NDQiIGlua3NjYXBlOmNvbm5lY3Rvci1jdXJ2YXR1cmU9IjAiIHN0eWxlPSJmaWxsOiNmZmZmZmY7ZmlsbC1vcGFjaXR5OjAuMTUiIGQ9Im0gMTQuMDYsMzcuNSBoIDAuMTkgYyA3Ljg3LDAgMTQuMjYsLTIuMjkgMTQuMjYsLTUuMTIgViA1LjEyIEggMTQuMDYgWiIvPiYjeGE7JiN4YTs8cGF0aCBpZD0icGF0aDg2NTUyIiBpbmtzY2FwZTpjb25uZWN0b3ItY3VydmF0dXJlPSIwIiBzdHlsZT0iZmlsbDojZmZmZmZmIiBkPSJtIDI4LjUsNS4xMyBjIDAsMi44MyAtNi4zOCw1LjEyIC0xNC4yNSw1LjEyIEMgNi4zOCwxMC4yNSAwLDcuOTYgMCw1LjEzIDAsMi4zIDYuMzgsMCAxNC4yNSwwIDIyLjEyLDAgMjguNSwyLjMgMjguNSw1LjEzIFoiLz4mI3hhOyYjeGE7PHBhdGggaWQ9InBhdGg4NjU2MCIgaW5rc2NhcGU6Y29ubmVjdG9yLWN1cnZhdHVyZT0iMCIgc3R5bGU9ImZpbGw6I2RkNTkwMCIgZD0iTSAyNS41OCw0LjgzIEMgMjUuNTgsNi43IDIwLjUxLDguMjEgMTQuMjUsOC4yMSA3Ljk5LDguMjEgMi45MSw2LjcgMi45MSw0LjgzIGMgMCwtMS44NyA1LjA4LC0zLjM4IDExLjM0LC0zLjM4IDYuMjYsMCAxMS4zMywxLjUxIDExLjMzLDMuMzggeiIvPiYjeGE7JiN4YTs8cGF0aCBpZD0icGF0aDg2NTY4IiBpbmtzY2FwZTpjb25uZWN0b3ItY3VydmF0dXJlPSIwIiBzdHlsZT0iZmlsbDojZmY4YzAwIiBkPSJNIDIzLjIxLDYuOSBDIDI0LjY5LDYuMzMgMjUuNTgsNS42MSAyNS41OCw0Ljg0IDI1LjU4LDIuOTcgMjAuNTEsMS40NiAxNC4yNSwxLjQ2IDcuOTksMS40NiAyLjkxLDIuOTcgMi45MSw0Ljg0IDIuOTEsNS42MSAzLjgsNi4zMyA1LjI5LDYuOSA3LjM2LDYuMSAxMC42LDUuNTkgMTQuMjUsNS41OSBjIDMuNjUsMCA2Ljg4LDAuNTEgOC45NiwxLjMxIHoiLz4mI3hhOyYjeGE7PHBhdGggaWQ9InBhdGg4NjU3NiIgaW5rc2NhcGU6Y29ubmVjdG9yLWN1cnZhdHVyZT0iMCIgc3R5bGU9ImZpbGw6I2ZmZmZmZiIgZD0ibSAyLjk2LDI1LjE5IGggMS44IHYgLTcuMTIgbCAyLjc5LDYuMiBjIDAuMzMsMC43NSAwLjc4LDEuMDIgMS42NywxLjAyIDAuODgsMCAxLjMxLC0wLjI3IDEuNjQsLTEuMDIgbCAyLjc5LC02LjIgdiA3LjEyIGggMS44MSB2IC03LjExIGMgMCwtMC42OSAtMC4yOCwtMS4wMyAtMC44NSwtMS4yIC0xLjM3LC0wLjQzIC0yLjI5LC0wLjA2IC0yLjcxLDAuODcgTCA5LjE2LDIzLjg3IDYuNTEsMTcuNzUgYyAtMC40LC0wLjkzIC0xLjMzLC0xLjMgLTIuNywtMC44NyAtMC41NywwLjE3IC0wLjg1LDAuNTEgLTAuODUsMS4yIHoiLz4mI3hhOyYjeGE7PHBhdGggaWQ9InBhdGg4NjU4NCIgaW5rc2NhcGU6Y29ubmVjdG9yLWN1cnZhdHVyZT0iMCIgc3R5bGU9ImZpbGw6I2ZmZmZmZiIgZD0ibSAxNi45NSwxOS40IGggMS44IHYgMy45MiBjIC0wLjAyLDAuMjEgMC4wNywwLjcxIDEuMDYsMC43MyAwLjUsMC4wMSAzLjg4LDAgMy45MiwwIHYgLTQuNjcgaCAxLjggYyAwLjAxLDAgMCw2LjM3IDAsNi4zOSAwLjAxLDEuNTcgLTEuOTUsMS45MSAtMi44NSwxLjk0IEggMTYuOTkgViAyNi41IGMgMC4wMSwwIDUuNjksMCA1LjcsMCAxLjE2LC0wLjEyIDEuMDIsLTAuNyAxLjAyLC0wLjkgdiAtMC40NyBoIC0zLjgzIGMgLTEuNzgsLTAuMDEgLTIuOTIsLTAuNzkgLTIuOTMsLTEuNjkgMCwtMC4wOCAwLjA0LC00IDAsLTQuMDQgeiIvPiYjeGE7PC9zdmc+;" vertex="1" parent="1">
          <mxGeometry x="370" y="350" width="29" height="38" as="geometry" />
        </mxCell>
        <mxCell id="Z0xOerYNmcIT1oId9lS7-5" value="" style="shape=image;verticalLabelPosition=bottom;labelBackgroundColor=#ffffff;verticalAlign=top;aspect=fixed;imageAspect=0;image=data:image/svg+xml,PHN2ZyB4bWxuczpjYz0iaHR0cDovL2NyZWF0aXZlY29tbW9ucy5vcmcvbnMjIiB4bWxuczpkYz0iaHR0cDovL3B1cmwub3JnL2RjL2VsZW1lbnRzLzEuMS8iIHhtbG5zOmlua3NjYXBlPSJodHRwOi8vd3d3Lmlua3NjYXBlLm9yZy9uYW1lc3BhY2VzL2lua3NjYXBlIiB4bWxuczpyZGY9Imh0dHA6Ly93d3cudzMub3JnLzE5OTkvMDIvMjItcmRmLXN5bnRheC1ucyMiIHhtbG5zOnNvZGlwb2RpPSJodHRwOi8vc29kaXBvZGkuc291cmNlZm9yZ2UubmV0L0RURC9zb2RpcG9kaS0wLmR0ZCIgeG1sbnM6c3ZnPSJodHRwOi8vd3d3LnczLm9yZy8yMDAwL3N2ZyIgeG1sbnM9Imh0dHA6Ly93d3cudzMub3JnLzIwMDAvc3ZnIiB4bWxuczp4bGluaz0iaHR0cDovL3d3dy53My5vcmcvMTk5OS94bGluayIgdmVyc2lvbj0iMS4xIiBpZD0ic3ZnNDAwNzUiIGlua3NjYXBlOnZlcnNpb249IjAuOTIuMyAoMjQwNTU0NiwgMjAxOC0wMy0xMSkiIHNvZGlwb2RpOmRvY25hbWU9ImhlYWx0aGNhcmVfYnVpbGRpbmdzLnN2ZyIgeD0iMHB4IiB5PSIwcHgiIHZpZXdCb3g9IjAgMCA5MS4zOSA2MS4yOSIgc3R5bGU9ImVuYWJsZS1iYWNrZ3JvdW5kOm5ldyAwIDAgOTEuMzkgNjEuMjk7IiB4bWw6c3BhY2U9InByZXNlcnZlIj4mI3hhOzxzb2RpcG9kaTpuYW1lZHZpZXcgYm9yZGVyY29sb3I9IiM2NjY2NjYiIGJvcmRlcm9wYWNpdHk9IjEiIGZpdC1tYXJnaW4tYm90dG9tPSIwIiBmaXQtbWFyZ2luLWxlZnQ9IjAiIGZpdC1tYXJnaW4tcmlnaHQ9IjAiIGZpdC1tYXJnaW4tdG9wPSIwIiBncmlkdG9sZXJhbmNlPSIxMCIgZ3VpZGV0b2xlcmFuY2U9IjEwIiBpZD0ibmFtZWR2aWV3NDAwNzciIGlua3NjYXBlOmN1cnJlbnQtbGF5ZXI9InN2ZzQwMDc1IiBpbmtzY2FwZTpjeD0iNjAuOTI5MTE5IiBpbmtzY2FwZTpjeT0iNDAuODYzMTk4IiBpbmtzY2FwZTpwYWdlb3BhY2l0eT0iMCIgaW5rc2NhcGU6cGFnZXNoYWRvdz0iMiIgaW5rc2NhcGU6d2luZG93LWhlaWdodD0iMTAxNyIgaW5rc2NhcGU6d2luZG93LW1heGltaXplZD0iMSIgaW5rc2NhcGU6d2luZG93LXdpZHRoPSIxOTIwIiBpbmtzY2FwZTp3aW5kb3cteD0iLTgiIGlua3NjYXBlOndpbmRvdy15PSItOCIgaW5rc2NhcGU6em9vbT0iMTAuMzU1MTU3IiBvYmplY3R0b2xlcmFuY2U9IjEwIiBwYWdlY29sb3I9IiNmZmZmZmYiIHNob3dncmlkPSJmYWxzZSI+JiN4YTsJPC9zb2RpcG9kaTpuYW1lZHZpZXc+JiN4YTs8ZyBpZD0iZzQwMDczIiB0cmFuc2Zvcm09InRyYW5zbGF0ZSgtMC43NSwtMC43NTAwMDE2NikiPiYjeGE7CTx0aXRsZSBpZD0idGl0bGUzOTg3MiI+UGFnZS0xPC90aXRsZT4mI3hhOwk8ZyBpZD0iZ3JvdXA1OTkxLTEiIHRyYW5zZm9ybT0idHJhbnNsYXRlKDAuNzUsLTEuMDEzODYpIj4mI3hhOwkJPHRpdGxlIGlkPSJ0aXRsZTM5ODc0Ij5IZWFsdGhjYXJlIEJ1aWxkaW5nPC90aXRsZT4mI3hhOwkJPGcgaWQ9Imdyb3VwNTk5Mi0yIiB0cmFuc2Zvcm09InRyYW5zbGF0ZSg5LjIzNjYsLTAuNDg2MTM3KSI+JiN4YTsJCQk8dGl0bGUgaWQ9InRpdGxlMzk4NzYiPmcxNTg2ODwvdGl0bGU+JiN4YTsJCQk8ZyBpZD0ic2hhcGU1OTkzLTMiIHRyYW5zZm9ybT0idHJhbnNsYXRlKDAsLTAuNjA3NjcxKSI+JiN4YTsJCQkJPHRpdGxlIGlkPSJ0aXRsZTM5ODc4Ij5yZWN0MTU4MDQ8L3RpdGxlPiYjeGE7CQkJCSYjeGE7CQkJCQk8cmVjdCBpZD0icmVjdDM5ODgwIiB4PSIwIiB5PSIzNC42IiBzdHlsZT0iZmlsbDojRjJGMkYyO3N0cm9rZTojNTU2QThBO3N0cm9rZS13aWR0aDoxLjU7c3Ryb2tlLW1pdGVybGltaXQ6MzsiIHdpZHRoPSIyMC40MiIgaGVpZ2h0PSIyOC4yIi8+JiN4YTsJCQk8L2c+JiN4YTsJCQk8ZyBpZD0ic2hhcGU1OTk0LTUiIHRyYW5zZm9ybT0idHJhbnNsYXRlKDI3LjcwOTgsLTQ2LjE4MykiPiYjeGE7CQkJCTx0aXRsZSBpZD0idGl0bGUzOTg4MyI+cmVjdDE1ODA2PC90aXRsZT4mI3hhOwkJCQkmI3hhOwkJCQkJPHJlY3QgaWQ9InJlY3QzOTg4NSIgeD0iMCIgeT0iNDkuMTgiIHN0eWxlPSJmaWxsOiNGRkZGRkY7c3Ryb2tlOiM1NTZBOEE7c3Ryb2tlLXdpZHRoOjEuNTtzdHJva2UtbWl0ZXJsaW1pdDozOyIgd2lkdGg9IjE2LjUzIiBoZWlnaHQ9IjEzLjYxIi8+JiN4YTsJCQk8L2c+JiN4YTsJCQk8ZyBpZD0ic2hhcGU1OTk1LTciIHRyYW5zZm9ybT0idHJhbnNsYXRlKDIwLjQxNzcpIj4mI3hhOwkJCQk8dGl0bGUgaWQ9InRpdGxlMzk4ODgiPnJlY3QxNTgwODwvdGl0bGU+JiN4YTsJCQkJJiN4YTsJCQkJCTxyZWN0IGlkPSJyZWN0Mzk4OTAiIHg9IjAiIHk9IjE2LjYxIiBzdHlsZT0iZmlsbDojRkZGRkZGO3N0cm9rZTojNTU2QThBO3N0cm9rZS13aWR0aDoxLjU7c3Ryb2tlLW1pdGVybGltaXQ6MzsiIHdpZHRoPSIzMS4xMSIgaGVpZ2h0PSI0Ni4xOCIvPiYjeGE7CQkJPC9nPiYjeGE7CQkJPGcgaWQ9InNoYXBlNTk5Ni05IiB0cmFuc2Zvcm09InRyYW5zbGF0ZSgyNi43Mzc1KSI+JiN4YTsJCQkJPHRpdGxlIGlkPSJ0aXRsZTM5ODkzIj5yZWN0MTU4MTA8L3RpdGxlPiYjeGE7CQkJCSYjeGE7CQkJCQk8cmVjdCBpZD0icmVjdDM5ODk1IiB4PSIwIiB5PSI0Ni4yNyIgc3R5bGU9ImZpbGw6I0ZGRkZGRjtzdHJva2U6IzU1NkE4QTtzdHJva2Utd2lkdGg6MS41O3N0cm9rZS1taXRlcmxpbWl0OjM7IiB3aWR0aD0iMTkuNDUiIGhlaWdodD0iMTYuNTMiLz4mI3hhOwkJCTwvZz4mI3hhOwkJCTxnIGlkPSJncm91cDU5OTctMTEiIHRyYW5zZm9ybT0idHJhbnNsYXRlKDIuOTE2ODIsLTIwLjQxNzcpIj4mI3hhOwkJCQk8dGl0bGUgaWQ9InRpdGxlMzk4OTgiPmcxNTgxODwvdGl0bGU+JiN4YTsJCQkJPGcgaWQ9InNoYXBlNTk5OC0xMiI+JiN4YTsJCQkJCTx0aXRsZSBpZD0idGl0bGUzOTkwMCI+cmVjdDE1ODEyPC90aXRsZT4mI3hhOwkJCQkJPHJlY3QgaWQ9InJlY3QzOTkwMiIgeD0iMCIgeT0iNTYuOTYiIHN0eWxlPSJmaWxsOiM1NTZBOEE7IiB3aWR0aD0iMy40IiBoZWlnaHQ9IjUuODMiLz4mI3hhOwkJCQk8L2c+JiN4YTsJCQkJPGcgaWQ9InNoYXBlNTk5OS0xNCIgdHJhbnNmb3JtPSJ0cmFuc2xhdGUoNS44MzM2NCkiPiYjeGE7CQkJCQk8dGl0bGUgaWQ9InRpdGxlMzk5MDUiPnJlY3QxNTgxNDwvdGl0bGU+JiN4YTsJCQkJCTxyZWN0IGlkPSJyZWN0Mzk5MDciIHg9IjAiIHk9IjU2Ljk2IiBzdHlsZT0iZmlsbDojNTU2QThBOyIgd2lkdGg9IjMuNCIgaGVpZ2h0PSI1LjgzIi8+JiN4YTsJCQkJPC9nPiYjeGE7CQkJCTxnIGlkPSJzaGFwZTYwMDAtMTYiIHRyYW5zZm9ybT0idHJhbnNsYXRlKDExLjE4MTEpIj4mI3hhOwkJCQkJPHRpdGxlIGlkPSJ0aXRsZTM5OTEwIj5yZWN0MTU4MTY8L3RpdGxlPiYjeGE7CQkJCQk8cmVjdCBpZD0icmVjdDM5OTEyIiB4PSIwIiB5PSI1Ni45NiIgc3R5bGU9ImZpbGw6IzU1NkE4QTsiIHdpZHRoPSIzLjQiIGhlaWdodD0iNS44MyIvPiYjeGE7CQkJCTwvZz4mI3hhOwkJCTwvZz4mI3hhOwkJCTxnIGlkPSJncm91cDYwMDEtMTgiIHRyYW5zZm9ybT0idHJhbnNsYXRlKDIuOTE2ODIsLTEzLjEyNTcpIj4mI3hhOwkJCQk8dGl0bGUgaWQ9InRpdGxlMzk5MTYiPmcxNTgyNjwvdGl0bGU+JiN4YTsJCQkJPGcgaWQ9InNoYXBlNjAwMi0xOSI+JiN4YTsJCQkJCTx0aXRsZSBpZD0idGl0bGUzOTkxOCI+cmVjdDE1ODIwPC90aXRsZT4mI3hhOwkJCQkJPHJlY3QgaWQ9InJlY3QzOTkyMCIgeD0iMCIgeT0iNTYuOTYiIHN0eWxlPSJmaWxsOiM1NTZBOEE7IiB3aWR0aD0iMy40IiBoZWlnaHQ9IjUuODMiLz4mI3hhOwkJCQk8L2c+JiN4YTsJCQkJPGcgaWQ9InNoYXBlNjAwMy0yMSIgdHJhbnNmb3JtPSJ0cmFuc2xhdGUoNS44MzM2NCkiPiYjeGE7CQkJCQk8dGl0bGUgaWQ9InRpdGxlMzk5MjMiPnJlY3QxNTgyMjwvdGl0bGU+JiN4YTsJCQkJCTxyZWN0IGlkPSJyZWN0Mzk5MjUiIHg9IjAiIHk9IjU2Ljk2IiBzdHlsZT0iZmlsbDojNTU2QThBOyIgd2lkdGg9IjMuNCIgaGVpZ2h0PSI1LjgzIi8+JiN4YTsJCQkJPC9nPiYjeGE7CQkJCTxnIGlkPSJzaGFwZTYwMDQtMjMiIHRyYW5zZm9ybT0idHJhbnNsYXRlKDExLjE4MTEpIj4mI3hhOwkJCQkJPHRpdGxlIGlkPSJ0aXRsZTM5OTI4Ij5yZWN0MTU4MjQ8L3RpdGxlPiYjeGE7CQkJCQk8cmVjdCBpZD0icmVjdDM5OTMwIiB4PSIwIiB5PSI1Ni45NiIgc3R5bGU9ImZpbGw6IzU1NkE4QTsiIHdpZHRoPSIzLjQiIGhlaWdodD0iNS44MyIvPiYjeGE7CQkJCTwvZz4mI3hhOwkJCTwvZz4mI3hhOwkJCTxnIGlkPSJncm91cDYwMDUtMjUiIHRyYW5zZm9ybT0idHJhbnNsYXRlKDIuOTE2ODIsLTUuODMzNjQpIj4mI3hhOwkJCQk8dGl0bGUgaWQ9InRpdGxlMzk5MzQiPmcxNTgzNDwvdGl0bGU+JiN4YTsJCQkJPGcgaWQ9InNoYXBlNjAwNi0yNiI+JiN4YTsJCQkJCTx0aXRsZSBpZD0idGl0bGUzOTkzNiI+cmVjdDE1ODI4PC90aXRsZT4mI3hhOwkJCQkJPHJlY3QgaWQ9InJlY3QzOTkzOCIgeD0iMCIgeT0iNTYuOTYiIHN0eWxlPSJmaWxsOiM1NTZBOEE7IiB3aWR0aD0iMy40IiBoZWlnaHQ9IjUuODMiLz4mI3hhOwkJCQk8L2c+JiN4YTsJCQkJPGcgaWQ9InNoYXBlNjAwNy0yOCIgdHJhbnNmb3JtPSJ0cmFuc2xhdGUoNS44MzM2NCkiPiYjeGE7CQkJCQk8dGl0bGUgaWQ9InRpdGxlMzk5NDEiPnJlY3QxNTgzMDwvdGl0bGU+JiN4YTsJCQkJCTxyZWN0IGlkPSJyZWN0Mzk5NDMiIHg9IjAiIHk9IjU2Ljk2IiBzdHlsZT0iZmlsbDojNTU2QThBOyIgd2lkdGg9IjMuNCIgaGVpZ2h0PSI1LjgzIi8+JiN4YTsJCQkJPC9nPiYjeGE7CQkJCTxnIGlkPSJzaGFwZTYwMDgtMzAiIHRyYW5zZm9ybT0idHJhbnNsYXRlKDExLjE4MTEpIj4mI3hhOwkJCQkJPHRpdGxlIGlkPSJ0aXRsZTM5OTQ2Ij5yZWN0MTU4MzI8L3RpdGxlPiYjeGE7CQkJCQk8cmVjdCBpZD0icmVjdDM5OTQ4IiB4PSIwIiB5PSI1Ni45NiIgc3R5bGU9ImZpbGw6IzU1NkE4QTsiIHdpZHRoPSIzLjQiIGhlaWdodD0iNS44MyIvPiYjeGE7CQkJCTwvZz4mI3hhOwkJCTwvZz4mI3hhOwkJCTxnIGlkPSJzaGFwZTYwMDktMzIiIHRyYW5zZm9ybT0idHJhbnNsYXRlKDUxLjUzMDUsLTAuNjA3NjcxKSI+JiN4YTsJCQkJPHRpdGxlIGlkPSJ0aXRsZTM5OTUyIj5yZWN0MTU4MzY8L3RpdGxlPiYjeGE7CQkJCSYjeGE7CQkJCQk8cmVjdCBpZD0icmVjdDM5OTU0IiB4PSIwIiB5PSIzNC42IiBzdHlsZT0iZmlsbDojRjJGMkYyO3N0cm9rZTojNTU2QThBO3N0cm9rZS13aWR0aDoxLjU7c3Ryb2tlLW1pdGVybGltaXQ6MzsiIHdpZHRoPSIyMC40MiIgaGVpZ2h0PSIyOC4yIi8+JiN4YTsJCQk8L2c+JiN4YTsJCQk8ZyBpZD0iZ3JvdXA2MDEwLTM0IiB0cmFuc2Zvcm09InRyYW5zbGF0ZSg1NC40NDczLC0yMC40MTc3KSI+JiN4YTsJCQkJPHRpdGxlIGlkPSJ0aXRsZTM5OTU3Ij5nMTU4NDQ8L3RpdGxlPiYjeGE7CQkJCTxnIGlkPSJzaGFwZTYwMTEtMzUiPiYjeGE7CQkJCQk8dGl0bGUgaWQ9InRpdGxlMzk5NTkiPnJlY3QxNTgzODwvdGl0bGU+JiN4YTsJCQkJCTxyZWN0IGlkPSJyZWN0Mzk5NjEiIHg9IjAiIHk9IjU2Ljk2IiBzdHlsZT0iZmlsbDojNTU2QThBOyIgd2lkdGg9IjMuNCIgaGVpZ2h0PSI1LjgzIi8+JiN4YTsJCQkJPC9nPiYjeGE7CQkJCTxnIGlkPSJzaGFwZTYwMTItMzciIHRyYW5zZm9ybT0idHJhbnNsYXRlKDUuMzQ3NSkiPiYjeGE7CQkJCQk8dGl0bGUgaWQ9InRpdGxlMzk5NjQiPnJlY3QxNTg0MDwvdGl0bGU+JiN4YTsJCQkJCTxyZWN0IGlkPSJyZWN0Mzk5NjYiIHg9IjAiIHk9IjU2Ljk2IiBzdHlsZT0iZmlsbDojNTU2QThBOyIgd2lkdGg9IjMuNCIgaGVpZ2h0PSI1LjgzIi8+JiN4YTsJCQkJPC9nPiYjeGE7CQkJCTxnIGlkPSJzaGFwZTYwMTMtMzkiIHRyYW5zZm9ybT0idHJhbnNsYXRlKDExLjE4MTEpIj4mI3hhOwkJCQkJPHRpdGxlIGlkPSJ0aXRsZTM5OTY5Ij5yZWN0MTU4NDI8L3RpdGxlPiYjeGE7CQkJCQk8cmVjdCBpZD0icmVjdDM5OTcxIiB4PSIwIiB5PSI1Ni45NiIgc3R5bGU9ImZpbGw6IzU1NkE4QTsiIHdpZHRoPSIzLjQiIGhlaWdodD0iNS44MyIvPiYjeGE7CQkJCTwvZz4mI3hhOwkJCTwvZz4mI3hhOwkJCTxnIGlkPSJncm91cDYwMTQtNDEiIHRyYW5zZm9ybT0idHJhbnNsYXRlKDU0LjQ0NzMsLTEzLjEyNTcpIj4mI3hhOwkJCQk8dGl0bGUgaWQ9InRpdGxlMzk5NzUiPmcxNTg1MjwvdGl0bGU+JiN4YTsJCQkJPGcgaWQ9InNoYXBlNjAxNS00MiI+JiN4YTsJCQkJCTx0aXRsZSBpZD0idGl0bGUzOTk3NyI+cmVjdDE1ODQ2PC90aXRsZT4mI3hhOwkJCQkJPHJlY3QgaWQ9InJlY3QzOTk3OSIgeD0iMCIgeT0iNTYuOTYiIHN0eWxlPSJmaWxsOiM1NTZBOEE7IiB3aWR0aD0iMy40IiBoZWlnaHQ9IjUuODMiLz4mI3hhOwkJCQk8L2c+JiN4YTsJCQkJPGcgaWQ9InNoYXBlNjAxNi00NCIgdHJhbnNmb3JtPSJ0cmFuc2xhdGUoNS4zNDc1KSI+JiN4YTsJCQkJCTx0aXRsZSBpZD0idGl0bGUzOTk4MiI+cmVjdDE1ODQ4PC90aXRsZT4mI3hhOwkJCQkJPHJlY3QgaWQ9InJlY3QzOTk4NCIgeD0iMCIgeT0iNTYuOTYiIHN0eWxlPSJmaWxsOiM1NTZBOEE7IiB3aWR0aD0iMy40IiBoZWlnaHQ9IjUuODMiLz4mI3hhOwkJCQk8L2c+JiN4YTsJCQkJPGcgaWQ9InNoYXBlNjAxNy00NiIgdHJhbnNmb3JtPSJ0cmFuc2xhdGUoMTEuMTgxMSkiPiYjeGE7CQkJCQk8dGl0bGUgaWQ9InRpdGxlMzk5ODciPnJlY3QxNTg1MDwvdGl0bGU+JiN4YTsJCQkJCTxyZWN0IGlkPSJyZWN0Mzk5ODkiIHg9IjAiIHk9IjU2Ljk2IiBzdHlsZT0iZmlsbDojNTU2QThBOyIgd2lkdGg9IjMuNCIgaGVpZ2h0PSI1LjgzIi8+JiN4YTsJCQkJPC9nPiYjeGE7CQkJPC9nPiYjeGE7CQkJPGcgaWQ9Imdyb3VwNjAxOC00OCIgdHJhbnNmb3JtPSJ0cmFuc2xhdGUoNTQuNDQ3MywtNS44MzM2NCkiPiYjeGE7CQkJCTx0aXRsZSBpZD0idGl0bGUzOTk5MyI+ZzE1ODYwPC90aXRsZT4mI3hhOwkJCQk8ZyBpZD0ic2hhcGU2MDE5LTQ5Ij4mI3hhOwkJCQkJPHRpdGxlIGlkPSJ0aXRsZTM5OTk1Ij5yZWN0MTU4NTQ8L3RpdGxlPiYjeGE7CQkJCQk8cmVjdCBpZD0icmVjdDM5OTk3IiB4PSIwIiB5PSI1Ni45NiIgc3R5bGU9ImZpbGw6IzU1NkE4QTsiIHdpZHRoPSIzLjQiIGhlaWdodD0iNS44MyIvPiYjeGE7CQkJCTwvZz4mI3hhOwkJCQk8ZyBpZD0ic2hhcGU2MDIwLTUxIiB0cmFuc2Zvcm09InRyYW5zbGF0ZSg1LjM0NzUpIj4mI3hhOwkJCQkJPHRpdGxlIGlkPSJ0aXRsZTQwMDAwIj5yZWN0MTU4NTY8L3RpdGxlPiYjeGE7CQkJCQk8cmVjdCBpZD0icmVjdDQwMDAyIiB4PSIwIiB5PSI1Ni45NiIgc3R5bGU9ImZpbGw6IzU1NkE4QTsiIHdpZHRoPSIzLjQiIGhlaWdodD0iNS44MyIvPiYjeGE7CQkJCTwvZz4mI3hhOwkJCQk8ZyBpZD0ic2hhcGU2MDIxLTUzIiB0cmFuc2Zvcm09InRyYW5zbGF0ZSgxMS4xODExKSI+JiN4YTsJCQkJCTx0aXRsZSBpZD0idGl0bGU0MDAwNSI+cmVjdDE1ODU4PC90aXRsZT4mI3hhOwkJCQkJPHJlY3QgaWQ9InJlY3Q0MDAwNyIgeD0iMCIgeT0iNTYuOTYiIHN0eWxlPSJmaWxsOiM1NTZBOEE7IiB3aWR0aD0iMy40IiBoZWlnaHQ9IjUuODMiLz4mI3hhOwkJCQk8L2c+JiN4YTsJCQk8L2c+JiN4YTsJCQk8ZyBpZD0ic2hhcGU2MDIyLTU1IiB0cmFuc2Zvcm09InRyYW5zbGF0ZSgyNy4yMjM3LC0wLjk3MjI3MykiPiYjeGE7CQkJCTx0aXRsZSBpZD0idGl0bGU0MDAxMSI+cmVjdDE1ODYyPC90aXRsZT4mI3hhOwkJCQk8cmVjdCBpZD0icmVjdDQwMDEzIiB4PSIwIiB5PSI1MC4xNiIgc3R5bGU9ImZpbGw6I0Q0RjRGRDsiIHdpZHRoPSIxOC40NyIgaGVpZ2h0PSIxMi42NCIvPiYjeGE7CQkJPC9nPiYjeGE7CQkJPGcgaWQ9InNoYXBlNjAyMy01NyIgdHJhbnNmb3JtPSJ0cmFuc2xhdGUoMzUuMDAxOCwtMC45NzIyNzMpIj4mI3hhOwkJCQk8dGl0bGUgaWQ9InRpdGxlNDAwMTYiPnJlY3QxNTg2NDwvdGl0bGU+JiN4YTsJCQkJPHJlY3QgaWQ9InJlY3Q0MDAxOCIgeD0iMCIgeT0iNDkuNjciIHN0eWxlPSJmaWxsOiM4MENFRTk7IiB3aWR0aD0iMi45MiIgaGVpZ2h0PSIxMy4xMyIvPiYjeGE7CQkJPC9nPiYjeGE7CQkJPGcgaWQ9InNoYXBlNjAyNC01OSIgdHJhbnNmb3JtPSJ0cmFuc2xhdGUoMzUuOTc0MSwtMC42MDc2NzEpIj4mI3hhOwkJCQk8dGl0bGUgaWQ9InRpdGxlNDAwMjEiPnJlY3QxNTg2NjwvdGl0bGU+JiN4YTsJCQkJPHJlY3QgaWQ9InJlY3Q0MDAyMyIgeD0iMCIgeT0iNDcuNzIiIHN0eWxlPSJmaWxsOiM1NTZBOEE7IiB3aWR0aD0iMC45NyIgaGVpZ2h0PSIxNS4wNyIvPiYjeGE7CQkJPC9nPiYjeGE7CQk8L2c+JiN4YTsJCTxnIGlkPSJzaGFwZTYwMjUtNjEiIHRyYW5zZm9ybT0idHJhbnNsYXRlKDQxLjMyMTYsLTUwLjA3MjEpIj4mI3hhOwkJCTx0aXRsZSBpZD0idGl0bGU0MDAyNyI+cG9seWdvbjE1ODcwPC90aXRsZT4mI3hhOwkJCTxwYXRoIGlkPSJwYXRoNDAwMjkiIGlua3NjYXBlOmNvbm5lY3Rvci1jdXJ2YXR1cmU9IjAiIHN0eWxlPSJmaWxsOiNEODNCMDE7IiBkPSJNMCw1OS44OGgyLjkydjIuOTFoMS45NHYtMi45MWgyLjkydi0xLjk1SDQuODYgICAgIHYtMi45MUgyLjkydjIuOTFIMFY1OS44OHoiLz4mI3hhOwkJPC9nPiYjeGE7CQk8ZyBpZD0ic2hhcGU2MDI2LTYzIiB0cmFuc2Zvcm09InRyYW5zbGF0ZSgzMy4wNTczLC0zOC4wNDAyKSI+JiN4YTsJCQk8dGl0bGUgaWQ9InRpdGxlNDAwMzIiPnJlY3QxNTg3MjwvdGl0bGU+JiN4YTsJCQk8cmVjdCBpZD0icmVjdDQwMDM0IiB4PSIwIiB5PSI1OC45MSIgc3R5bGU9ImZpbGw6I0I4QzFDRTsiIHdpZHRoPSIyNC4zMSIgaGVpZ2h0PSIzLjg5Ii8+JiN4YTsJCTwvZz4mI3hhOwkJPGcgaWQ9InNoYXBlNjAyNy02NSIgdHJhbnNmb3JtPSJ0cmFuc2xhdGUoMzMuMDU3MywtMzAuNzQ4MSkiPiYjeGE7CQkJPHRpdGxlIGlkPSJ0aXRsZTQwMDM3Ij5yZWN0MTU4NzQ8L3RpdGxlPiYjeGE7CQkJPHJlY3QgaWQ9InJlY3Q0MDAzOSIgeD0iMCIgeT0iNTguOTEiIHN0eWxlPSJmaWxsOiNCOEMxQ0U7IiB3aWR0aD0iMjQuMzEiIGhlaWdodD0iMy44OSIvPiYjeGE7CQk8L2c+JiN4YTsJCTxnIGlkPSJzaGFwZTYwMjgtNjciIHRyYW5zZm9ybT0idHJhbnNsYXRlKDMzLjA1NzMsLTIzLjQ1NjEpIj4mI3hhOwkJCTx0aXRsZSBpZD0idGl0bGU0MDA0MiI+cmVjdDE1ODc2PC90aXRsZT4mI3hhOwkJCTxyZWN0IGlkPSJyZWN0NDAwNDQiIHg9IjAiIHk9IjU4LjkxIiBzdHlsZT0iZmlsbDojQjhDMUNFOyIgd2lkdGg9IjI0LjMxIiBoZWlnaHQ9IjMuODkiLz4mI3hhOwkJPC9nPiYjeGE7CQk8ZyBpZD0ic2hhcGU2MDI5LTY5IiB0cmFuc2Zvcm09InRyYW5zbGF0ZSgzMy4wNTczLC0zOS40OTg2KSI+JiN4YTsJCQk8dGl0bGUgaWQ9InRpdGxlNDAwNDciPnJlY3QxNTg3ODwvdGl0bGU+JiN4YTsJCQk8cmVjdCBpZD0icmVjdDQwMDQ5IiB4PSIwIiB5PSI1OC45MSIgc3R5bGU9ImZpbGw6IzU1NkE4QTsiIHdpZHRoPSIyNC4zMSIgaGVpZ2h0PSIzLjg5Ii8+JiN4YTsJCTwvZz4mI3hhOwkJPGcgaWQ9InNoYXBlNjAzMC03MSIgdHJhbnNmb3JtPSJ0cmFuc2xhdGUoMzMuMDU3MywtMzIuMjA2NikiPiYjeGE7CQkJPHRpdGxlIGlkPSJ0aXRsZTQwMDUyIj5yZWN0MTU4ODA8L3RpdGxlPiYjeGE7CQkJPHJlY3QgaWQ9InJlY3Q0MDA1NCIgeD0iMCIgeT0iNTguOTEiIHN0eWxlPSJmaWxsOiM1NTZBOEE7IiB3aWR0aD0iMjQuMzEiIGhlaWdodD0iMy44OSIvPiYjeGE7CQk8L2c+JiN4YTsJCTxnIGlkPSJzaGFwZTYwMzEtNzMiIHRyYW5zZm9ybT0idHJhbnNsYXRlKDMzLjA1NzMsLTI0LjkxNDUpIj4mI3hhOwkJCTx0aXRsZSBpZD0idGl0bGU0MDA1NyI+cmVjdDE1ODgyPC90aXRsZT4mI3hhOwkJCTxyZWN0IGlkPSJyZWN0NDAwNTkiIHg9IjAiIHk9IjU4LjkxIiBzdHlsZT0iZmlsbDojNTU2QThBOyIgd2lkdGg9IjI0LjMxIiBoZWlnaHQ9IjMuODkiLz4mI3hhOwkJPC9nPiYjeGE7CQk8ZyBpZD0ic2hhcGU2MDMyLTc1Ij4mI3hhOwkJCTx0aXRsZSBpZD0idGl0bGU0MDA2MiI+cmVjdDE1ODg0PC90aXRsZT4mI3hhOwkJCTxwYXRoIGlkPSJwYXRoNDAwNjQiIGlua3NjYXBlOmNvbm5lY3Rvci1jdXJ2YXR1cmU9IjAiIHN0eWxlPSJmaWxsOiM1NTZBOEE7IiBkPSJNMCw2Mi4wN2MwLDAuNCwwLjMzLDAuNzMsMC43MywwLjczbDg5LjkzLTAuMDEgICAgIGMwLjQsMCwwLjczLTAuMzMsMC43My0wLjczYzAtMC40LTAuMzMtMC43My0wLjczLTAuNzNMMC43Myw2MS4zNEMwLjMzLDYxLjM0LDAsNjEuNjcsMCw2Mi4wN0wwLDYyLjA3eiIvPiYjeGE7CQk8L2c+JiN4YTsJCTxnIGlkPSJzaGFwZTYwMzMtNzciIHRyYW5zZm9ybT0idHJhbnNsYXRlKDM2LjQ2MDMsLTE0LjA5OCkiPiYjeGE7CQkJPHRpdGxlIGlkPSJ0aXRsZTQwMDY3Ij5yZWN0MTU4ODY8L3RpdGxlPiYjeGE7CQkJPHJlY3QgaWQ9InJlY3Q0MDA2OSIgeD0iMCIgeT0iNjAuMzYiIHN0eWxlPSJmaWxsOiM4MENFRTk7IiB3aWR0aD0iMTguNDciIGhlaWdodD0iMi40MyIvPiYjeGE7CQk8L2c+JiN4YTsJPC9nPiYjeGE7PC9nPiYjeGE7PC9zdmc+;" vertex="1" parent="1">
          <mxGeometry x="552" y="110" width="91" height="61" as="geometry" />
        </mxCell>
        <mxCell id="Z0xOerYNmcIT1oId9lS7-6" value="" style="shape=image;verticalLabelPosition=bottom;labelBackgroundColor=#ffffff;verticalAlign=top;aspect=fixed;imageAspect=0;image=data:image/svg+xml,PHN2ZyB4bWxuczpjYz0iaHR0cDovL2NyZWF0aXZlY29tbW9ucy5vcmcvbnMjIiB4bWxuczpkYz0iaHR0cDovL3B1cmwub3JnL2RjL2VsZW1lbnRzLzEuMS8iIHhtbG5zOmlua3NjYXBlPSJodHRwOi8vd3d3Lmlua3NjYXBlLm9yZy9uYW1lc3BhY2VzL2lua3NjYXBlIiB4bWxuczpyZGY9Imh0dHA6Ly93d3cudzMub3JnLzE5OTkvMDIvMjItcmRmLXN5bnRheC1ucyMiIHhtbG5zOnNvZGlwb2RpPSJodHRwOi8vc29kaXBvZGkuc291cmNlZm9yZ2UubmV0L0RURC9zb2RpcG9kaS0wLmR0ZCIgeG1sbnM6c3ZnPSJodHRwOi8vd3d3LnczLm9yZy8yMDAwL3N2ZyIgeG1sbnM9Imh0dHA6Ly93d3cudzMub3JnLzIwMDAvc3ZnIiB4bWxuczp4bGluaz0iaHR0cDovL3d3dy53My5vcmcvMTk5OS94bGluayIgdmVyc2lvbj0iMS4xIiBpZD0ic3ZnNTk2NjIiIGlua3NjYXBlOnZlcnNpb249IjAuOTIuMyAoMjQwNTU0NiwgMjAxOC0wMy0xMSkiIHNvZGlwb2RpOmRvY25hbWU9Im9mZmljZV9idWlsZGluZy5zdmciIHg9IjBweCIgeT0iMHB4IiB2aWV3Qm94PSIwIDAgNzkuMzYgNjIuNDMiIHN0eWxlPSJlbmFibGUtYmFja2dyb3VuZDpuZXcgMCAwIDc5LjM2IDYyLjQzOyIgeG1sOnNwYWNlPSJwcmVzZXJ2ZSI+JiN4YTs8c29kaXBvZGk6bmFtZWR2aWV3IGJvcmRlcmNvbG9yPSIjNjY2NjY2IiBib3JkZXJvcGFjaXR5PSIxIiBmaXQtbWFyZ2luLWJvdHRvbT0iMCIgZml0LW1hcmdpbi1sZWZ0PSIwIiBmaXQtbWFyZ2luLXJpZ2h0PSIwIiBmaXQtbWFyZ2luLXRvcD0iMCIgZ3JpZHRvbGVyYW5jZT0iMTAiIGd1aWRldG9sZXJhbmNlPSIxMCIgaWQ9Im5hbWVkdmlldzU5NjY0IiBpbmtzY2FwZTpjdXJyZW50LWxheWVyPSJzdmc1OTY2MiIgaW5rc2NhcGU6Y3g9IjUyLjkwNDQ0OSIgaW5rc2NhcGU6Y3k9IjQxLjYxOTY1MyIgaW5rc2NhcGU6cGFnZW9wYWNpdHk9IjAiIGlua3NjYXBlOnBhZ2VzaGFkb3c9IjIiIGlua3NjYXBlOndpbmRvdy1oZWlnaHQ9IjEwMTciIGlua3NjYXBlOndpbmRvdy1tYXhpbWl6ZWQ9IjEiIGlua3NjYXBlOndpbmRvdy13aWR0aD0iMTkyMCIgaW5rc2NhcGU6d2luZG93LXg9Ii04IiBpbmtzY2FwZTp3aW5kb3cteT0iLTgiIGlua3NjYXBlOnpvb209IjEwLjQxNTU4NiIgb2JqZWN0dG9sZXJhbmNlPSIxMCIgcGFnZWNvbG9yPSIjZmZmZmZmIiBzaG93Z3JpZD0iZmFsc2UiPiYjeGE7CTwvc29kaXBvZGk6bmFtZWR2aWV3PiYjeGE7PGcgaWQ9Imc1OTY2MCIgdHJhbnNmb3JtPSJ0cmFuc2xhdGUoLTEuNDM0NjM1NWUtNCkiPiYjeGE7CTx0aXRsZSBpZD0idGl0bGU1OTY1MyI+UGFnZS0xPC90aXRsZT4mI3hhOwk8ZyBpZD0ic2hhcGU3MDM3LTEiPiYjeGE7CQk8dGl0bGUgaWQ9InRpdGxlNTk2NTUiPk9mZmljZSBCdWlsZGluZzwvdGl0bGU+JiN4YTsJCTxwYXRoIGlkPSJwYXRoNTk2NTciIGlua3NjYXBlOmNvbm5lY3Rvci1jdXJ2YXR1cmU9IjAiIHN0eWxlPSJmaWxsOiMzRjU3NjU7IiBkPSJNNy41OSw0NS43NWwtNS44MywxLjYxbDM2Ljk3LDEyLjczbDIwLjcyLTYuMTYgICAgTDQzLjM0LDU0LjZMNy41OSw0NS43NXogTTI1LjgxLDI1LjZjLTAuMDIsMi40LTAuMDUsNC44MS0wLjA3LDcuMjJsLTkuMDYsMC44MXYtNi4xNEwyNS44MSwyNS42eiBNMjUuODEsMTQuNDZ2Ny4xOGwtOS4wOSwyLjQ3ICAgIHYtNi4xNEwyNS44MSwxNC40NnogTTQzLjE3LDIuMkw5LjA0LDE3Ljg4YzAuMDIsMS4wNCwwLjAzLDIuMDcsMC4wNSwzLjFsNS4zLTIuMTNjLTAuMDQsMS44OS0wLjA3LDMuNzgtMC4xLDUuNjUgICAgYy0xLjY2LDAuNDEtNC4yMiwxLjE1LTUuNDEsMS41N2MtMC4wMiwxLjUzLTAuMDMsMi4wMy0wLjA1LDMuMDVsNS4yNi0xLjI0Yy0wLjAyLDIuMDEtMC4wOSw0LjA2LTAuMSw2LjA3bC01LjQ0LDAuMjcgICAgYzAuMDMsMC45My0wLjAxLDEuODcsMCwyLjgxbDUuNTQtMC4wMmMtMC4wNCwyLjA4LTAuMDcsMy4yOC0wLjAzLDYuNDRsLTUuNjctMWMwLDAuODUsMC4wMSwyLjc0LDAuMDQsMi45MSAgICBjMC4wMy0wLjIxLDUuMiwxLjMxLDguMDEsMi4wMmMwLjAzLTUuMTEtMC4wMS02Ljg2LDAtMTAuMzJMMjUuNTMsMzdjMC4wMSw0LjA2LDAuMDMsOC4xMiwwLjA1LDEyLjE4bDE3Ljg3LDQuNTl2LTUuNTkgICAgbC0xNC4yOC0yLjQxYzAtMi44OSwwLjAxLTUuOCwwLjAyLTguNzFsMTQuMjYsMC4xOWMwLjA0LTEuODItMC4wNC0yLjg5LDAuMDMtNS42MmwtMTQuMzIsMS4yNGMwLjA3LTMuOC0wLjA0LTQsMC4wMy03LjggICAgbDEzLjk4LTIuODhjMC4wMy0xLjYyLDAuMDUtMy4yMywwLjA4LTQuODRMMjguOSwyMC44NnYtNy43M2wxNC40MS01LjJDNDMuMjcsNi4wMiw0My4yMiw0LjExLDQzLjE3LDIuMnogTTQzLjIxLDBsMzIuNjMsMTUuMjggICAgYzAuMDksOS42NCwwLjE4LDE5LjI5LDAuMjcsMjguOTRsMi44NCwwLjhsMC40MSwzLjYyTDM5LjQxLDYyLjQzTDAsNDguNWwwLjE0LTIuMDFsNy4zMS0xLjJsMC44MS0yOC41NEw0My4yMSwweiIvPiYjeGE7CTwvZz4mI3hhOzwvZz4mI3hhOzwvc3ZnPg==;" vertex="1" parent="1">
          <mxGeometry x="399" y="100" width="79" height="62" as="geometry" />
        </mxCell>
        <mxCell id="Z0xOerYNmcIT1oId9lS7-7" value="" style="shape=image;verticalLabelPosition=bottom;labelBackgroundColor=#ffffff;verticalAlign=top;aspect=fixed;imageAspect=0;image=data:image/svg+xml,PHN2ZyB4bWxuczpjYz0iaHR0cDovL2NyZWF0aXZlY29tbW9ucy5vcmcvbnMjIiB4bWxuczpkYz0iaHR0cDovL3B1cmwub3JnL2RjL2VsZW1lbnRzLzEuMS8iIHhtbG5zOmlua3NjYXBlPSJodHRwOi8vd3d3Lmlua3NjYXBlLm9yZy9uYW1lc3BhY2VzL2lua3NjYXBlIiB4bWxuczpyZGY9Imh0dHA6Ly93d3cudzMub3JnLzE5OTkvMDIvMjItcmRmLXN5bnRheC1ucyMiIHhtbG5zOnNvZGlwb2RpPSJodHRwOi8vc29kaXBvZGkuc291cmNlZm9yZ2UubmV0L0RURC9zb2RpcG9kaS0wLmR0ZCIgeG1sbnM6c3ZnPSJodHRwOi8vd3d3LnczLm9yZy8yMDAwL3N2ZyIgeG1sbnM9Imh0dHA6Ly93d3cudzMub3JnLzIwMDAvc3ZnIiB4bWxuczp4bGluaz0iaHR0cDovL3d3dy53My5vcmcvMTk5OS94bGluayIgdmVyc2lvbj0iMS4xIiBpZD0ic3ZnMTM5Mzg4IiBpbmtzY2FwZTp2ZXJzaW9uPSIwLjkyLjMgKDI0MDU1NDYsIDIwMTgtMDMtMTEpIiBzb2RpcG9kaTpkb2NuYW1lPSJhenVyZV92bS5zdmciIHg9IjBweCIgeT0iMHB4IiB2aWV3Qm94PSIwIDAgNDIuMjIgMzkuMyIgc3R5bGU9ImVuYWJsZS1iYWNrZ3JvdW5kOm5ldyAwIDAgNDIuMjIgMzkuMzsiIHhtbDpzcGFjZT0icHJlc2VydmUiPiYjeGE7PHNvZGlwb2RpOm5hbWVkdmlldyBib3JkZXJjb2xvcj0iIzY2NjY2NiIgYm9yZGVyb3BhY2l0eT0iMSIgZml0LW1hcmdpbi1ib3R0b209IjAiIGZpdC1tYXJnaW4tbGVmdD0iMCIgZml0LW1hcmdpbi1yaWdodD0iMCIgZml0LW1hcmdpbi10b3A9IjAiIGdyaWR0b2xlcmFuY2U9IjEwIiBndWlkZXRvbGVyYW5jZT0iMTAiIGlkPSJuYW1lZHZpZXcxMzkzOTAiIGlua3NjYXBlOmN1cnJlbnQtbGF5ZXI9InN2ZzEzOTM4OCIgaW5rc2NhcGU6Y3g9IjI4LjE0NDg0NyIgaW5rc2NhcGU6Y3k9IjI2LjIwMjY0OCIgaW5rc2NhcGU6cGFnZW9wYWNpdHk9IjAiIGlua3NjYXBlOnBhZ2VzaGFkb3c9IjIiIGlua3NjYXBlOndpbmRvdy1oZWlnaHQ9IjEwMTciIGlua3NjYXBlOndpbmRvdy1tYXhpbWl6ZWQ9IjEiIGlua3NjYXBlOndpbmRvdy13aWR0aD0iMTkyMCIgaW5rc2NhcGU6d2luZG93LXg9Ii04IiBpbmtzY2FwZTp3aW5kb3cteT0iLTgiIGlua3NjYXBlOnpvb209IjE2LjU0NzQ4IiBvYmplY3R0b2xlcmFuY2U9IjEwIiBwYWdlY29sb3I9IiNmZmZmZmYiIHNob3dncmlkPSJmYWxzZSI+JiN4YTsJPC9zb2RpcG9kaTpuYW1lZHZpZXc+JiN4YTs8ZyBpZD0iZzEzOTM4NiIgdHJhbnNmb3JtPSJ0cmFuc2xhdGUoMCwtMC4wMDE3OCkiPiYjeGE7CTx0aXRsZSBpZD0idGl0bGUxMzkzNTEiPlBhZ2UtMTwvdGl0bGU+JiN4YTsJPGcgaWQ9Imdyb3VwOTY2NC0xIj4mI3hhOwkJPHRpdGxlIGlkPSJ0aXRsZTEzOTM1MyI+QXp1cmUgVk08L3RpdGxlPiYjeGE7CQk8ZyBpZD0ic2hhcGU5NjY1LTIiIHRyYW5zZm9ybT0idHJhbnNsYXRlKDIuOTU1MjEsLTEwLjMwOTQpIj4mI3hhOwkJCTx0aXRsZSBpZD0idGl0bGUxMzkzNTUiPlNoZWV0Ljk2NjU8L3RpdGxlPiYjeGE7CQkJPHBhdGggaWQ9InBhdGgxMzkzNTciIGlua3NjYXBlOmNvbm5lY3Rvci1jdXJ2YXR1cmU9IjAiIHN0eWxlPSJmaWxsOiMwMEJCRjE7IiBkPSJNMzcuMzMsMTIuOTdWMzkuM0gwVjEyLjk3bDM3LjM5LTAuMDggICAgIEwzNy4zMywxMi45N3oiLz4mI3hhOwkJPC9nPiYjeGE7CQk8ZyBpZD0ic2hhcGU5NjY2LTQiIHRyYW5zZm9ybT0idHJhbnNsYXRlKDcuMTc2OTMpIj4mI3hhOwkJCTx0aXRsZSBpZD0idGl0bGUxMzkzNjAiPlNoZWV0Ljk2NjY8L3RpdGxlPiYjeGE7CQkJPHBhdGggaWQ9InBhdGgxMzkzNjIiIGlua3NjYXBlOmNvbm5lY3Rvci1jdXJ2YXR1cmU9IjAiIHN0eWxlPSJmaWxsOiM5MTkxOTE7IiBkPSJNMjAuMjYsMzEuMjdjLTEuMDUsMC0xLjA1LDAtMS4wNSwwICAgICBjLTkuOTcsMC05Ljk3LDAtOS45NywwYy0wLjU2LDAtMC41NiwwLTAuNTYsMGMxLjM3LDQuODMtMC41LDUuNTQtOC42OCw1LjU0YzAsMi40OSwwLDIuNDksMCwyLjQ5YzEwLjQ4LDAsMTAuNDgsMCwxMC40OCwwICAgICBjNy41OSwwLDcuNTksMCw3LjU5LDBjOS43OSwwLDkuNzksMCw5Ljc5LDBjMC0yLjQ5LDAtMi40OSwwLTIuNDlDMTkuNzEsMzYuODEsMTguODksMzYuMSwyMC4yNiwzMS4yN3oiLz4mI3hhOwkJPC9nPiYjeGE7CQk8ZyBpZD0ic2hhcGU5NjY3LTYiIHRyYW5zZm9ybT0idHJhbnNsYXRlKDAsLTguMDI4MjIpIj4mI3hhOwkJCTx0aXRsZSBpZD0idGl0bGUxMzkzNjUiPlNoZWV0Ljk2Njc8L3RpdGxlPiYjeGE7CQkJPHBhdGggaWQ9InBhdGgxMzkzNjciIGlua3NjYXBlOmNvbm5lY3Rvci1jdXJ2YXR1cmU9IjAiIHN0eWxlPSJmaWxsOiNDNUM1QzU7IiBkPSJNMzkuNjMsOC4wM2MtMzcuMjYsMC0zNy4yNiwwLTM3LjI2LDAgICAgIEMxLjA2LDguMDMsMCw5LjE5LDAsMTAuNTFjMCwyNi40MSwwLDI2LjQxLDAsMjYuNDFjMCwxLjMyLDEuMDYsMi4zOCwyLjM3LDIuMzhjMzcuMjYsMCwzNy4yNiwwLDM3LjI2LDAgICAgIGMxLjI5LDAsMi41OS0xLjA2LDIuNTktMi4zOGMwLTI2LjQxLDAtMjYuNDEsMC0yNi40MUM0Mi4yMiw5LjE5LDQwLjkyLDguMDMsMzkuNjMsOC4wM3ogTTM5LDExLjMzYzAsMjQuNjksMCwyNC42OSwwLDI0LjY5ICAgICBjLTM1Ljc1LDAtMzUuNzUsMC0zNS43NSwwYzAtMjQuNjksMC0yNC42OSwwLTI0LjY5YzM1LjgzLTAuMDgsMzUuODMtMC4wOCwzNS44My0wLjA4TDM5LDExLjMzeiIvPiYjeGE7CQk8L2c+JiN4YTsJCTxnIGlkPSJzaGFwZTk2NjgtOCIgdHJhbnNmb3JtPSJ0cmFuc2xhdGUoMTMuNTA5NSwtMjQuMDg0NykiPiYjeGE7CQkJPHRpdGxlIGlkPSJ0aXRsZTEzOTM3MCI+U2hlZXQuOTY2ODwvdGl0bGU+JiN4YTsJCQk8cGF0aCBpZD0icGF0aDEzOTM3MiIgaW5rc2NhcGU6Y29ubmVjdG9yLWN1cnZhdHVyZT0iMCIgc3R5bGU9ImZpbGw6I0U2RjhGRTsiIGQ9Ik03LjYsMzAuNDJjLTAuMDgsMC0wLjA4LDAtMC4xNiwwICAgICBjLTcuMzMsNC4yNS03LjMzLDQuMjUtNy4zMyw0LjI1QzAsMzQuNjcsMCwzNC43NSwwLDM0LjgzczAsMC4xNiwwLjExLDAuMjRjNy40MSw0LjIzLDcuNDEsNC4yMyw3LjQxLDQuMjNINy42ICAgICBjMC4xLDAsMC4xLDAsMC4xOCwwYzcuMzQtNC4yMyw3LjM0LTQuMjMsNy4zNC00LjIzYzAuMDgsMCwwLjA4LTAuMDgsMC4wOC0wLjE2YzAtMC4wOCwwLTAuMTYtMC4wOC0wLjI0ICAgICBDNy43LDMwLjQyLDcuNywzMC40Miw3LjcsMzAuNDJINy42eiIvPiYjeGE7CQk8L2c+JiN4YTsJCTxnIGlkPSJzaGFwZTk2NjktMTAiIHRyYW5zZm9ybT0idHJhbnNsYXRlKDEyLjI0MywtMTMuNTIxMikiPiYjeGE7CQkJPHRpdGxlIGlkPSJ0aXRsZTEzOTM3NSI+U2hlZXQuOTY2OTwvdGl0bGU+JiN4YTsJCQk8cGF0aCBpZD0icGF0aDEzOTM3NyIgaW5rc2NhcGU6Y29ubmVjdG9yLWN1cnZhdHVyZT0iMCIgc3R5bGU9ImZpbGw6I0NDRjFGQzsiIGQ9Ik0wLjI2LDI1Ljc3Yy0wLjA4LDAtMC4wOCwwLTAuMTUsMCAgICAgQzAsMjUuNzcsMCwyNS44OCwwLDI1Ljk2YzAsOC43NCwwLDguNzQsMCw4Ljc0YzAsMC4wOCwwLDAuMTYsMC4xMSwwLjI0YzcuNTksNC4yOCw3LjU5LDQuMjgsNy41OSw0LjI4ICAgICBjMCwwLjA4LDAuMDgsMC4wOCwwLjA4LDAuMDhjMC4wOCwwLDAuMDgsMCwwLjE2LTAuMDhjMCwwLDAuMDgtMC4wOCwwLjA4LTAuMTZjMC04Ljc0LDAtOC43NCwwLTguNzRjMC0wLjA4LTAuMDgtMC4xNi0wLjA4LTAuMTYgICAgIGMtNy42LTQuMzktNy42LTQuMzktNy42LTQuMzlTMC4yNiwyNS43NywwLjI2LDI1Ljc3eiIvPiYjeGE7CQk8L2c+JiN4YTsJCTxnIGlkPSJzaGFwZTk2NzAtMTIiIHRyYW5zZm9ybT0idHJhbnNsYXRlKDIxLjk1MywtMTMuNTIxMikiPiYjeGE7CQkJPHRpdGxlIGlkPSJ0aXRsZTEzOTM4MCI+U2hlZXQuOTY3MDwvdGl0bGU+JiN4YTsJCQk8cGF0aCBpZD0icGF0aDEzOTM4MiIgaW5rc2NhcGU6Y29ubmVjdG9yLWN1cnZhdHVyZT0iMCIgc3R5bGU9ImZpbGw6IzgwRERGODsiIGQ9Ik03LjM5LDI1Ljc3YzAsMC0wLjA4LDAtMC4wOCwwLjExICAgICBjLTcuMTUsNC4yOC03LjE1LDQuMjgtNy4xNSw0LjI4QzAuMDgsMzAuMjQsMCwzMC4zMiwwLDMwLjRjMCw4LjY2LDAsOC42NiwwLDguNjZjMCwwLjA4LDAuMDgsMC4xNiwwLjE2LDAuMTYgICAgIGMwLDAuMDgsMCwwLjA4LDAuMDgsMC4wOGMwLDAsMC4wOCwwLDAuMDgtMC4wOGM3LjItNC4yOCw3LjItNC4yOCw3LjItNC4yOEM3LjYsMzQuODYsNy42LDM0Ljc4LDcuNiwzNC43YzAtOC42NiwwLTguNjYsMC04LjY2ICAgICBjMC0wLjA4LDAtMC4xNi0wLjA4LTAuMTZDNy40NywyNS43Nyw3LjQ3LDI1Ljc3LDcuMzksMjUuNzd6Ii8+JiN4YTsJCTwvZz4mI3hhOwk8L2c+JiN4YTs8L2c+JiN4YTs8L3N2Zz4=;" vertex="1" parent="1">
          <mxGeometry x="30.000000000000057" y="110.00000000000045" width="42" height="39" as="geometry" />
        </mxCell>
        <mxCell id="Z0xOerYNmcIT1oId9lS7-8" value="" style="shape=image;verticalLabelPosition=bottom;labelBackgroundColor=#ffffff;verticalAlign=top;aspect=fixed;imageAspect=0;image=data:image/svg+xml,PHN2ZyB4bWxuczpjYz0iaHR0cDovL2NyZWF0aXZlY29tbW9ucy5vcmcvbnMjIiB4bWxuczpkYz0iaHR0cDovL3B1cmwub3JnL2RjL2VsZW1lbnRzLzEuMS8iIHhtbG5zOmlua3NjYXBlPSJodHRwOi8vd3d3Lmlua3NjYXBlLm9yZy9uYW1lc3BhY2VzL2lua3NjYXBlIiB4bWxuczpyZGY9Imh0dHA6Ly93d3cudzMub3JnLzE5OTkvMDIvMjItcmRmLXN5bnRheC1ucyMiIHhtbG5zOnNvZGlwb2RpPSJodHRwOi8vc29kaXBvZGkuc291cmNlZm9yZ2UubmV0L0RURC9zb2RpcG9kaS0wLmR0ZCIgeG1sbnM6c3ZnPSJodHRwOi8vd3d3LnczLm9yZy8yMDAwL3N2ZyIgeG1sbnM9Imh0dHA6Ly93d3cudzMub3JnLzIwMDAvc3ZnIiB4bWxuczp4bGluaz0iaHR0cDovL3d3dy53My5vcmcvMTk5OS94bGluayIgdmVyc2lvbj0iMS4xIiBpZD0ic3ZnMTMyODk1IiBpbmtzY2FwZTp2ZXJzaW9uPSIwLjkyLjMgKDI0MDU1NDYsIDIwMTgtMDMtMTEpIiBzb2RpcG9kaTpkb2NuYW1lPSJhY3RpdmVfZGlyZWN0b3J5LnN2ZyIgeD0iMHB4IiB5PSIwcHgiIHZpZXdCb3g9IjAgMCAxMDggNzcuMDUiIHN0eWxlPSJlbmFibGUtYmFja2dyb3VuZDpuZXcgMCAwIDEwOCA3Ny4wNTsiIHhtbDpzcGFjZT0icHJlc2VydmUiPiYjeGE7PHNvZGlwb2RpOm5hbWVkdmlldyBib3JkZXJjb2xvcj0iIzY2NjY2NiIgYm9yZGVyb3BhY2l0eT0iMSIgZml0LW1hcmdpbi1ib3R0b209IjAiIGZpdC1tYXJnaW4tbGVmdD0iMCIgZml0LW1hcmdpbi1yaWdodD0iMCIgZml0LW1hcmdpbi10b3A9IjAiIGdyaWR0b2xlcmFuY2U9IjEwIiBndWlkZXRvbGVyYW5jZT0iMTAiIGlkPSJuYW1lZHZpZXcxMzI4OTciIGlua3NjYXBlOmN1cnJlbnQtbGF5ZXI9InN2ZzEzMjg5NSIgaW5rc2NhcGU6Y3g9IjcyIiBpbmtzY2FwZTpjeT0iNTEuMzY4NTM1IiBpbmtzY2FwZTpwYWdlb3BhY2l0eT0iMCIgaW5rc2NhcGU6cGFnZXNoYWRvdz0iMiIgaW5rc2NhcGU6d2luZG93LWhlaWdodD0iMTAxNyIgaW5rc2NhcGU6d2luZG93LW1heGltaXplZD0iMSIgaW5rc2NhcGU6d2luZG93LXdpZHRoPSIxOTIwIiBpbmtzY2FwZTp3aW5kb3cteD0iLTgiIGlua3NjYXBlOndpbmRvdy15PSItOCIgaW5rc2NhcGU6em9vbT0iOC40Mzk2MzIyIiBvYmplY3R0b2xlcmFuY2U9IjEwIiBwYWdlY29sb3I9IiNmZmZmZmYiIHNob3dncmlkPSJmYWxzZSI+JiN4YTsJPC9zb2RpcG9kaTpuYW1lZHZpZXc+JiN4YTs8ZyBpZD0iZzEzMjg5MyI+JiN4YTsJPHRpdGxlIGlkPSJ0aXRsZTEzMjc3MyI+UGFnZS0xPC90aXRsZT4mI3hhOwk8ZyBpZD0iZ3JvdXA4MzM5LTEiPiYjeGE7CQk8dGl0bGUgaWQ9InRpdGxlMTMyNzc1Ij5BY3RpdmUgRGlyZWN0b3J5PC90aXRsZT4mI3hhOwkJPGcgaWQ9InNoYXBlODM0MC0yIj4mI3hhOwkJCTx0aXRsZSBpZD0idGl0bGUxMzI3NzciPlNoZWV0LjgzNDA8L3RpdGxlPiYjeGE7CQkJPHBhdGggaWQ9InBhdGgxMzI3NzkiIGlua3NjYXBlOmNvbm5lY3Rvci1jdXJ2YXR1cmU9IjAiIHN0eWxlPSJmaWxsOiNGRkMwMDA7IiBkPSJNNTQuMTgsMEwwLDY3LjYybDU0LjExLDkuNDNMNTQuMTgsMHoiLz4mI3hhOwkJPC9nPiYjeGE7CQk8ZyBpZD0ic2hhcGU4MzQxLTQiIHRyYW5zZm9ybT0idHJhbnNsYXRlKDU0LjE3NykiPiYjeGE7CQkJPHRpdGxlIGlkPSJ0aXRsZTEzMjc4MiI+U2hlZXQuODM0MTwvdGl0bGU+JiN4YTsJCQk8cGF0aCBpZD0icGF0aDEzMjc4NCIgaW5rc2NhcGU6Y29ubmVjdG9yLWN1cnZhdHVyZT0iMCIgc3R5bGU9ImZpbGw6I0JGOTAwMDsiIGQ9Ik0wLDBsNTMuODIsNjcuNjJMMC4wOSw3Ny4wNUwwLDB6Ii8+JiN4YTsJCTwvZz4mI3hhOwkJPGcgaWQ9InNoYXBlODM0Mi02IiB0cmFuc2Zvcm09InRyYW5zbGF0ZSg0MC4zNjcyLC00OC4wNjYyKSI+JiN4YTsJCQk8dGl0bGUgaWQ9InRpdGxlMTMyNzg3Ij5TaGVldC44MzQyPC90aXRsZT4mI3hhOwkJCTxwYXRoIGlkPSJwYXRoMTMyNzg5IiBpbmtzY2FwZTpjb25uZWN0b3ItY3VydmF0dXJlPSIwIiBzdHlsZT0iZmlsbDojRkZGRkZGOyIgZD0iTTAsNzEuOTJjMC0yLjgyLDIuMy01LjEyLDUuMTMtNS4xMiAgICAgYzIuODYsMCw1LjE0LDIuMyw1LjE0LDUuMTJjMCwyLjg1LTIuMjgsNS4xMy01LjE0LDUuMTNDMi4zLDc3LjA1LDAsNzQuNzcsMCw3MS45MnoiLz4mI3hhOwkJPC9nPiYjeGE7CQk8ZyBpZD0ic2hhcGU4MzQzLTgiIHRyYW5zZm9ybT0idHJhbnNsYXRlKDU3LjM2MzksLTQ4LjA2NjIpIj4mI3hhOwkJCTx0aXRsZSBpZD0idGl0bGUxMzI3OTIiPlNoZWV0LjgzNDM8L3RpdGxlPiYjeGE7CQkJPHBhdGggaWQ9InBhdGgxMzI3OTQiIGlua3NjYXBlOmNvbm5lY3Rvci1jdXJ2YXR1cmU9IjAiIHN0eWxlPSJmaWxsOiNGRkZGRkY7IiBkPSJNOS45MSw3MS45MmMwLTIuODItMi4yMS01LjEyLTQuOTUtNS4xMiAgICAgQzIuMjQsNjYuOCwwLDY5LjEsMCw3MS45MmMwLDIuODUsMi4yNCw1LjEzLDQuOTYsNS4xM0M3LjcsNzcuMDUsOS45MSw3NC43Nyw5LjkxLDcxLjkyeiIvPiYjeGE7CQk8L2c+JiN4YTsJCTxnIGlkPSJzaGFwZTgzNDQtMTAiIHRyYW5zZm9ybT0idHJhbnNsYXRlKDQwLjM2NzIsLTExLjMwOTcpIj4mI3hhOwkJCTx0aXRsZSBpZD0idGl0bGUxMzI3OTciPlNoZWV0LjgzNDQ8L3RpdGxlPiYjeGE7CQkJPHBhdGggaWQ9InBhdGgxMzI3OTkiIGlua3NjYXBlOmNvbm5lY3Rvci1jdXJ2YXR1cmU9IjAiIHN0eWxlPSJmaWxsOiNGRkZGRkY7IiBkPSJNMCw3Mi4xYzAtMi43MiwyLjMtNC45NSw1LjEzLTQuOTUgICAgIGMyLjg2LDAsNS4xNCwyLjIzLDUuMTQsNC45NWMwLDIuNzQtMi4yOCw0Ljk1LTUuMTQsNC45NUMyLjMsNzcuMDUsMCw3NC44NCwwLDcyLjF6Ii8+JiN4YTsJCTwvZz4mI3hhOwkJPGcgaWQ9InNoYXBlODM0NS0xMiIgdHJhbnNmb3JtPSJ0cmFuc2xhdGUoNTcuMzYzOSwtMTEuMzA5NykiPiYjeGE7CQkJPHRpdGxlIGlkPSJ0aXRsZTEzMjgwMiI+U2hlZXQuODM0NTwvdGl0bGU+JiN4YTsJCQk8cGF0aCBpZD0icGF0aDEzMjgwNCIgaW5rc2NhcGU6Y29ubmVjdG9yLWN1cnZhdHVyZT0iMCIgc3R5bGU9ImZpbGw6I0ZGRkZGRjsiIGQ9Ik05LjkxLDcyLjFjMC0yLjcyLTIuMjEtNC45NS00Ljk1LTQuOTUgICAgIEMyLjI0LDY3LjE1LDAsNjkuMzgsMCw3Mi4xYzAsMi43NCwyLjI0LDQuOTUsNC45Niw0Ljk1QzcuNyw3Ny4wNSw5LjkxLDc0Ljg0LDkuOTEsNzIuMXoiLz4mI3hhOwkJPC9nPiYjeGE7CQk8ZyBpZD0ic2hhcGU4MzQ2LTE0IiB0cmFuc2Zvcm09InRyYW5zbGF0ZSg3MS4xNzM4LC0xMy43ODM3KSI+JiN4YTsJCQk8dGl0bGUgaWQ9InRpdGxlMTMyODA3Ij5TaGVldC44MzQ2PC90aXRsZT4mI3hhOwkJCTxwYXRoIGlkPSJwYXRoMTMyODA5IiBpbmtzY2FwZTpjb25uZWN0b3ItY3VydmF0dXJlPSIwIiBzdHlsZT0iZmlsbDojRkZGRkZGOyIgZD0iTTEwLjI3LDcxLjkyYzAtMi44Mi0yLjI4LTUuMTItNS4xNC01LjEyICAgICBDMi4zLDY2LjgsMCw2OS4xLDAsNzEuOTJjMCwyLjg1LDIuMyw1LjEzLDUuMTMsNS4xM0M3Ljk5LDc3LjA1LDEwLjI3LDc0Ljc3LDEwLjI3LDcxLjkyeiIvPiYjeGE7CQk8L2c+JiN4YTsJCTxnIGlkPSJzaGFwZTgzNDctMTYiIHRyYW5zZm9ybT0idHJhbnNsYXRlKDI2LjU1NzQsLTEzLjc4MzcpIj4mI3hhOwkJCTx0aXRsZSBpZD0idGl0bGUxMzI4MTIiPlNoZWV0LjgzNDc8L3RpdGxlPiYjeGE7CQkJPHBhdGggaWQ9InBhdGgxMzI4MTQiIGlua3NjYXBlOmNvbm5lY3Rvci1jdXJ2YXR1cmU9IjAiIHN0eWxlPSJmaWxsOiNGRkZGRkY7IiBkPSJNMCw3MS45MmMwLTIuODIsMi4zLTUuMTIsNS4xMy01LjEyICAgICBjMi44NiwwLDUuMTQsMi4zLDUuMTQsNS4xMmMwLDIuODUtMi4yOCw1LjEzLTUuMTQsNS4xM0MyLjMsNzcuMDUsMCw3NC43NywwLDcxLjkyeiIvPiYjeGE7CQk8L2c+JiN4YTsJCTxnIGlkPSJzaGFwZTgzNDgtMTgiIHRyYW5zZm9ybT0idHJhbnNsYXRlKDg1LjMzNzcsLTE1LjU1MDgpIj4mI3hhOwkJCTx0aXRsZSBpZD0idGl0bGUxMzI4MTciPlNoZWV0LjgzNDg8L3RpdGxlPiYjeGE7CQkJPHBhdGggaWQ9InBhdGgxMzI4MTkiIGlua3NjYXBlOmNvbm5lY3Rvci1jdXJ2YXR1cmU9IjAiIHN0eWxlPSJmaWxsOiNGRkZGRkY7IiBkPSJNMTAuMjcsNzEuOTJjMC0yLjgyLTIuMjgtNS4xMi01LjE0LTUuMTIgICAgIEMyLjMsNjYuOCwwLDY5LjEsMCw3MS45MmMwLDIuODUsMi4zLDUuMTMsNS4xMyw1LjEzQzcuOTksNzcuMDUsMTAuMjcsNzQuNzcsMTAuMjcsNzEuOTJ6Ii8+JiN4YTsJCTwvZz4mI3hhOwkJPGcgaWQ9InNoYXBlODM0OS0yMCIgdHJhbnNmb3JtPSJ0cmFuc2xhdGUoMTIuNzQ3NSwtMTUuNTUwOCkiPiYjeGE7CQkJPHRpdGxlIGlkPSJ0aXRsZTEzMjgyMiI+U2hlZXQuODM0OTwvdGl0bGU+JiN4YTsJCQk8cGF0aCBpZD0icGF0aDEzMjgyNCIgaW5rc2NhcGU6Y29ubmVjdG9yLWN1cnZhdHVyZT0iMCIgc3R5bGU9ImZpbGw6I0ZGRkZGRjsiIGQ9Ik0xMC4yNyw3MS45MmMwLTIuODItMi4yOC01LjEyLTUuMTQtNS4xMiAgICAgQzIuMyw2Ni44LDAsNjkuMSwwLDcxLjkyYzAsMi44NSwyLjMsNS4xMyw1LjEzLDUuMTNDNy45OSw3Ny4wNSwxMC4yNyw3NC43NywxMC4yNyw3MS45MnoiLz4mI3hhOwkJPC9nPiYjeGE7CQk8ZyBpZD0ic2hhcGU4MzUwLTIyIiB0cmFuc2Zvcm09InRyYW5zbGF0ZSg1MC4wMTY0LC0xOS4wMTMxKSI+JiN4YTsJCQk8dGl0bGUgaWQ9InRpdGxlMTMyODI3Ij5TaGVldC44MzUwPC90aXRsZT4mI3hhOwkJCSYjeGE7CQkJCTxwYXRoIGlkPSJwYXRoMTMyODI5IiBpbmtzY2FwZTpjb25uZWN0b3ItY3VydmF0dXJlPSIwIiBzdHlsZT0iZmlsbDpub25lO3N0cm9rZTojRkZGRkZGO3N0cm9rZS13aWR0aDowLjUwMjM7c3Ryb2tlLWxpbmVjYXA6cm91bmQ7c3Ryb2tlLWxpbmVqb2luOnJvdW5kO3N0cm9rZS1taXRlcmxpbWl0OjM7IiBkPSIgICAgIE0xMS4wNyw2NC45NkMxMS43Myw3MS4wMSw3Ljk1LDc2LjM4LDIuNTksNzdDMS43Myw3Ny4wOSwwLjg2LDc3LjA2LDAsNzYuODkiLz4mI3hhOwkJPC9nPiYjeGE7CQk8ZyBpZD0ic2hhcGU4MzUxLTI1IiB0cmFuc2Zvcm09InRyYW5zbGF0ZSg0Ny40NTc0LC0xOS4wMTMxKSI+JiN4YTsJCQk8dGl0bGUgaWQ9InRpdGxlMTMyODMyIj5TaGVldC44MzUxPC90aXRsZT4mI3hhOwkJCSYjeGE7CQkJCTxwYXRoIGlkPSJwYXRoMTMyODM0IiBpbmtzY2FwZTpjb25uZWN0b3ItY3VydmF0dXJlPSIwIiBzdHlsZT0iZmlsbDpub25lO3N0cm9rZTojRkZGRkZGO3N0cm9rZS13aWR0aDowLjUwMjM7c3Ryb2tlLWxpbmVjYXA6cm91bmQ7c3Ryb2tlLWxpbmVqb2luOnJvdW5kO3N0cm9rZS1taXRlcmxpbWl0OjM7IiBkPSIgICAgIE0wLjA4LDY0Ljk2Qy0wLjYxLDcxLjAxLDMuMTgsNzYuMzgsOC41Myw3N2MwLjg3LDAuMDksMS43NSwwLjA2LDIuNjItMC4xMSIvPiYjeGE7CQk8L2c+JiN4YTsJCTxnIGlkPSJzaGFwZTgzNTItMjgiIHRyYW5zZm9ybT0idHJhbnNsYXRlKDQ2LjUxOTcsLTQ2LjM3MDYpIj4mI3hhOwkJCTx0aXRsZSBpZD0idGl0bGUxMzI4MzciPlNoZWV0LjgzNTI8L3RpdGxlPiYjeGE7CQkJJiN4YTsJCQkJPHBhdGggaWQ9InBhdGgxMzI4MzkiIGlua3NjYXBlOmNvbm5lY3Rvci1jdXJ2YXR1cmU9IjAiIHN0eWxlPSJmaWxsOm5vbmU7c3Ryb2tlOiNGRkZGRkY7c3Ryb2tlLXdpZHRoOjAuNTAyMztzdHJva2UtbGluZWNhcDpyb3VuZDtzdHJva2UtbGluZWpvaW46cm91bmQ7c3Ryb2tlLW1pdGVybGltaXQ6MzsiIGQ9IiAgICAgTTEyLjQ4LDczLjU2QzEwLDc3LjM2LDQuNDcsNzguMTgsMCw3NS40NCIvPiYjeGE7CQk8L2c+JiN4YTsJCTxnIGlkPSJzaGFwZTgzNTMtMzEiIHRyYW5zZm9ybT0idHJhbnNsYXRlKDQ1LjY3ODcsLTIxLjMxNjEpIj4mI3hhOwkJCTx0aXRsZSBpZD0idGl0bGUxMzI4NDIiPlNoZWV0LjgzNTM8L3RpdGxlPiYjeGE7CQkJJiN4YTsJCQkJPHBhdGggaWQ9InBhdGgxMzI4NDQiIGlua3NjYXBlOmNvbm5lY3Rvci1jdXJ2YXR1cmU9IjAiIHN0eWxlPSJmaWxsOm5vbmU7c3Ryb2tlOiNGRkZGRkY7c3Ryb2tlLXdpZHRoOjAuNDc5ODtzdHJva2UtbGluZWNhcDpyb3VuZDtzdHJva2UtbGluZWpvaW46cm91bmQ7c3Ryb2tlLW1pdGVybGltaXQ6MzsiIGQ9IiAgICAgTTAsNTAuM3YyNi43NSIvPiYjeGE7CQk8L2c+JiN4YTsJCTxnIGlkPSJzaGFwZTgzNTQtMzQiIHRyYW5zZm9ybT0idHJhbnNsYXRlKDQwLjM2NzIsLTMxLjEwMTYpIj4mI3hhOwkJCTx0aXRsZSBpZD0idGl0bGUxMzI4NDciPlNoZWV0LjgzNTQ8L3RpdGxlPiYjeGE7CQkJPHBhdGggaWQ9InBhdGgxMzI4NDkiIGlua3NjYXBlOmNvbm5lY3Rvci1jdXJ2YXR1cmU9IjAiIHN0eWxlPSJmaWxsOiNGRkZGRkY7IiBkPSJNMCw3Mi4xYzAtMi43MiwyLjMtNC45NSw1LjEzLTQuOTUgICAgIGMyLjg2LDAsNS4xNCwyLjIzLDUuMTQsNC45NWMwLDIuNzQtMi4yOCw0Ljk1LTUuMTQsNC45NUMyLjMsNzcuMDUsMCw3NC44NCwwLDcyLjF6Ii8+JiN4YTsJCTwvZz4mI3hhOwkJPGcgaWQ9InNoYXBlODM1NS0zNiIgdHJhbnNmb3JtPSJ0cmFuc2xhdGUoNjIuMzIxMywtMjEuMzE2MSkiPiYjeGE7CQkJPHRpdGxlIGlkPSJ0aXRsZTEzMjg1MiI+U2hlZXQuODM1NTwvdGl0bGU+JiN4YTsJCQkmI3hhOwkJCQk8cGF0aCBpZD0icGF0aDEzMjg1NCIgaW5rc2NhcGU6Y29ubmVjdG9yLWN1cnZhdHVyZT0iMCIgc3R5bGU9ImZpbGw6bm9uZTtzdHJva2U6I0ZGRkZGRjtzdHJva2Utd2lkdGg6MC40Nzk4O3N0cm9rZS1saW5lY2FwOnJvdW5kO3N0cm9rZS1saW5lam9pbjpyb3VuZDtzdHJva2UtbWl0ZXJsaW1pdDozOyIgZD0iICAgICBNMCw1MC4zdjI2Ljc1Ii8+JiN4YTsJCTwvZz4mI3hhOwkJPGcgaWQ9InNoYXBlODM1Ni0zOSIgdHJhbnNmb3JtPSJ0cmFuc2xhdGUoNTcuMzYzOSwtMzEuMTAxNikiPiYjeGE7CQkJPHRpdGxlIGlkPSJ0aXRsZTEzMjg1NyI+U2hlZXQuODM1NjwvdGl0bGU+JiN4YTsJCQk8cGF0aCBpZD0icGF0aDEzMjg1OSIgaW5rc2NhcGU6Y29ubmVjdG9yLWN1cnZhdHVyZT0iMCIgc3R5bGU9ImZpbGw6I0ZGRkZGRjsiIGQ9Ik05LjkxLDcyLjFjMC0yLjcyLTIuMjEtNC45NS00Ljk1LTQuOTUgICAgIEMyLjI0LDY3LjE1LDAsNjkuMzgsMCw3Mi4xYzAsMi43NCwyLjI0LDQuOTUsNC45Niw0Ljk1QzcuNyw3Ny4wNSw5LjkxLDc0Ljg0LDkuOTEsNzIuMXoiLz4mI3hhOwkJPC9nPiYjeGE7CQk8ZyBpZD0ic2hhcGU4MzU3LTQxIiB0cmFuc2Zvcm09InRyYW5zbGF0ZSg2NS44NjIzLC0yNC4xMjE0KSI+JiN4YTsJCQk8dGl0bGUgaWQ9InRpdGxlMTMyODYyIj5TaGVldC44MzU3PC90aXRsZT4mI3hhOwkJCSYjeGE7CQkJCTxwYXRoIGlkPSJwYXRoMTMyODY0IiBpbmtzY2FwZTpjb25uZWN0b3ItY3VydmF0dXJlPSIwIiBzdHlsZT0iZmlsbDpub25lO3N0cm9rZTojRkZGRkZGO3N0cm9rZS13aWR0aDowLjQ3OTg7c3Ryb2tlLWxpbmVjYXA6cm91bmQ7c3Ryb2tlLWxpbmVqb2luOnJvdW5kO3N0cm9rZS1taXRlcmxpbWl0OjM7IiBkPSIgICAgIE0wLDUxLjY5bDIwLjk4LDI1LjM2Ii8+JiN4YTsJCTwvZz4mI3hhOwkJPGcgaWQ9InNoYXBlODM1OC00NCIgdHJhbnNmb3JtPSJ0cmFuc2xhdGUoNzEuMTczOCwtMzEuODA4NSkiPiYjeGE7CQkJPHRpdGxlIGlkPSJ0aXRsZTEzMjg2NyI+U2hlZXQuODM1ODwvdGl0bGU+JiN4YTsJCQk8cGF0aCBpZD0icGF0aDEzMjg2OSIgaW5rc2NhcGU6Y29ubmVjdG9yLWN1cnZhdHVyZT0iMCIgc3R5bGU9ImZpbGw6I0ZGRkZGRjsiIGQ9Ik0xMC4yNyw3MS45MmMwLTIuODItMi4yOC01LjEyLTUuMTQtNS4xMiAgICAgQzIuMyw2Ni44LDAsNjkuMSwwLDcxLjkyYzAsMi44NSwyLjMsNS4xMyw1LjEzLDUuMTNDNy45OSw3Ny4wNSwxMC4yNyw3NC43NywxMC4yNyw3MS45MnoiLz4mI3hhOwkJPC9nPiYjeGE7CQk8ZyBpZD0ic2hhcGU4MzU5LTQ2IiB0cmFuc2Zvcm09InRyYW5zbGF0ZSgyMS42LC0yNC4xMjE0KSI+JiN4YTsJCQk8dGl0bGUgaWQ9InRpdGxlMTMyODcyIj5TaGVldC44MzU5PC90aXRsZT4mI3hhOwkJCSYjeGE7CQkJCTxwYXRoIGlkPSJwYXRoMTMyODc0IiBpbmtzY2FwZTpjb25uZWN0b3ItY3VydmF0dXJlPSIwIiBzdHlsZT0iZmlsbDpub25lO3N0cm9rZTojRkZGRkZGO3N0cm9rZS13aWR0aDowLjQ3OTg7c3Ryb2tlLWxpbmVjYXA6cm91bmQ7c3Ryb2tlLWxpbmVqb2luOnJvdW5kO3N0cm9rZS1taXRlcmxpbWl0OjM7IiBkPSIgICAgIE0yMC41Niw1MS42OUwwLDc3LjA1Ii8+JiN4YTsJCTwvZz4mI3hhOwkJPGcgaWQ9InNoYXBlODM2MC00OSIgdHJhbnNmb3JtPSJ0cmFuc2xhdGUoMjcuMjY1NiwtMzEuODA4NSkiPiYjeGE7CQkJPHRpdGxlIGlkPSJ0aXRsZTEzMjg3NyI+U2hlZXQuODM2MDwvdGl0bGU+JiN4YTsJCQk8cGF0aCBpZD0icGF0aDEzMjg3OSIgaW5rc2NhcGU6Y29ubmVjdG9yLWN1cnZhdHVyZT0iMCIgc3R5bGU9ImZpbGw6I0ZGRkZGRjsiIGQ9Ik0wLDcxLjkyYzAtMi44MiwyLjI0LTUuMTIsNC45Ni01LjEyICAgICBjMi43NCwwLDQuOTUsMi4zLDQuOTUsNS4xMmMwLDIuODUtMi4yMSw1LjEzLTQuOTUsNS4xM0MyLjI0LDc3LjA1LDAsNzQuNzcsMCw3MS45MnoiLz4mI3hhOwkJPC9nPiYjeGE7CQk8ZyBpZD0ic2hhcGU4MzYxLTUxIiB0cmFuc2Zvcm09InRyYW5zbGF0ZSgzNS40MDk4LC0yMi42MTk0KSI+JiN4YTsJCQk8dGl0bGUgaWQ9InRpdGxlMTMyODgyIj5TaGVldC44MzYxPC90aXRsZT4mI3hhOwkJCSYjeGE7CQkJCTxwYXRoIGlkPSJwYXRoMTMyODg0IiBpbmtzY2FwZTpjb25uZWN0b3ItY3VydmF0dXJlPSIwIiBzdHlsZT0iZmlsbDpub25lO3N0cm9rZTojRkZGRkZGO3N0cm9rZS13aWR0aDowLjQ3OTg7c3Ryb2tlLWxpbmVjYXA6cm91bmQ7c3Ryb2tlLWxpbmVqb2luOnJvdW5kO3N0cm9rZS1taXRlcmxpbWl0OjM7IiBkPSIgICAgIE02LjY2LDY3LjE1TDAsNzcuMDUiLz4mI3hhOwkJPC9nPiYjeGE7CQk8ZyBpZD0ic2hhcGU4MzYyLTU0IiB0cmFuc2Zvcm09InRyYW5zbGF0ZSg2NS44NjIzLC0yMi42MTk0KSI+JiN4YTsJCQk8dGl0bGUgaWQ9InRpdGxlMTMyODg3Ij5TaGVldC44MzYyPC90aXRsZT4mI3hhOwkJCSYjeGE7CQkJCTxwYXRoIGlkPSJwYXRoMTMyODg5IiBpbmtzY2FwZTpjb25uZWN0b3ItY3VydmF0dXJlPSIwIiBzdHlsZT0iZmlsbDpub25lO3N0cm9rZTojRkZGRkZGO3N0cm9rZS13aWR0aDowLjQ3OTg7c3Ryb2tlLWxpbmVjYXA6cm91bmQ7c3Ryb2tlLWxpbmVqb2luOnJvdW5kO3N0cm9rZS1taXRlcmxpbWl0OjM7IiBkPSIgICAgIE0wLDY3LjE1bDYuODgsOS45Ii8+JiN4YTsJCTwvZz4mI3hhOwk8L2c+JiN4YTs8L2c+JiN4YTs8L3N2Zz4=;" vertex="1" parent="1">
          <mxGeometry x="150" y="220" width="56.1" height="40" as="geometry" />
        </mxCell>
        <mxCell id="Z0xOerYNmcIT1oId9lS7-9" value="" style="shape=image;verticalLabelPosition=bottom;labelBackgroundColor=#ffffff;verticalAlign=top;aspect=fixed;imageAspect=0;image=data:image/svg+xml,PHN2ZyB4bWxuczpjYz0iaHR0cDovL2NyZWF0aXZlY29tbW9ucy5vcmcvbnMjIiB4bWxuczpkYz0iaHR0cDovL3B1cmwub3JnL2RjL2VsZW1lbnRzLzEuMS8iIHhtbG5zOmlua3NjYXBlPSJodHRwOi8vd3d3Lmlua3NjYXBlLm9yZy9uYW1lc3BhY2VzL2lua3NjYXBlIiB4bWxuczpyZGY9Imh0dHA6Ly93d3cudzMub3JnLzE5OTkvMDIvMjItcmRmLXN5bnRheC1ucyMiIHhtbG5zOnNvZGlwb2RpPSJodHRwOi8vc29kaXBvZGkuc291cmNlZm9yZ2UubmV0L0RURC9zb2RpcG9kaS0wLmR0ZCIgeG1sbnM6c3ZnPSJodHRwOi8vd3d3LnczLm9yZy8yMDAwL3N2ZyIgeG1sbnM9Imh0dHA6Ly93d3cudzMub3JnLzIwMDAvc3ZnIiB4bWxuczp4bGluaz0iaHR0cDovL3d3dy53My5vcmcvMTk5OS94bGluayIgdmVyc2lvbj0iMS4xIiBpZD0ic3ZnNjEzNCIgaW5rc2NhcGU6dmVyc2lvbj0iMC45Mi4zICgyNDA1NTQ2LCAyMDE4LTAzLTExKSIgc29kaXBvZGk6ZG9jbmFtZT0idmlydHVhbF9uZXR3b3JrXzEuc3ZnIiB4PSIwcHgiIHk9IjBweCIgdmlld0JveD0iMCAwIDM0LjYxIDE5Ljg1IiBzdHlsZT0iZW5hYmxlLWJhY2tncm91bmQ6bmV3IDAgMCAzNC42MSAxOS44NTsiIHhtbDpzcGFjZT0icHJlc2VydmUiPiYjeGE7PHNvZGlwb2RpOm5hbWVkdmlldyBib3JkZXJjb2xvcj0iIzY2NjY2NiIgYm9yZGVyb3BhY2l0eT0iMSIgZml0LW1hcmdpbi1ib3R0b209IjAiIGZpdC1tYXJnaW4tbGVmdD0iMCIgZml0LW1hcmdpbi1yaWdodD0iMCIgZml0LW1hcmdpbi10b3A9IjAiIGdyaWR0b2xlcmFuY2U9IjEwIiBndWlkZXRvbGVyYW5jZT0iMTAiIGlkPSJuYW1lZHZpZXc2MTM2IiBpbmtzY2FwZTpjdXJyZW50LWxheWVyPSJzdmc2MTM0IiBpbmtzY2FwZTpjeD0iMjMuMDc1MjcxIiBpbmtzY2FwZTpjeT0iMTMuMjMyNTUiIGlua3NjYXBlOnBhZ2VvcGFjaXR5PSIwIiBpbmtzY2FwZTpwYWdlc2hhZG93PSIyIiBpbmtzY2FwZTp3aW5kb3ctaGVpZ2h0PSIxMDE3IiBpbmtzY2FwZTp3aW5kb3ctbWF4aW1pemVkPSIxIiBpbmtzY2FwZTp3aW5kb3ctd2lkdGg9IjE5MjAiIGlua3NjYXBlOndpbmRvdy14PSItOCIgaW5rc2NhcGU6d2luZG93LXk9Ii04IiBpbmtzY2FwZTp6b29tPSIxNC42Njg5NzgiIG9iamVjdHRvbGVyYW5jZT0iMTAiIHBhZ2Vjb2xvcj0iI2ZmZmZmZiIgc2hvd2dyaWQ9ImZhbHNlIj4mI3hhOwk8L3NvZGlwb2RpOm5hbWVkdmlldz4mI3hhOzxnIGlkPSJnNjEzMiIgdHJhbnNmb3JtPSJ0cmFuc2xhdGUoLTEyLjI0MTQ2MSwtMTIuMjM5MSkiPiYjeGE7CTx0aXRsZSBpZD0idGl0bGU2MTAyIj5QYWdlLTE8L3RpdGxlPiYjeGE7CTxnIGlkPSJncm91cDk1MDctMSIgdHJhbnNmb3JtPSJ0cmFuc2xhdGUoMTIuMTI4NCwtMTIuMTI4NCkiPiYjeGE7CQk8dGl0bGUgaWQ9InRpdGxlNjEwNCI+VmlydHVhbCBOZXR3b3JrICMxPC90aXRsZT4mI3hhOwkJPGcgaWQ9InNoYXBlOTUwOC0yIiB0cmFuc2Zvcm09InRyYW5zbGF0ZSgyMy43MDk5KSI+JiN4YTsJCQk8dGl0bGUgaWQ9InRpdGxlNjEwNiI+U2hlZXQuOTUwODwvdGl0bGU+JiN4YTsJCQk8cGF0aCBpZD0icGF0aDYxMDgiIGlua3NjYXBlOmNvbm5lY3Rvci1jdXJ2YXR1cmU9IjAiIHN0eWxlPSJmaWxsOiMzOTk5QzY7IiBkPSJNMTAuNzgsMzQuNzljMC4zNS0wLjM1LDAuMjgtMC45LDAtMS4yNSAgICAgbC0xLjY2LTEuNjVsLTcuNDYtNy4yNmMtMC4zNS0wLjM1LTAuODMtMC4zNS0xLjE4LDBjLTAuMzQsMC4zNC0wLjQxLDAuOSwwLDEuMjRsNy44Miw3LjY3YzAuMzQsMC4zNSwwLjM0LDAuOSwwLDEuMjVsLTcuOTUsNy45NSAgICAgYy0wLjM1LDAuMzQtMC4zNSwwLjksMCwxLjI0YzAuMzQsMC4zNSwwLjg5LDAuMjgsMS4xNywwbDcuNC03LjMyYzAsMCwwLDAsMC4wNy0wLjA3TDEwLjc4LDM0Ljc5eiIvPiYjeGE7CQk8L2c+JiN4YTsJCTxnIGlkPSJzaGFwZTk1MDktNCI+JiN4YTsJCQk8dGl0bGUgaWQ9InRpdGxlNjExMSI+U2hlZXQuOTUwOTwvdGl0bGU+JiN4YTsJCQk8cGF0aCBpZD0icGF0aDYxMTMiIGlua3NjYXBlOmNvbm5lY3Rvci1jdXJ2YXR1cmU9IjAiIHN0eWxlPSJmaWxsOiMzOTk5QzY7IiBkPSJNMC4zNSwzNC43OWMtMC4zNS0wLjM1LTAuMjgtMC45LDAtMS4yNUwyLDMxLjg5ICAgICBsNy40Ny03LjI2YzAuMzUtMC4zNSwwLjgzLTAuMzUsMS4xOCwwYzAuMzQsMC4zNCwwLjQxLDAuOSwwLDEuMjRsLTcuNjgsNy42N2MtMC4zNCwwLjM1LTAuMzQsMC45LDAsMS4yNWw3LjgxLDcuOTUgICAgIGMwLjM1LDAuMzQsMC4zNSwwLjksMCwxLjI0Yy0wLjM0LDAuMzUtMC45LDAuMjgtMS4xNywwbC03LjU0LTcuMjZjMCwwLDAsMC0wLjA3LTAuMDZMMC4zNSwzNC43OXoiLz4mI3hhOwkJPC9nPiYjeGE7CQk8ZyBpZD0ic2hhcGU5NTEwLTYiIHRyYW5zZm9ybT0idHJhbnNsYXRlKDguMDE4NTEsLTcuODgwMjYpIj4mI3hhOwkJCTx0aXRsZSBpZD0idGl0bGU2MTE2Ij5TaGVldC45NTEwPC90aXRsZT4mI3hhOwkJCTxwYXRoIGlkPSJwYXRoNjExOCIgaW5rc2NhcGU6Y29ubmVjdG9yLWN1cnZhdHVyZT0iMCIgc3R5bGU9ImZpbGw6IzdGQkEwMDsiIGQ9Ik00LjcsNDIuMDVjMCwxLjMxLTEuMTEsMi4yOC0yLjI4LDIuMjggICAgIEMxLjI0LDQ0LjMzLDAsNDMuMjIsMCw0Mi4wNWMwLTEuMTgsMC45Ny0yLjI4LDIuNDItMi4yOEMzLjgsMzkuNzcsNC43LDQwLjg3LDQuNyw0Mi4wNXoiLz4mI3hhOwkJPC9nPiYjeGE7CQk8ZyBpZD0ic2hhcGU5NTExLTgiIHRyYW5zZm9ybT0idHJhbnNsYXRlKDE1LjAwMDEsLTcuODgwMjYpIj4mI3hhOwkJCTx0aXRsZSBpZD0idGl0bGU2MTIxIj5TaGVldC45NTExPC90aXRsZT4mI3hhOwkJCTxwYXRoIGlkPSJwYXRoNjEyMyIgaW5rc2NhcGU6Y29ubmVjdG9yLWN1cnZhdHVyZT0iMCIgc3R5bGU9ImZpbGw6IzdGQkEwMDsiIGQ9Ik00LjcsNDIuMDVjMCwxLjMxLTEuMTEsMi4yOC0yLjI4LDIuMjggICAgIEMxLjI0LDQ0LjMzLDAsNDMuMjIsMCw0Mi4wNWMwLTEuMTgsMS4xMS0yLjI4LDIuNDItMi4yOFM0LjcsNDAuODcsNC43LDQyLjA1eiIvPiYjeGE7CQk8L2c+JiN4YTsJCTxnIGlkPSJzaGFwZTk1MTItMTAiIHRyYW5zZm9ybT0idHJhbnNsYXRlKDIyLjE4OTIsLTcuODgwMjYpIj4mI3hhOwkJCTx0aXRsZSBpZD0idGl0bGU2MTI2Ij5TaGVldC45NTEyPC90aXRsZT4mI3hhOwkJCTxjaXJjbGUgaWQ9ImVsbGlwc2U2MTI4IiBzdHlsZT0iZmlsbDojN0ZCQTAwOyIgY3g9IjIuMjgiIGN5PSI0Mi4wNSIgcj0iMi4yOCIvPiYjeGE7CQk8L2c+JiN4YTsJPC9nPiYjeGE7PC9nPiYjeGE7PC9zdmc+;" vertex="1" parent="1">
          <mxGeometry x="580" y="280" width="35" height="20" as="geometry" />
        </mxCell>
        <mxCell id="Z0xOerYNmcIT1oId9lS7-10" value="" style="shape=image;verticalLabelPosition=bottom;labelBackgroundColor=#ffffff;verticalAlign=top;aspect=fixed;imageAspect=0;image=data:image/svg+xml,PHN2ZyB4bWxuczpjYz0iaHR0cDovL2NyZWF0aXZlY29tbW9ucy5vcmcvbnMjIiB4bWxuczpkYz0iaHR0cDovL3B1cmwub3JnL2RjL2VsZW1lbnRzLzEuMS8iIHhtbG5zOmlua3NjYXBlPSJodHRwOi8vd3d3Lmlua3NjYXBlLm9yZy9uYW1lc3BhY2VzL2lua3NjYXBlIiB4bWxuczpyZGY9Imh0dHA6Ly93d3cudzMub3JnLzE5OTkvMDIvMjItcmRmLXN5bnRheC1ucyMiIHhtbG5zOnNvZGlwb2RpPSJodHRwOi8vc29kaXBvZGkuc291cmNlZm9yZ2UubmV0L0RURC9zb2RpcG9kaS0wLmR0ZCIgeG1sbnM6c3ZnPSJodHRwOi8vd3d3LnczLm9yZy8yMDAwL3N2ZyIgeG1sbnM9Imh0dHA6Ly93d3cudzMub3JnLzIwMDAvc3ZnIiB4bWxuczp4bGluaz0iaHR0cDovL3d3dy53My5vcmcvMTk5OS94bGluayIgdmVyc2lvbj0iMS4xIiBpZD0ic3ZnMjY1OSIgaW5rc2NhcGU6dmVyc2lvbj0iMC45Mi4zICgyNDA1NTQ2LCAyMDE4LTAzLTExKSIgc29kaXBvZGk6ZG9jbmFtZT0ic3VibmV0cy5zdmciIHg9IjBweCIgeT0iMHB4IiB2aWV3Qm94PSIwIDAgMzQuODQgMjEuNjEiIHN0eWxlPSJlbmFibGUtYmFja2dyb3VuZDpuZXcgMCAwIDM0Ljg0IDIxLjYxOyIgeG1sOnNwYWNlPSJwcmVzZXJ2ZSI+JiN4YTs8c29kaXBvZGk6bmFtZWR2aWV3IGJvcmRlcmNvbG9yPSIjNjY2NjY2IiBib3JkZXJvcGFjaXR5PSIxIiBmaXQtbWFyZ2luLWJvdHRvbT0iMCIgZml0LW1hcmdpbi1sZWZ0PSIwIiBmaXQtbWFyZ2luLXJpZ2h0PSIwIiBmaXQtbWFyZ2luLXRvcD0iMCIgZ3JpZHRvbGVyYW5jZT0iMTAiIGd1aWRldG9sZXJhbmNlPSIxMCIgaWQ9Im5hbWVkdmlldzI2NjEiIGlua3NjYXBlOmN1cnJlbnQtbGF5ZXI9InN2ZzI2NTkiIGlua3NjYXBlOmN4PSIyMy4yMjU5OTEiIGlua3NjYXBlOmN5PSIxNC40MDc5OTQiIGlua3NjYXBlOnBhZ2VvcGFjaXR5PSIwIiBpbmtzY2FwZTpwYWdlc2hhZG93PSIyIiBpbmtzY2FwZTp3aW5kb3ctaGVpZ2h0PSIxMDE3IiBpbmtzY2FwZTp3aW5kb3ctbWF4aW1pemVkPSIxIiBpbmtzY2FwZTp3aW5kb3ctd2lkdGg9IjE5MjAiIGlua3NjYXBlOndpbmRvdy14PSItOCIgaW5rc2NhcGU6d2luZG93LXk9Ii04IiBpbmtzY2FwZTp6b29tPSIzMC4wOTMwMzMiIG9iamVjdHRvbGVyYW5jZT0iMTAiIHBhZ2Vjb2xvcj0iI2ZmZmZmZiIgc2hvd2dyaWQ9ImZhbHNlIj4mI3hhOwk8L3NvZGlwb2RpOm5hbWVkdmlldz4mI3hhOzxnIGlkPSJnMjY1NyIgdHJhbnNmb3JtPSJ0cmFuc2xhdGUoLTQuMjMzMTc0OWUtNSkiPiYjeGE7CTx0aXRsZSBpZD0idGl0bGUyNjM3Ij5QYWdlLTE8L3RpdGxlPiYjeGE7CTxnIGlkPSJncm91cDk1MjItMSI+JiN4YTsJCTx0aXRsZSBpZD0idGl0bGUyNjM5Ij5TdWJuZXRzPC90aXRsZT4mI3hhOwkJPGcgaWQ9InNoYXBlOTUyMy0yIiB0cmFuc2Zvcm09InRyYW5zbGF0ZSgyMi42MTMpIj4mI3hhOwkJCTx0aXRsZSBpZD0idGl0bGUyNjQxIj5TaGVldC45NTIzPC90aXRsZT4mI3hhOwkJCTxwYXRoIGlkPSJwYXRoMjY0MyIgaW5rc2NhcGU6Y29ubmVjdG9yLWN1cnZhdHVyZT0iMCIgc3R5bGU9ImZpbGw6IzM5OTlDNjsiIGQ9Ik0xMi4yMywxMC42OEw5Ljg0LDguMjlMMS4zOSwwTDAsMS4yNmw5LjU4LDkuNDIgICAgIEwwLDIwLjM1bDEuMzksMS4yNmw4LjQ1LTguM0wxMi4yMywxMC42OHoiLz4mI3hhOwkJPC9nPiYjeGE7CQk8ZyBpZD0ic2hhcGU5NTI0LTQiPiYjeGE7CQkJPHRpdGxlIGlkPSJ0aXRsZTI2NDYiPlNoZWV0Ljk1MjQ8L3RpdGxlPiYjeGE7CQkJPHBhdGggaWQ9InBhdGgyNjQ4IiBpbmtzY2FwZTpjb25uZWN0b3ItY3VydmF0dXJlPSIwIiBzdHlsZT0iZmlsbDojMzk5OUM2OyIgZD0iTTAsMTAuNjhsMi4zOS0yLjM5TDEwLjg0LDBsMS4zOSwxLjI2bC05LjU4LDkuNDIgICAgIGw5LjU4LDkuNjdsLTEuMzksMS4yNmwtOC40NS04LjNMMCwxMC42OHoiLz4mI3hhOwkJPC9nPiYjeGE7CQk8ZyBpZD0ic2hhcGU5NTI1LTYiIHRyYW5zZm9ybT0idHJhbnNsYXRlKDE0Ljg2ODUsLTguNTMxOTcpIj4mI3hhOwkJCTx0aXRsZSBpZD0idGl0bGUyNjUxIj5TaGVldC45NTI1PC90aXRsZT4mI3hhOwkJCTxwYXRoIGlkPSJwYXRoMjY1MyIgaW5rc2NhcGU6Y29ubmVjdG9yLWN1cnZhdHVyZT0iMCIgc3R5bGU9ImZpbGw6IzdGQkEwMDsiIGQ9Ik00LjkxLDE5LjIxYzAsMS4zOC0xLjEzLDIuNC0yLjM5LDIuNCAgICAgUzAsMjAuNDYsMCwxOS4yMWMwLTEuMjYsMS4xMy0yLjM4LDIuNTItMi4zOFM0LjkxLDE3Ljk1LDQuOTEsMTkuMjF6Ii8+JiN4YTsJCTwvZz4mI3hhOwk8L2c+JiN4YTs8L2c+JiN4YTs8L3N2Zz4=;" vertex="1" parent="1">
          <mxGeometry x="660" y="340" width="35" height="22" as="geometry" />
        </mxCell>
        <mxCell id="Z0xOerYNmcIT1oId9lS7-11" value="" style="shape=image;verticalLabelPosition=bottom;labelBackgroundColor=#ffffff;verticalAlign=top;aspect=fixed;imageAspect=0;image=data:image/svg+xml,PHN2ZyB4bWxuczpkYz0iaHR0cDovL3B1cmwub3JnL2RjL2VsZW1lbnRzLzEuMS8iIHhtbG5zOmNjPSJodHRwOi8vY3JlYXRpdmVjb21tb25zLm9yZy9ucyMiIHhtbG5zOnJkZj0iaHR0cDovL3d3dy53My5vcmcvMTk5OS8wMi8yMi1yZGYtc3ludGF4LW5zIyIgeG1sbnM6c3ZnPSJodHRwOi8vd3d3LnczLm9yZy8yMDAwL3N2ZyIgeG1sbnM9Imh0dHA6Ly93d3cudzMub3JnLzIwMDAvc3ZnIiB4bWxuczpzb2RpcG9kaT0iaHR0cDovL3NvZGlwb2RpLnNvdXJjZWZvcmdlLm5ldC9EVEQvc29kaXBvZGktMC5kdGQiIHhtbG5zOmlua3NjYXBlPSJodHRwOi8vd3d3Lmlua3NjYXBlLm9yZy9uYW1lc3BhY2VzL2lua3NjYXBlIiB2ZXJzaW9uPSIxLjEiIGlkPSJzdmc1NzM4MSIgaW5rc2NhcGU6dmVyc2lvbj0iMC45Mi4zICgyNDA1NTQ2LCAyMDE4LTAzLTExKSIgc29kaXBvZGk6ZG9jbmFtZT0iZnRwX2FkYXB0ZXJfMS5zdmciIHg9IjBweCIgeT0iMHB4IiB2aWV3Qm94PSIwIDAgNjEuNSA3NS4xMTY4OTYiIHhtbDpzcGFjZT0icHJlc2VydmUiIHdpZHRoPSI2MS41IiBoZWlnaHQ9Ijc1LjExNjg5OCI+PG1ldGFkYXRhIGlkPSJtZXRhZGF0YTU1MjM5Ij48cmRmOlJERj48Y2M6V29yayByZGY6YWJvdXQ9IiI+PGRjOmZvcm1hdD5pbWFnZS9zdmcreG1sPC9kYzpmb3JtYXQ+PGRjOnR5cGUgcmRmOnJlc291cmNlPSJodHRwOi8vcHVybC5vcmcvZGMvZGNtaXR5cGUvU3RpbGxJbWFnZSIvPjxkYzp0aXRsZS8+PC9jYzpXb3JrPjwvcmRmOlJERj48L21ldGFkYXRhPjxkZWZzIGlkPSJkZWZzNTUyMzciPiYjeGE7CSYjeGE7CSYjeGE7JiN4YTsJCSYjeGE7CQkmI3hhOwkJJiN4YTsJJiN4YTsJCQkmI3hhOwkJCSYjeGE7CQkJJiN4YTsJCQkmI3hhOwkJJiN4YTsJCQkmI3hhOwkJCSYjeGE7CQkJJiN4YTsJCQkmI3hhOwkJCSYjeGE7CQkJJiN4YTsJCSYjeGE7CQkJCSYjeGE7CQkJCSYjeGE7CQkJCQkmI3hhOwkJCSYjeGE7CQkJCSYjeGE7CQkJCSYjeGE7CQkJCQkmI3hhOwkJCSYjeGE7CQkJCSYjeGE7CQkJCSYjeGE7CQkJCQkmI3hhOwkJCSYjeGE7CQkJCSYjeGE7CQkJCSYjeGE7CQkJCQkmI3hhOwkJCSYjeGE7CQkJCSYjeGE7CQkJCSYjeGE7CQkJCQkmI3hhOwkJCSYjeGE7CQkJCSYjeGE7CQkJCSYjeGE7CQkJCSYjeGE7CQkJJiN4YTsJCQkJJiN4YTsJCQkJJiN4YTsJCQkJJiN4YTsJCQkmI3hhOwkJCQkmI3hhOwkJCQkmI3hhOwkJCQkmI3hhOwkJCSYjeGE7CQkJCQkmI3hhOwkJCQkmI3hhOwkJCQkJJiN4YTsJCQkJJiN4YTsJCQkJCSYjeGE7CQkJCSYjeGE7CQkJCQkJJiN4YTsJCQkJCSYjeGE7CQkJCQkJJiN4YTsJCQkJCTwvZGVmcz4mI3hhOzxmaWx0ZXIgaWQ9ImZpbHRlcl8yIj4mI3hhOwk8ZmVHYXVzc2lhbkJsdXIgaWQ9ImZlR2F1c3NpYW5CbHVyNTczMTUiIHN0ZERldmlhdGlvbj0iMiIvPiYjeGE7PC9maWx0ZXI+JiN4YTs8c29kaXBvZGk6bmFtZWR2aWV3IGJvcmRlcmNvbG9yPSIjNjY2NjY2IiBib3JkZXJvcGFjaXR5PSIxIiBmaXQtbWFyZ2luLWJvdHRvbT0iMCIgZml0LW1hcmdpbi1sZWZ0PSIwIiBmaXQtbWFyZ2luLXJpZ2h0PSIwIiBmaXQtbWFyZ2luLXRvcD0iMCIgZ3JpZHRvbGVyYW5jZT0iMTAiIGd1aWRldG9sZXJhbmNlPSIxMCIgaWQ9Im5hbWVkdmlldzU3MzgzIiBpbmtzY2FwZTpjdXJyZW50LWxheWVyPSJzdmc1NzM4MSIgaW5rc2NhcGU6Y3g9IjM0LjcxMjQ5NCIgaW5rc2NhcGU6Y3k9IjQyLjk4MDQzNSIgaW5rc2NhcGU6cGFnZW9wYWNpdHk9IjAiIGlua3NjYXBlOnBhZ2VzaGFkb3c9IjIiIGlua3NjYXBlOndpbmRvdy1oZWlnaHQ9IjEwMTciIGlua3NjYXBlOndpbmRvdy1tYXhpbWl6ZWQ9IjEiIGlua3NjYXBlOndpbmRvdy13aWR0aD0iMTkyMCIgaW5rc2NhcGU6d2luZG93LXg9Ii04IiBpbmtzY2FwZTp3aW5kb3cteT0iLTgiIGlua3NjYXBlOnpvb209IjUuOTc5NzM1MSIgb2JqZWN0dG9sZXJhbmNlPSIxMCIgcGFnZWNvbG9yPSIjZmZmZmZmIiBzaG93Z3JpZD0iZmFsc2UiPiYjeGE7CTwvc29kaXBvZGk6bmFtZWR2aWV3PiYjeGE7PHBhdGggaWQ9InBhdGg1NzMyNyIgaW5rc2NhcGU6Y29ubmVjdG9yLWN1cnZhdHVyZT0iMCIgc3R5bGU9ImZpbGw6bm9uZTtzdHJva2U6IzU1NmE4YTtzdHJva2Utd2lkdGg6MS41O3N0cm9rZS1taXRlcmxpbWl0OjMiIGQ9Im0gMjcuNzQ3Myw2OS44Njk2IHYgLTI5LjI1Ii8+PHBhdGggaWQ9InBhdGg1NzMzMiIgaW5rc2NhcGU6Y29ubmVjdG9yLWN1cnZhdHVyZT0iMCIgc3R5bGU9ImZpbGw6bm9uZTtzdHJva2U6IzU1NmE4YTtzdHJva2Utd2lkdGg6MS41O3N0cm9rZS1taXRlcmxpbWl0OjMiIGQ9Im0gMzMuNzUzLDQwLjYxOTYgdiAyNyIvPjxwYXRoIGlkPSJwYXRoNTczMzciIGlua3NjYXBlOmNvbm5lY3Rvci1jdXJ2YXR1cmU9IjAiIHN0eWxlPSJmaWxsOm5vbmU7c3Ryb2tlOiM1NTZhOGE7c3Ryb2tlLXdpZHRoOjEuNTtzdHJva2UtbWl0ZXJsaW1pdDozIiBkPSJNIDYxLjUsNjUuMzcxOSBIIDAiLz48cGF0aCBpZD0icGF0aDU3MzQyIiBpbmtzY2FwZTpjb25uZWN0b3ItY3VydmF0dXJlPSIwIiBzdHlsZT0iZmlsbDpub25lO3N0cm9rZTojNTU2YThhO3N0cm9rZS13aWR0aDoxLjU7c3Ryb2tlLW1pdGVybGltaXQ6MyIgZD0iTSA2MS41LDcxLjM3MTkgSCAwIi8+PHBhdGggaWQ9InBhdGg1NzM0NyIgaW5rc2NhcGU6Y29ubmVjdG9yLWN1cnZhdHVyZT0iMCIgc3R5bGU9ImZpbGw6IzkyNzNiNjtzdHJva2U6IzU1NmE4YTtzdHJva2Utd2lkdGg6MS41O3N0cm9rZS1taXRlcmxpbWl0OjMiIGQ9Im0gMjEuNzUsNzEuMzY2OSBjIDAsMS42NiAxLjM0LDMgMywzIGggMTIgYyAxLjY2LDAgMywtMS4zNCAzLC0zIHYgLTYgYyAwLC0xLjY2IC0xLjM0LC0zIC0zLC0zIGggLTEyIGMgLTEuNjYsMCAtMywxLjM0IC0zLDMgeiIvPjxwYXRoIGlkPSJwYXRoNTczNTgiIGlua3NjYXBlOmNvbm5lY3Rvci1jdXJ2YXR1cmU9IjAiIHN0eWxlPSJmaWxsOiM2MGE4NjAiIGQ9Ik0gNTUuMzUwNjMsNDAuNzIgViA3Ljc2IGMgMCwtMS4yIC0wLjk2LC0yLjE3IC0yLjE2LC0yLjE3IGggLTIyLjU5IGMgLTAuNiwwIC0xLjE4LC0wLjI1IC0xLjU5LC0wLjY5IGwgLTMuOSwtNC4yIGMgLTAuNDEsLTAuNDUgLTAuOTksLTAuNyAtMS42LC0wLjcgaCAtMTMuNDkgQyA4LjgyMDYyOTksMCA3Ljg1MDYyOTksMC45NyA3Ljg1MDYyOTksMi4xNyBjIDAsMCAwLDAgMCwwIHYgMzguNTUgeiIvPjxjaXJjbGUgc3R5bGU9Im9wYWNpdHk6MC4yMjAwMDAwMjtmaWxsOiM1YjliZDU7ZmlsdGVyOnVybCgjZmlsdGVyXzIpIiBjeD0iMzIuMTI4NzMxIiBjeT0iMjQuOTMxOTgiIHI9IjEzLjE3IiBpZD0iY2lyY2xlNTUyMjIiLz48Y2lyY2xlIGlkPSJlbGxpcHNlNTczNjYiIHN0eWxlPSJmaWxsOiM4OGJlODgiIGN4PSIzMS43ODMxMzEiIGN5PSIyMi45NTkxODEiIHI9IjEzLjE3Ii8+PHBhdGggZD0ibSAzOS4yMjA5MywyMi41MTM2IGMgMC4zOSwtMC40MSAwLjYxLC0wLjk1IDAuNjEsLTEuNTIgLTAuMDIsLTEuMjYgLTEuMDYsLTIuMjUgLTIuMzIsLTIuMjMgLTEuMjIsMC4wMiAtMi4yMSwxLjAxIC0yLjIzLDIuMjMgMCwwLjU2IDAuMjIsMS4xIDAuNiwxLjUxIC0wLjUxLDAuMjQgLTAuOTQsMC42MyAtMS4yMywxLjExIC0xLjA2LC0xLjU0IC0zLjE2LC0xLjkyIC00LjcsLTAuODYgLTAuMzMsMC4yMyAtMC42MSwwLjUxIC0wLjg0LDAuODMgLTAuMjksLTAuNDcgLTAuNywtMC44NCAtMS4yLC0xLjA4IDAuMzksLTAuNDEgMC42MSwtMC45NSAwLjYxLC0xLjUyIC0wLjAyLC0xLjI2IC0xLjA2LC0yLjI1IC0yLjMyLC0yLjIzIC0xLjIyLDAuMDIgLTIuMjEsMS4wMSAtMi4yMywyLjIzIDAsMC41NiAwLjIxLDEuMTEgMC41OSwxLjUyIC0xLjAzLDAuNSAtMS43MywxLjUgLTEuNzMsMy4wMyBoIDEuMTMgYyAwLjA0LC0xLjI1IDEuMDksLTIuMjIgMi4zMywtMi4xOCAxLjE1LDAuMDQgMi4wOCwwLjkzIDIuMTgsMi4wNyB2IDAuMTMgYyAwLjAxLDEuMDggMC41MywyLjA5IDEuNDEsMi43MiAtMS41LDAuNzUgLTIuNTIsMS43OCAtMi41Miw0LjA0IGggMS4xMyBjIDAsLTIuMjYgMS41MiwtMy4zOSAzLjM5LC0zLjM5IDEuODcsMCAzLjM5LDEuMTMgMy4zOSwzLjM5IGggMS4xMyBjIDAsLTIuMjYgLTEuMDQsLTMuMjkgLTIuNTQsLTQuMDMgMC44OCwtMC42NCAxLjQsLTEuNjYgMS40LC0yLjc1IGggMC4wMyBjIC0wLjA3LC0xLjI1IDAuODksLTIuMzIgMi4xMywtMi4zOSAxLjI1LC0wLjA3IDIuMzIsMC44OSAyLjM5LDIuMTMgMCwwLjA4IDAsMC4xNyAwLDAuMjUgaCAxLjEyIGMgMCwtMS41MSAtMC42OSwtMi41MSAtMS43MSwtMy4wMSB6IG0gLTEyLjk2LC0yLjU3IGMgMC42MiwwLjAxIDEuMTEsMC41MiAxLjEsMS4xNCAtMC4wMSwwLjYyIC0wLjUyLDEuMTEgLTEuMTQsMS4xIC0wLjYxLC0wLjAxIC0xLjA5LC0wLjUxIC0xLjEsLTEuMTIgMC4wMSwtMC42MiAwLjUyLC0xLjEzIDEuMTQsLTEuMTIgMCwwIDAsMCAwLDAgeiBtIDcuODEsNi4xMSBjIC0wLjI2LDEuMjIgLTEuNDYsMS45OSAtMi42OCwxLjczIC0xLjA0LC0wLjIzIC0xLjc5LC0xLjE1IC0xLjc4LC0yLjIyIHYgLTAuMDMgaCAwLjAyIHYgLTAuMTIgYyAwLjEsLTEuMjQgMS4xOCwtMi4xNyAyLjQyLC0yLjA3IDEuMjQsMC4xIDIuMTcsMS4xOCAyLjA3LDIuNDIgLTAuMDEsMC4wOSAtMC4wMiwwLjE4IC0wLjA0LDAuMjggeiBtIDMuNDcsLTYuMTEgYyAwLjYyLDAuMDEgMS4xMSwwLjUyIDEuMSwxLjE0IC0wLjAxLDAuNjIgLTAuNTIsMS4xMSAtMS4xNCwxLjEgLTAuNjEsLTAuMDEgLTEuMDksLTAuNTEgLTEuMSwtMS4xMiAwLjAxLC0wLjYyIDAuNTIsLTEuMTMgMS4xNCwtMS4xMiAwLDAgMCwwIDAsMCB6IiBzdHlsZT0iZmlsbDojNWI5YmQ1O2ZpbGwtb3BhY2l0eTowLjIyMDAwMDAyIiBpbmtzY2FwZTpjb25uZWN0b3ItY3VydmF0dXJlPSIwIiBpZD0icGF0aDU3MzcxIi8+PHBhdGggaWQ9InBhdGg1NzM3NCIgaW5rc2NhcGU6Y29ubmVjdG9yLWN1cnZhdHVyZT0iMCIgc3R5bGU9ImZpbGw6I2ZmZmZmZiIgZD0ibSAzOC44NzUzMywyMC41NDA4IGMgMC4zOSwtMC40MSAwLjYxLC0wLjk1IDAuNjEsLTEuNTIgLTAuMDIsLTEuMjYgLTEuMDYsLTIuMjUgLTIuMzIsLTIuMjMgLTEuMjIsMC4wMiAtMi4yMSwxLjAxIC0yLjIzLDIuMjMgMCwwLjU2IDAuMjIsMS4xIDAuNiwxLjUxIC0wLjUxLDAuMjQgLTAuOTQsMC42MyAtMS4yMywxLjExIC0xLjA2LC0xLjU0IC0zLjE2LC0xLjkyIC00LjcsLTAuODYgLTAuMzMsMC4yMyAtMC42MSwwLjUxIC0wLjg0LDAuODMgLTAuMjksLTAuNDcgLTAuNywtMC44NCAtMS4yLC0xLjA4IDAuMzksLTAuNDEgMC42MSwtMC45NSAwLjYxLC0xLjUyIC0wLjAyLC0xLjI2IC0xLjA2LC0yLjI1IC0yLjMyLC0yLjIzIC0xLjIyLDAuMDIgLTIuMjEsMS4wMSAtMi4yMywyLjIzIDAsMC41NiAwLjIxLDEuMTEgMC41OSwxLjUyIC0xLjAzLDAuNSAtMS43MywxLjUgLTEuNzMsMy4wMyBoIDEuMTMgYyAwLjA0LC0xLjI1IDEuMDksLTIuMjIgMi4zMywtMi4xOCAxLjE1LDAuMDQgMi4wOCwwLjkzIDIuMTgsMi4wNyB2IDAuMTMgYyAwLjAxLDEuMDggMC41MywyLjA5IDEuNDEsMi43MiAtMS41LDAuNzUgLTIuNTIsMS43OCAtMi41Miw0LjA0IGggMS4xMyBjIDAsLTIuMjYgMS41MiwtMy4zOSAzLjM5LC0zLjM5IDEuODcsMCAzLjM5LDEuMTMgMy4zOSwzLjM5IGggMS4xMyBjIDAsLTIuMjYgLTEuMDQsLTMuMjkgLTIuNTQsLTQuMDMgMC44OCwtMC42NCAxLjQsLTEuNjYgMS40LC0yLjc1IGggMC4wMyBjIC0wLjA3LC0xLjI1IDAuODksLTIuMzIgMi4xMywtMi4zOSAxLjI1LC0wLjA3IDIuMzIsMC44OSAyLjM5LDIuMTMgMCwwLjA4IDAsMC4xNyAwLDAuMjUgaCAxLjEyIGMgMCwtMS41MSAtMC42OSwtMi41MSAtMS43MSwtMy4wMSB6IG0gLTEyLjk2LC0yLjU3IGMgMC42MiwwLjAxIDEuMTEsMC41MiAxLjEsMS4xNCAtMC4wMSwwLjYyIC0wLjUyLDEuMTEgLTEuMTQsMS4xIC0wLjYxLC0wLjAxIC0xLjA5LC0wLjUxIC0xLjEsLTEuMTIgMC4wMSwtMC42MiAwLjUyLC0xLjEzIDEuMTQsLTEuMTIgMCwwIDAsMCAwLDAgeiBtIDcuODEsNi4xMSBjIC0wLjI2LDEuMjIgLTEuNDYsMS45OSAtMi42OCwxLjczIC0xLjA0LC0wLjIzIC0xLjc5LC0xLjE1IC0xLjc4LC0yLjIyIHYgLTAuMDMgaCAwLjAyIHYgLTAuMTIgYyAwLjEsLTEuMjQgMS4xOCwtMi4xNyAyLjQyLC0yLjA3IDEuMjQsMC4xIDIuMTcsMS4xOCAyLjA3LDIuNDIgLTAuMDEsMC4wOSAtMC4wMiwwLjE4IC0wLjA0LDAuMjggeiBtIDMuNDcsLTYuMTEgYyAwLjYyLDAuMDEgMS4xMSwwLjUyIDEuMSwxLjE0IC0wLjAxLDAuNjIgLTAuNTIsMS4xMSAtMS4xNCwxLjEgLTAuNjEsLTAuMDEgLTEuMDksLTAuNTEgLTEuMSwtMS4xMiAwLjAxLC0wLjYyIDAuNTIsLTEuMTMgMS4xNCwtMS4xMiAwLDAgMCwwIDAsMCB6Ii8+JiN4YTs8L3N2Zz4=;" vertex="1" parent="1">
          <mxGeometry x="710" y="540" width="62" height="75" as="geometry" />
        </mxCell>
        <mxCell id="Z0xOerYNmcIT1oId9lS7-12" value="" style="shape=image;verticalLabelPosition=bottom;labelBackgroundColor=#ffffff;verticalAlign=top;aspect=fixed;imageAspect=0;image=data:image/svg+xml,PHN2ZyB4bWxuczpkYz0iaHR0cDovL3B1cmwub3JnL2RjL2VsZW1lbnRzLzEuMS8iIHhtbG5zOmNjPSJodHRwOi8vY3JlYXRpdmVjb21tb25zLm9yZy9ucyMiIHhtbG5zOnJkZj0iaHR0cDovL3d3dy53My5vcmcvMTk5OS8wMi8yMi1yZGYtc3ludGF4LW5zIyIgeG1sbnM6c3ZnPSJodHRwOi8vd3d3LnczLm9yZy8yMDAwL3N2ZyIgeG1sbnM9Imh0dHA6Ly93d3cudzMub3JnLzIwMDAvc3ZnIiB4bWxuczpzb2RpcG9kaT0iaHR0cDovL3NvZGlwb2RpLnNvdXJjZWZvcmdlLm5ldC9EVEQvc29kaXBvZGktMC5kdGQiIHhtbG5zOmlua3NjYXBlPSJodHRwOi8vd3d3Lmlua3NjYXBlLm9yZy9uYW1lc3BhY2VzL2lua3NjYXBlIiB2ZXJzaW9uPSIxLjEiIGlkPSJzdmc3NzczOCIgaW5rc2NhcGU6dmVyc2lvbj0iMC45Mi4zICgyNDA1NTQ2LCAyMDE4LTAzLTExKSIgc29kaXBvZGk6ZG9jbmFtZT0iZGF0YV9sYWtlX3N0b3JlLnN2ZyIgeD0iMHB4IiB5PSIwcHgiIHZpZXdCb3g9IjAgMCA4MS45NyA2NC4zNCIgeG1sOnNwYWNlPSJwcmVzZXJ2ZSIgd2lkdGg9IjgxLjk3MDAwMSIgaGVpZ2h0PSI2NC4zMzk5OTYiPjxtZXRhZGF0YSBpZD0ibWV0YWRhdGEyMzEwNCI+PHJkZjpSREY+PGNjOldvcmsgcmRmOmFib3V0PSIiPjxkYzpmb3JtYXQ+aW1hZ2Uvc3ZnK3htbDwvZGM6Zm9ybWF0PjxkYzp0eXBlIHJkZjpyZXNvdXJjZT0iaHR0cDovL3B1cmwub3JnL2RjL2RjbWl0eXBlL1N0aWxsSW1hZ2UiLz48ZGM6dGl0bGUvPjwvY2M6V29yaz48L3JkZjpSREY+PC9tZXRhZGF0YT48ZGVmcyBpZD0iZGVmczIzMTAyIi8+JiN4YTs8ZmlsdGVyIGlkPSJmaWx0ZXJfMiI+JiN4YTsJPGZlR2F1c3NpYW5CbHVyIGlkPSJmZUdhdXNzaWFuQmx1cjc3NzA4IiBzdGREZXZpYXRpb249IjIiLz4mI3hhOzwvZmlsdGVyPiYjeGE7PHNvZGlwb2RpOm5hbWVkdmlldyBib3JkZXJjb2xvcj0iIzY2NjY2NiIgYm9yZGVyb3BhY2l0eT0iMSIgZml0LW1hcmdpbi1ib3R0b209IjAiIGZpdC1tYXJnaW4tbGVmdD0iMCIgZml0LW1hcmdpbi1yaWdodD0iMCIgZml0LW1hcmdpbi10b3A9IjAiIGdyaWR0b2xlcmFuY2U9IjEwIiBndWlkZXRvbGVyYW5jZT0iMTAiIGlkPSJuYW1lZHZpZXc3Nzc0MCIgaW5rc2NhcGU6Y3VycmVudC1sYXllcj0ic3ZnNzc3MzgiIGlua3NjYXBlOmN4PSItMjEuMzc1NzIyIiBpbmtzY2FwZTpjeT0iMzMuOTg2NjM2IiBpbmtzY2FwZTpwYWdlb3BhY2l0eT0iMCIgaW5rc2NhcGU6cGFnZXNoYWRvdz0iMiIgaW5rc2NhcGU6d2luZG93LWhlaWdodD0iMTAxNyIgaW5rc2NhcGU6d2luZG93LW1heGltaXplZD0iMSIgaW5rc2NhcGU6d2luZG93LXdpZHRoPSIxOTIwIiBpbmtzY2FwZTp3aW5kb3cteD0iLTgiIGlua3NjYXBlOndpbmRvdy15PSItOCIgaW5rc2NhcGU6em9vbT0iNi4wMDM3Mzk3IiBvYmplY3R0b2xlcmFuY2U9IjEwIiBwYWdlY29sb3I9IiNmZmZmZmYiIHNob3dncmlkPSJmYWxzZSI+JiN4YTsJPC9zb2RpcG9kaTpuYW1lZHZpZXc+JiN4YTsmI3hhOzxwYXRoIGlkPSJwYXRoNzc3MjMiIGlua3NjYXBlOmNvbm5lY3Rvci1jdXJ2YXR1cmU9IjAiIHN0eWxlPSJmaWxsOiMzOTk5YzYiIGQ9Ik0gNDguNDQsNi42NCA0Ni4wNywyLjU0IEMgNDUuMTYsMC45OCA0My40NCwwIDQxLjY0LDAgSCA1LjA4IEMgMi4zLDAgMCwyLjI5IDAsNS4wOCBWIDcuNDYgNy43IEggNDkuMzQgQyA0OC45Myw3LjQ2IDQ4LjY5LDcuMDUgNDguNDQsNi42NCBaIi8+JiN4YTsmI3hhOzxwYXRoIGlkPSJwYXRoNzc3MzEiIGlua3NjYXBlOmNvbm5lY3Rvci1jdXJ2YXR1cmU9IjAiIHN0eWxlPSJmaWxsOiM1OWI0ZDkiIGQ9Ik0gNzguNzcsMTAuMzMgSCAwIHYgMy43NyA0NS4xNiBjIDAsMi43OSAyLjMsNS4wOCA1LjA4LDUuMDggaCA3MS44MSBjIDIuNzgsMCA1LjA4LC0yLjI5IDUuMDgsLTUuMDggViAxNSBjIDAsLTIuMDUgLTEuMzEsLTMuODUgLTMuMiwtNC42NyB6IE0gNTEuMzksMzQuOTIgMzYuODksNTUuNjYgYyAtMC4xNywwLjE2IC0wLjMzLDAuMzIgLTAuNTgsMC4zMiAtMC4wOCwwIC0wLjI0LDAgLTAuMzMsLTAuMDggLTAuMzIsLTAuMTYgLTAuNDksLTAuNDkgLTAuMzIsLTAuODIgbCAzLjc3LC0xMi4zNyBoIC04LjQ1IGMgLTAuMjQsMCAtMC40OSwtMC4xNyAtMC42NSwtMC40MSAtMC4wOCwtMC4yNSAtMC4wOCwtMC41IDAuMDgsLTAuNzQgbCAxNC4xLC0yMC40OSBjIDAuMTYsLTAuMTcgMC4zMywtMC4zMyAwLjU3LC0wLjMzIDAuMDgsMCAwLjE3LDAgMC4zMywwLjA4IDAuMzMsMC4xNiAwLjQ5LDAuNDkgMC4zMywwLjgyIGwgLTMuNjEsMTIuMTMgaCA4LjY5IGMgMC40MSwwIDAuNzQsMC4zMyAwLjc0LDAuNzQgMCwwLjE2IC0wLjA4LDAuMjQgLTAuMTcsMC40MSB6Ii8+JiN4YTs8L3N2Zz4=;" vertex="1" parent="1">
          <mxGeometry x="498.0000000000001" y="615" width="82" height="64" as="geometry" />
        </mxCell>
        <mxCell id="Z0xOerYNmcIT1oId9lS7-13" value="" style="aspect=fixed;html=1;points=[];align=center;image;fontSize=12;image=img/lib/azure2/app_services/App_Services.svg;" vertex="1" parent="1">
          <mxGeometry x="70" y="324" width="64" height="64" as="geometry" />
        </mxCell>
        <mxCell id="Z0xOerYNmcIT1oId9lS7-14" value="" style="aspect=fixed;html=1;points=[];align=center;image;fontSize=12;image=img/lib/azure2/integration/App_Configuration.svg;" vertex="1" parent="1">
          <mxGeometry x="247" y="317" width="64" height="68" as="geometry" />
        </mxCell>
        <mxCell id="Z0xOerYNmcIT1oId9lS7-15" value="" style="aspect=fixed;html=1;points=[];align=center;image;fontSize=12;image=img/lib/azure2/app_services/App_Service_Domains.svg;" vertex="1" parent="1">
          <mxGeometry x="226" y="104" width="65" height="52" as="geometry" />
        </mxCell>
        <mxCell id="Z0xOerYNmcIT1oId9lS7-16" value="" style="verticalLabelPosition=bottom;html=1;verticalAlign=top;align=center;strokeColor=none;fillColor=#00BEF2;shape=mxgraph.azure.user;" vertex="1" parent="1">
          <mxGeometry x="60" y="20" width="47.5" height="50" as="geometry" />
        </mxCell>
        <mxCell id="Z0xOerYNmcIT1oId9lS7-17" value="Actor" style="shape=umlActor;verticalLabelPosition=bottom;verticalAlign=top;html=1;outlineConnect=0;" vertex="1" parent="1">
          <mxGeometry x="190" y="15" width="30" height="60" as="geometry" />
        </mxCell>
        <mxCell id="Z0xOerYNmcIT1oId9lS7-18" value="" style="sketch=0;pointerEvents=1;shadow=0;dashed=0;html=1;strokeColor=none;fillColor=#505050;labelPosition=center;verticalLabelPosition=bottom;verticalAlign=top;outlineConnect=0;align=center;shape=mxgraph.office.users.administrator;" vertex="1" parent="1">
          <mxGeometry x="311" y="20" width="58" height="56" as="geometry" />
        </mxCell>
      </root>
    </mxGraphModel>
  </diagram>
</mxfile>
